<svg width="31" height="22" viewBox="0 0 31 22" fill="none" xmlns="http://www.w3.org/2000/svg">
<path fill-rule="evenodd" clip-rule="evenodd" d="M2.77784 22C1.42059 22 0.320312 20.8997 0.320312 19.5425L0.320312 2.69082C0.320312 1.33357 1.42059 0.233294 2.77784 0.233294L27.98 0.233294C29.46 0.233294 30.2758 1.95226 29.3398 3.09873L26.8069 6.20158L29.913 10.0066C30.4404 10.6527 30.4404 11.5806 29.913 12.2267L26.8069 16.0317L29.3398 19.1346C30.2757 20.281 29.46 22 27.98 22L2.77784 22ZM2.42677 19.5425C2.42677 19.7364 2.58395 19.8935 2.77784 19.8935L27.2402 19.8935L24.9939 17.1418C24.4665 16.4957 24.4665 15.5677 24.9939 14.9216L28.1 11.1166L24.9939 7.31165C24.4665 6.66557 24.4665 5.73759 24.9939 5.09152L27.2402 2.33975L2.77784 2.33975C2.58395 2.33975 2.42677 2.49693 2.42677 2.69082L2.42677 19.5425Z" fill="#ACADB9"/>
<path fill-rule="evenodd" clip-rule="evenodd" d="M9.79932 17.7871C9.21764 17.7871 8.74609 17.3156 8.74609 16.7339L8.74609 5.49945C8.74609 4.91777 9.21764 4.44623 9.79932 4.44623C10.381 4.44623 10.8525 4.91777 10.8525 5.49945L10.8525 16.7339C10.8525 17.3156 10.381 17.7871 9.79932 17.7871Z" fill="#ACADB9"/>
<path fill-rule="evenodd" clip-rule="evenodd" d="M14.0117 17.7871C13.43 17.7871 12.9585 17.3156 12.9585 16.7339L12.9585 5.49945C12.9585 4.91777 13.43 4.44623 14.0117 4.44623C14.5934 4.44623 15.065 4.91777 15.065 5.49945L15.065 16.7339C15.065 17.3156 14.5934 17.7871 14.0117 17.7871Z" fill="#ACADB9"/>
<path fill-rule="evenodd" clip-rule="evenodd" d="M18.2246 17.7871C17.6429 17.7871 17.1714 17.3156 17.1714 16.7339V5.49945C17.1714 4.91777 17.6429 4.44623 18.2246 4.44623C18.8063 4.44623 19.2778 4.91777 19.2778 5.49945V16.7339C19.2778 17.3156 18.8063 17.7871 18.2246 17.7871Z" fill="#ACADB9"/>
</svg>
