<svg width="23" height="19" viewBox="0 0 23 19" fill="none" xmlns="http://www.w3.org/2000/svg">
<path d="M5.80307 0.959771C9.66418 0.624087 13.5471 0.624087 17.4082 0.959771L19.2685 1.1215C20.5069 1.22916 21.5675 1.96791 22.117 3.02462C22.1873 3.15981 22.1346 3.32349 22.0051 3.40369L14.287 8.18223C12.6316 9.20709 10.5444 9.22859 8.86834 8.23805L1.09863 3.64624C0.973106 3.57205 0.915487 3.41934 0.972059 3.28494C1.47481 2.09051 2.60511 1.2378 3.94283 1.1215L5.80307 0.959771Z" fill="#6C5FBC"/>
<path d="M0.965736 5.71409C0.773627 5.60055 0.528504 5.72273 0.506111 5.94478C0.19357 9.04384 0.269214 12.1722 0.733041 15.2571C0.977561 16.8834 2.30466 18.1301 3.94283 18.2726L5.80307 18.4343C9.66418 18.77 13.5471 18.77 17.4082 18.4343L19.2685 18.2726C20.9067 18.1301 22.2338 16.8834 22.4783 15.2571C22.9556 12.0823 23.0218 8.86147 22.6769 5.67392C22.6527 5.45031 22.4034 5.33038 22.2122 5.44877L15.2595 9.75342C13.0199 11.14 10.196 11.1691 7.92839 9.82894L0.965736 5.71409Z" fill="#6C5FBC"/>
</svg>
