<svg width="21" height="24" viewBox="0 0 21 24" fill="none" xmlns="http://www.w3.org/2000/svg">
<path d="M10.4715 0.651367C7.78782 0.651367 5.6123 2.94731 5.6123 5.7795C5.6123 8.61168 7.78782 10.9076 10.4715 10.9076C13.1551 10.9076 15.3306 8.61168 15.3306 5.7795C15.3306 2.94731 13.1551 0.651367 10.4715 0.651367Z" fill="#6C5FBC"/>
<path d="M5.28836 13.6426C2.60472 13.6426 0.429199 15.9386 0.429199 18.7708V20.3957C0.429199 21.4258 1.13654 22.304 2.09981 22.47C7.64421 23.4253 13.2987 23.4253 18.8431 22.47C19.8064 22.304 20.5137 21.4258 20.5137 20.3957V18.7708C20.5137 15.9386 18.3382 13.6426 15.6546 13.6426H15.2129C14.9738 13.6426 14.7363 13.6825 14.509 13.7608L13.3875 14.1473C11.4927 14.8003 9.45022 14.8003 7.55543 14.1473L6.43392 13.7608C6.20667 13.6825 5.96911 13.6426 5.73005 13.6426H5.28836Z" fill="#6C5FBC"/>
</svg>
