<svg width="23" height="21" viewBox="0 0 23 21" fill="none" xmlns="http://www.w3.org/2000/svg">
<path fill-rule="evenodd" clip-rule="evenodd" d="M20.7758 2.07672C21.1014 1.7511 21.1014 1.22316 20.7758 0.897538C20.4501 0.571914 19.9222 0.571914 19.5966 0.897538L1.8086 18.6855C1.48298 19.0111 1.48298 19.5391 1.8086 19.8647C2.13423 20.1903 2.66217 20.1903 2.98779 19.8647L6.15282 16.6997C7.67181 17.4147 9.42131 17.8854 11.2922 17.8854C14.2761 17.8854 16.9514 16.688 18.875 15.2116C19.8386 14.472 20.6344 13.6469 21.1966 12.8368C21.7433 12.0491 22.1317 11.1846 22.1317 10.3811C22.1317 9.57765 21.7433 8.71317 21.1966 7.92543C20.6344 7.11529 19.8386 6.2902 18.875 5.55061C18.5835 5.32694 18.2749 5.10968 17.9505 4.90201L20.7758 2.07672ZM16.7392 6.11326L14.7705 8.08197C15.207 8.74104 15.4612 9.53139 15.4612 10.3811C15.4612 12.6836 13.5947 14.5502 11.2922 14.5502C10.4425 14.5502 9.65211 14.296 8.99304 13.8594L7.418 15.4345C8.6026 15.9171 9.91597 16.2178 11.2922 16.2178C13.8342 16.2178 16.1619 15.1917 17.8596 13.8887C18.7067 13.2386 19.3762 12.5351 19.8266 11.886C20.2925 11.2146 20.4641 10.6894 20.4641 10.3811C20.4641 10.0728 20.2925 9.54762 19.8266 8.8762C19.3762 8.22716 18.7067 7.52361 17.8596 6.87351C17.5115 6.60629 17.1368 6.35072 16.7392 6.11326ZM10.2137 12.6388C10.5403 12.795 10.906 12.8825 11.2922 12.8825C12.6737 12.8825 13.7936 11.7626 13.7936 10.3811C13.7936 9.99494 13.7061 9.6292 13.5498 9.30265L10.2137 12.6388Z" fill="#6C5FBC"/>
<path d="M11.2922 2.87682C12.4399 2.87682 13.5419 3.05396 14.5731 3.356C14.7715 3.4141 14.8306 3.6624 14.6844 3.80857L13.7677 4.72527C13.6989 4.79403 13.5993 4.82158 13.5045 4.79977C12.7937 4.63623 12.0525 4.54444 11.2922 4.54444C8.75011 4.54444 6.42248 5.57049 4.72472 6.87351C3.87768 7.52361 3.20818 8.22716 2.75776 8.8762C2.29181 9.54762 2.12026 10.0728 2.12026 10.3811C2.12026 10.6894 2.29181 11.2146 2.75776 11.886C3.15113 12.4529 3.71159 13.0613 4.41147 13.6393C4.54027 13.7457 4.55255 13.9404 4.43443 14.0585L3.64629 14.8467C3.54589 14.9471 3.38569 14.9559 3.27689 14.8646C2.50647 14.2186 1.86347 13.5223 1.38773 12.8368C0.841049 12.0491 0.452637 11.1846 0.452637 10.3811C0.452637 9.57765 0.841049 8.71317 1.38773 7.92543C1.94995 7.11529 2.74575 6.2902 3.7094 5.55061C5.633 4.07426 8.30823 2.87682 11.2922 2.87682Z" fill="#6C5FBC"/>
<path d="M11.2922 6.21206C11.4239 6.21206 11.5542 6.21817 11.6828 6.23011C11.9016 6.25045 11.9808 6.51213 11.8254 6.66755L10.4777 8.01528C9.75138 8.26527 9.17634 8.84032 8.92634 9.56663L7.57861 10.9144C7.42319 11.0698 7.16151 10.9906 7.14118 10.7717C7.12923 10.6431 7.12312 10.5128 7.12312 10.3811C7.12312 8.07861 8.98967 6.21206 11.2922 6.21206Z" fill="#6C5FBC"/>
</svg>
