<svg width="332" height="25" viewBox="0 0 332 25" fill="none" xmlns="http://www.w3.org/2000/svg">
<circle cx="58.8247" cy="12.103" r="3.89112" fill="#6C5FBC"/>
<circle cx="71.0537" cy="12.103" r="3.89112" fill="#6C5FBC"/>
<circle cx="83.2827" cy="12.103" r="3.89112" fill="#6C5FBC"/>
<circle cx="95.5122" cy="12.103" r="3.89112" fill="#6C5FBC"/>
<circle cx="107.742" cy="12.103" r="3.89112" fill="#6C5FBC"/>
<circle cx="119.971" cy="12.103" r="3.89112" fill="#6C5FBC"/>
<circle cx="132.2" cy="12.103" r="3.89112" fill="#6C5FBC"/>
<circle cx="144.429" cy="12.103" r="3.89112" fill="#6C5FBC"/>
<circle cx="156.658" cy="12.103" r="3.89112" fill="#6C5FBC"/>
<circle cx="168.888" cy="12.103" r="3.89112" fill="#6C5FBC"/>
<circle cx="181.117" cy="12.103" r="3.89112" fill="#6C5FBC"/>
<path fill-rule="evenodd" clip-rule="evenodd" d="M325.5 6.0004C326.5 6.5 325.5 6 324.5 5.5C324 5.5 324.5 5.59866 324.003 5.49069L312.47 17.0233C312.98 17.4346 312.47 17.0233 313 17.5001C313.53 17.9769 313 17.5001 313.557 17.9373L314.221 18.2179L315.153 18.6998C316.672 19.4148 318.421 19.8855 320.292 19.8855C323.276 19.8855 325.951 18.6881 327.875 17.2118C328.839 16.4722 329.634 15.6471 330.197 14.8369C330.743 14.0492 331.132 13.1847 331.132 12.3813C331.132 11.5778 330.743 10.7133 330.197 9.92556C329.634 9.11543 328.839 8.29033 327.875 7.55074C327.584 7.32708 327.275 7.10981 326.95 6.90214L325.5 6.0004ZM325.739 8.11339L323.771 10.0821C323 8.2122 324.461 11.5315 324.461 12.3813C324.461 14.6838 322.595 16.5503 320.292 16.5503C319.442 16.5503 318.652 16.2961 317.993 15.8596L316.418 17.4346C317.603 17.9172 318.916 18.2179 320.292 18.2179C322.834 18.2179 325.162 17.1919 326.86 15.8889C327.707 15.2388 328.376 14.5352 328.827 13.8862C329.293 13.2147 329.464 12.6895 329.464 12.3813C329.464 12.073 329.293 11.5478 328.827 10.8763C328.376 10.2273 327.707 9.52375 326.86 8.87365C326.511 8.60643 326.137 8.35086 325.739 8.11339ZM319.214 14.6389C319.54 14.7952 319.906 14.8827 320.292 14.8827C321.674 14.8827 322.794 13.7628 322.794 12.3813C322.794 11.9951 322.706 11.6293 322.55 11.3028L319.214 14.6389Z" fill="#6C5FBC"/>
<path d="M320.292 4.87695C321.601 4.87695 325.317 5.77612 324.003 5.49069L323.036 6.45704C322.877 6.61635 322.969 6.89002 323.191 6.92823C325.943 7.40184 321.064 6.54457 320.292 6.54457C317.75 6.54457 315.422 7.57063 313.725 8.87365C312.878 9.52375 312.208 10.2273 311.758 10.8763C311.292 11.5478 311.12 12.073 311.12 12.3813C311.12 12.6895 311.292 13.2147 311.758 13.8862C312.103 14.3838 313.607 15.7202 313.872 15.963C313.974 16.0558 313.694 15.9508 313.591 16.0414L312.47 17.0233C311.613 16.3334 310.903 15.5789 310.388 14.8369C309.841 14.0492 309.453 13.1847 309.453 12.3813C309.453 11.5778 309.841 10.7133 310.388 9.92556C310.95 9.11543 311.746 8.29033 312.709 7.55074C314.633 6.07439 317.308 4.87695 320.292 4.87695Z" fill="#6C5FBC"/>
<path d="M320.292 8.2122C320.712 8.23284 320.979 8.24612 321.142 8.25489C321.362 8.26665 320.981 8.51226 320.825 8.66768L319.478 10.0154C318.751 10.2654 318.176 10.8405 317.926 11.5668L316.579 12.9145C316.423 13.0699 316.23 13.8884 316.214 13.6691C316.208 13.5811 316.185 13.2408 316.123 12.3813C316.123 10.0787 317.99 8.2122 320.292 8.2122Z" fill="#6C5FBC"/>
<path fill-rule="evenodd" clip-rule="evenodd" d="M3.64951 7.38526L4.08487 11.3035L3.20386 11.3739C1.9753 11.4719 0.972119 12.3955 0.772964 13.6117C0.31396 16.4149 0.31396 19.2741 0.772964 22.0773C0.972119 23.2936 1.9753 24.2171 3.20386 24.3152L5.10253 24.4668C8.1002 24.7061 11.1122 24.7061 14.1099 24.4668L16.0085 24.3152C17.2371 24.2171 18.2403 23.2936 18.4394 22.0773C18.8984 19.2741 18.8984 16.4149 18.4394 13.6117C18.2403 12.3955 17.2371 11.4719 16.0085 11.3739L15.1274 11.3035L15.5627 7.38526C15.6141 6.92335 15.6141 6.45718 15.5627 5.99528L15.5339 5.73526C15.2274 2.97712 13.0591 0.794786 10.303 0.470539C9.84001 0.41607 9.37224 0.41607 8.90926 0.470539C6.15316 0.794786 3.98486 2.97712 3.6784 5.73525L3.64951 5.99528C3.59818 6.45718 3.59818 6.92335 3.64951 7.38526ZM10.0806 2.36107C9.76536 2.32399 9.44689 2.32399 9.13168 2.36107C7.25523 2.58183 5.77898 4.06764 5.57033 5.94547L5.54144 6.20549C5.50564 6.52769 5.50564 6.85285 5.54144 7.17505L5.98408 11.1588C8.3963 11.0041 10.816 11.0041 13.2282 11.1588L13.6708 7.17505C13.7066 6.85285 13.7066 6.52769 13.6708 6.20549L13.6419 5.94547C13.4333 4.06764 11.957 2.58183 10.0806 2.36107ZM9.60616 15.941C8.55484 15.941 7.70258 16.7932 7.70258 17.8445C7.70258 18.8959 8.55484 19.7481 9.60616 19.7481C10.6575 19.7481 11.5097 18.8959 11.5097 17.8445C11.5097 16.7932 10.6575 15.941 9.60616 15.941Z" fill="#6C5FBC"/>
</svg>
