<svg width="23" height="23" viewBox="0 0 23 23" fill="none" xmlns="http://www.w3.org/2000/svg">
<path d="M16.5331 7.09033C16.0351 6.17721 15.3502 5.482 14.4786 5.00469C13.607 4.52738 12.5901 4.28872 11.428 4.28872C10.1413 4.28872 8.99993 4.57926 8.00381 5.16033C7.00768 5.74141 6.22946 6.57151 5.66914 7.65065C5.10881 8.72978 4.82865 9.97494 4.82865 11.3861C4.82865 12.8388 5.10881 14.1047 5.66914 15.1839C6.25021 16.263 7.04919 17.0931 8.06606 17.6742C9.08294 18.2552 10.2658 18.5458 11.6148 18.5458C13.275 18.5458 14.6343 18.11 15.6927 17.2384C16.751 16.346 17.4463 15.1112 17.7783 13.534H10.3073V10.2032H22.0741V14.001C21.7836 15.5159 21.161 16.9167 20.2064 18.2034C19.2517 19.49 18.0169 20.5277 16.502 21.3163C15.0078 22.0841 13.3269 22.468 11.4591 22.468C9.3631 22.468 7.46424 22.0011 5.76252 21.0672C4.08156 20.1126 2.75339 18.7948 1.77802 17.1138C0.823397 15.4329 0.346087 13.5236 0.346087 11.3861C0.346087 9.2486 0.823397 7.33936 1.77802 5.65839C2.75339 3.95668 4.08156 2.63889 5.76252 1.70502C7.46424 0.750399 9.35273 0.273088 11.428 0.273088C13.8768 0.273088 16.0039 0.874914 17.8094 2.07857C19.6149 3.26147 20.8601 4.93205 21.5449 7.09033H16.5331Z" fill="#323142"/>
</svg>
