<svg width="180" height="43" viewBox="0 0 180 43" fill="none" xmlns="http://www.w3.org/2000/svg">
<path d="M18.7744 16.13C18.7744 17.4367 18.4594 18.6617 17.8294 19.805C17.2228 20.9483 16.2544 21.87 14.9244 22.57C13.6178 23.27 11.9611 23.62 9.95443 23.62H5.85943V33H0.959434V8.57H9.95443C11.8444 8.57 13.4544 8.89667 14.7844 9.55C16.1144 10.2033 17.1061 11.1017 17.7594 12.245C18.4361 13.3883 18.7744 14.6833 18.7744 16.13ZM9.74443 19.665C11.0978 19.665 12.1011 19.3617 12.7544 18.755C13.4078 18.125 13.7344 17.25 13.7344 16.13C13.7344 13.75 12.4044 12.56 9.74443 12.56H5.85943V19.665H9.74443ZM30.8634 33.315C28.9967 33.315 27.3167 32.9067 25.8234 32.09C24.33 31.25 23.1517 30.0717 22.2884 28.555C21.4484 27.0383 21.0284 25.2883 21.0284 23.305C21.0284 21.3217 21.46 19.5717 22.3234 18.055C23.21 16.5383 24.4117 15.3717 25.9284 14.555C27.445 13.715 29.1367 13.295 31.0034 13.295C32.87 13.295 34.5617 13.715 36.0784 14.555C37.595 15.3717 38.785 16.5383 39.6484 18.055C40.535 19.5717 40.9784 21.3217 40.9784 23.305C40.9784 25.2883 40.5234 27.0383 39.6134 28.555C38.7267 30.0717 37.5134 31.25 35.9734 32.09C34.4567 32.9067 32.7534 33.315 30.8634 33.315ZM30.8634 29.045C31.75 29.045 32.5784 28.835 33.3484 28.415C34.1417 27.9717 34.7717 27.3183 35.2384 26.455C35.705 25.5917 35.9384 24.5417 35.9384 23.305C35.9384 21.4617 35.4484 20.05 34.4684 19.07C33.5117 18.0667 32.3334 17.565 30.9334 17.565C29.5334 17.565 28.355 18.0667 27.3984 19.07C26.465 20.05 25.9984 21.4617 25.9984 23.305C25.9984 25.1483 26.4534 26.5717 27.3634 27.575C28.2967 28.555 29.4634 29.045 30.8634 29.045ZM49.4727 16.41C50.1027 15.5233 50.966 14.7883 52.0627 14.205C53.1827 13.5983 54.4544 13.295 55.8777 13.295C57.5344 13.295 59.0277 13.7033 60.3577 14.52C61.711 15.3367 62.7727 16.5033 63.5427 18.02C64.336 19.5133 64.7327 21.2517 64.7327 23.235C64.7327 25.2183 64.336 26.98 63.5427 28.52C62.7727 30.0367 61.711 31.215 60.3577 32.055C59.0277 32.895 57.5344 33.315 55.8777 33.315C54.4544 33.315 53.1944 33.0233 52.0977 32.44C51.0244 31.8567 50.1494 31.1217 49.4727 30.235V42.24H44.5727V13.61H49.4727V16.41ZM59.7277 23.235C59.7277 22.0683 59.4827 21.065 58.9927 20.225C58.526 19.3617 57.896 18.7083 57.1027 18.265C56.3327 17.8217 55.4927 17.6 54.5827 17.6C53.696 17.6 52.856 17.8333 52.0627 18.3C51.2927 18.7433 50.6627 19.3967 50.1727 20.26C49.706 21.1233 49.4727 22.1383 49.4727 23.305C49.4727 24.4717 49.706 25.4867 50.1727 26.35C50.6627 27.2133 51.2927 27.8783 52.0627 28.345C52.856 28.7883 53.696 29.01 54.5827 29.01C55.4927 29.01 56.3327 28.7767 57.1027 28.31C57.896 27.8433 58.526 27.1783 58.9927 26.315C59.4827 25.4517 59.7277 24.425 59.7277 23.235ZM86.5984 13.61V33H81.6634V30.55C81.0334 31.39 80.2051 32.055 79.1784 32.545C78.1751 33.0117 77.0784 33.245 75.8884 33.245C74.3718 33.245 73.0301 32.93 71.8634 32.3C70.6968 31.6467 69.7751 30.7017 69.0984 29.465C68.4451 28.205 68.1184 26.7117 68.1184 24.985V13.61H73.0184V24.285C73.0184 25.825 73.4034 27.015 74.1734 27.855C74.9434 28.6717 75.9934 29.08 77.3234 29.08C78.6768 29.08 79.7384 28.6717 80.5084 27.855C81.2784 27.015 81.6634 25.825 81.6634 24.285V13.61H86.5984ZM96.3331 7.1V33H91.4331V7.1H96.3331ZM99.9143 23.235C99.9143 21.275 100.299 19.5367 101.069 18.02C101.863 16.5033 102.924 15.3367 104.254 14.52C105.608 13.7033 107.113 13.295 108.769 13.295C110.216 13.295 111.476 13.5867 112.549 14.17C113.646 14.7533 114.521 15.4883 115.174 16.375V13.61H120.109V33H115.174V30.165C114.544 31.075 113.669 31.8333 112.549 32.44C111.453 33.0233 110.181 33.315 108.734 33.315C107.101 33.315 105.608 32.895 104.254 32.055C102.924 31.215 101.863 30.0367 101.069 28.52C100.299 26.98 99.9143 25.2183 99.9143 23.235ZM115.174 23.305C115.174 22.115 114.941 21.1 114.474 20.26C114.008 19.3967 113.378 18.7433 112.584 18.3C111.791 17.8333 110.939 17.6 110.029 17.6C109.119 17.6 108.279 17.8217 107.509 18.265C106.739 18.7083 106.109 19.3617 105.619 20.225C105.153 21.065 104.919 22.0683 104.919 23.235C104.919 24.4017 105.153 25.4283 105.619 26.315C106.109 27.1783 106.739 27.8433 107.509 28.31C108.303 28.7767 109.143 29.01 110.029 29.01C110.939 29.01 111.791 28.7883 112.584 28.345C113.378 27.8783 114.008 27.225 114.474 26.385C114.941 25.5217 115.174 24.495 115.174 23.305ZM129.795 16.62C130.425 15.5933 131.242 14.7883 132.245 14.205C133.272 13.6217 134.438 13.33 135.745 13.33V18.475H134.45C132.91 18.475 131.743 18.8367 130.95 19.56C130.18 20.2833 129.795 21.5433 129.795 23.34V33H124.895V13.61H129.795V16.62ZM144.97 35.45H179.97V0.45H144.97V35.45Z" fill="#323142"/>
</svg>
