<svg width="35" height="35" viewBox="0 0 35 35" fill="none" xmlns="http://www.w3.org/2000/svg">
<g clip-path="url(#clip0_1_14605)">
<path d="M17.3072 1.2832C8.29457 1.2832 0.96875 8.58696 0.96875 17.6218C0.96875 26.635 8.27241 33.9604 17.3072 33.9604C26.3202 33.9604 33.6456 26.6567 33.6456 17.6218C33.6456 8.58696 26.3202 1.2832 17.3072 1.2832ZM17.3072 23.0385C14.3103 23.0385 11.8684 20.5965 11.8684 17.5997C11.8684 14.6028 14.3103 12.1608 17.3072 12.1608C20.304 12.1608 22.7459 14.6028 22.7459 17.5997C22.7459 20.6191 20.3044 23.0385 17.3072 23.0385Z" fill="#EDB66B"/>
<path d="M9.93289 22.9485C9.52915 22.9485 9.18923 22.7996 8.93396 22.5447C8.33876 21.9282 8.36003 20.8659 8.40258 19.6121C8.42385 18.5281 8.4664 17.168 7.95629 16.637C7.84993 16.5094 7.63764 16.3609 7.14881 16.3396H7.06372C6.53234 16.3396 6.14988 16.446 5.93715 16.6796C5.51214 17.1259 5.57595 18.1248 5.6185 18.9323C5.68232 19.7823 5.72486 20.5264 5.23603 20.9515C4.87484 21.2914 4.38601 21.4616 3.85463 21.4616C2.81315 21.4616 1.58066 20.7392 1.17692 19.8891C1.13481 19.8036 1.11354 19.7398 1.11354 19.6547L1.09227 19.442C1.02845 18.6345 0.943359 17.7419 0.943359 17.3594C0.943359 8.34849 8.27494 1.03809 17.264 1.03809C26.2531 1.03809 33.5851 8.36976 33.5851 17.3594C33.5851 17.7206 33.5639 18.1031 33.5426 18.4647C33.4575 19.5909 32.5437 20.4622 31.4388 20.4622C31.2053 20.4622 30.95 20.4196 30.7164 20.3345C29.6537 19.9308 28.7611 19.1658 27.9111 18.4217C26.6786 17.3377 25.5095 16.3392 23.8519 16.2966C22.8105 16.2754 21.8754 15.7014 21.387 14.8089C20.197 12.5987 20.0481 12.5136 17.0517 12.5136C11.5266 12.5136 11.5266 15.6163 11.5266 16.6366C11.5266 17.2105 11.5691 17.8265 11.5904 18.4217C11.6968 20.1644 11.7819 21.6942 11.0377 22.4809C10.8042 22.7787 10.4004 22.9485 9.93289 22.9485Z" fill="#86522C"/>
<path d="M17.3069 1.73961C25.9348 1.73961 32.9477 8.73136 32.9477 17.3806C32.9477 17.7418 32.9265 18.103 32.9052 18.4434C32.8414 19.2083 32.2041 19.7823 31.503 19.7823C31.354 19.7823 31.1843 19.761 31.0354 19.6972C28.6551 18.8046 27.1039 15.6806 23.9378 15.6172C23.1729 15.5959 22.4288 15.1709 22.0676 14.4906C20.7287 11.983 20.2824 11.8341 17.1159 11.8341C13.5882 11.8341 10.8892 13.0241 10.8892 16.637C10.8892 19.2296 11.5482 22.2473 9.95405 22.2473C7.85025 22.2473 10.7615 15.7444 7.19168 15.6593H7.08532C3.6214 15.6593 5.53418 19.7823 4.81179 20.4621C4.55651 20.6961 4.23786 20.7808 3.89794 20.7808C3.04792 20.7808 2.1128 20.1856 1.85753 19.6121C1.81498 19.1658 1.70862 17.8269 1.70862 17.3806C1.66607 8.73136 8.67901 1.73961 17.3069 1.73961ZM17.3069 0.336914C7.91407 0.336914 0.284668 7.96641 0.284668 17.3594C0.284668 17.7631 0.369759 18.677 0.433578 19.5057L0.45485 19.718C0.476123 19.8882 0.518669 20.0579 0.582487 20.2069C1.11386 21.3117 2.55909 22.1622 3.87667 22.1622C4.57779 22.1622 5.21553 21.9282 5.72563 21.4819C6.46929 20.8233 6.40548 19.8457 6.34166 18.8893C6.32038 18.4004 6.23529 17.4015 6.46929 17.1679C6.51184 17.1254 6.70285 17.0403 7.08532 17.0403H7.14914C7.21296 17.0403 7.40397 17.0403 7.46779 17.1041C7.78644 17.4227 7.74389 18.8254 7.72262 19.5904C7.68007 20.9293 7.6588 22.2043 8.44501 23.0118C8.82747 23.4155 9.35885 23.6283 9.95405 23.6283C10.6131 23.6283 11.1865 23.3943 11.6116 22.9271C12.5467 21.9282 12.4616 20.2707 12.3552 18.3579C12.3127 17.7839 12.2914 17.1679 12.2914 16.6152C12.2914 15.595 12.2914 13.1938 17.1154 13.1938C19.8144 13.1938 19.8144 13.1938 20.8342 15.1279C21.4294 16.2541 22.6193 16.9556 23.8944 16.9769C25.2971 16.9982 26.3173 17.8903 27.5072 18.9318C28.4211 19.718 29.3562 20.5472 30.5249 20.9722C30.8222 21.0786 31.1626 21.1424 31.4812 21.1424C32.9477 21.1424 34.1802 19.9946 34.2649 18.5072C34.2862 18.1248 34.3074 17.721 34.3074 17.3385C34.3296 7.98769 26.7002 0.336914 17.3069 0.336914Z" fill="#4C2F1B"/>
<path d="M19.6527 32.6762C19.771 32.9856 20.2567 33.0871 20.7376 32.9027C21.2184 32.7188 21.5123 32.319 21.3939 32.0097C21.2756 31.7003 20.7899 31.5993 20.309 31.7832C19.8282 31.9676 19.5343 32.3673 19.6527 32.6762Z" fill="#E3A358"/>
<path d="M28.6098 26.9525C28.8168 27.4931 29.3202 27.8734 29.9305 27.9501C30.5408 28.0263 31.1648 27.7874 31.5681 27.3234C31.9714 26.8589 32.0923 26.2398 31.8854 25.6991C31.6784 25.158 31.175 24.7782 30.5647 24.7015C29.9544 24.6253 29.33 24.8641 28.9267 25.3282C28.5234 25.7926 28.4028 26.4118 28.6098 26.9525Z" fill="#E3A358"/>
<path d="M13.1414 33.6976C13.3484 34.2383 13.8519 34.6185 14.4621 34.6952C15.0724 34.7714 15.6968 34.5325 16.1001 34.0685C16.5034 33.6041 16.6244 32.9849 16.4174 32.4442C16.2105 31.9035 15.707 31.5233 15.0968 31.4466C14.4865 31.3704 13.8621 31.6093 13.4588 32.0733C13.0555 32.5377 12.9345 33.1569 13.1414 33.6976Z" fill="#E3A358"/>
<path d="M9.73643 31.1998C10.0613 31.2733 10.3866 31.2304 10.5904 31.0863C10.7939 30.9423 10.8444 30.7198 10.723 30.5018C10.6015 30.2841 10.3268 30.1042 10.0019 30.0306C9.67705 29.9566 9.35175 30.0001 9.14789 30.1441C8.94447 30.2881 8.89394 30.5106 9.01538 30.7282C9.13636 30.9463 9.41158 31.1258 9.73643 31.1998Z" fill="#E3A358"/>
<path d="M16.6905 24.6018C16.9613 24.6635 17.2254 24.6586 17.3836 24.5886C17.5418 24.5185 17.5697 24.3949 17.4576 24.2637C17.345 24.1325 17.1088 24.0137 16.838 23.9521C16.5673 23.8905 16.3031 23.8954 16.1449 23.9654C15.9867 24.0354 15.9588 24.1591 16.0709 24.2903C16.1835 24.4219 16.4197 24.5402 16.6905 24.6018Z" fill="#E3A358"/>
<path d="M4.46211 26.1244C4.67129 26.1718 4.88092 26.1413 5.01298 26.0446C5.14505 25.9476 5.17829 25.7991 5.10162 25.6551C5.02451 25.5106 4.84856 25.3927 4.63982 25.3453C4.43064 25.2979 4.22102 25.328 4.08939 25.4251C3.95732 25.5217 3.92364 25.6706 4.00075 25.8146C4.07698 25.9587 4.25337 26.077 4.46211 26.1244Z" fill="#E3A358"/>
<path d="M12.8821 23.037C13.1578 23.224 13.4503 23.341 13.6497 23.3437C13.8492 23.3463 13.9254 23.2342 13.8492 23.0498C13.7734 22.865 13.5567 22.6363 13.281 22.4493C13.0053 22.2623 12.7128 22.1453 12.513 22.1426C12.3135 22.14 12.2378 22.2521 12.3135 22.4365C12.3898 22.6213 12.6065 22.85 12.8821 23.037Z" fill="#E3A358"/>
<path d="M17.308 34.9057C7.77693 34.9057 0.0234375 27.1521 0.0234375 17.6217C0.0234375 8.09051 7.77693 0.336914 17.308 0.336914C26.8387 0.336914 34.5922 8.09051 34.5922 17.6217C34.5922 27.1521 26.8383 34.9057 17.308 34.9057ZM17.308 2.22845C8.83259 2.22845 1.93755 9.12403 1.93755 17.5991C1.93755 26.0742 8.83304 32.9698 17.308 32.9698C25.783 32.9698 32.6785 26.0747 32.6785 17.5991C32.6785 9.12358 25.783 2.22845 17.308 2.22845ZM17.308 24.0059C13.7874 24.0059 10.9235 21.142 10.9235 17.6217C10.9235 14.0891 13.7874 11.215 17.308 11.215C20.8282 11.215 23.6921 14.0789 23.6921 17.5996C23.6921 21.1318 20.8282 24.0059 17.308 24.0059ZM17.308 13.1282C14.8426 13.1282 12.8372 15.1341 12.8372 17.5991C12.8372 20.0641 14.843 22.07 17.308 22.07C19.773 22.07 21.7789 20.0641 21.7789 17.5991C21.7784 15.1341 19.773 13.1282 17.308 13.1282Z" fill="#4C2F1B"/>
<path d="M18.2399 8.6978L14.5105 6.23367C14.355 6.14459 14.3328 5.94515 14.4214 5.78959L14.8434 5.16824C14.932 5.01268 15.1319 4.99052 15.2874 5.07916L19.0168 7.54329C19.1724 7.63237 19.1945 7.83225 19.1054 7.98737L18.6835 8.60916C18.5953 8.76428 18.3955 8.78644 18.2399 8.6978Z" fill="#DB79AD"/>
<path d="M3.43315 12.6042L4.40993 10.4733C4.47641 10.3178 4.67628 10.2513 4.83184 10.3178L5.5201 10.6284C5.67566 10.6949 5.74214 10.8948 5.67566 11.0504L4.69888 13.1812C4.63196 13.3368 4.43253 13.4032 4.27697 13.3368L3.58871 13.0261C3.43315 12.937 3.34452 12.7597 3.43315 12.6042ZM27.6744 12.4265L25.8095 10.9834C25.6765 10.8726 25.6539 10.6728 25.743 10.5394L26.2092 9.94017C26.32 9.80721 26.5199 9.78461 26.6533 9.87369L28.5182 11.3167C28.6512 11.4279 28.6738 11.6274 28.5847 11.7608L28.1185 12.3604C28.0077 12.5155 27.8078 12.5373 27.6744 12.4265Z" fill="#F6B173"/>
<path d="M22.9902 9.40767L21.7027 6.49946C21.6363 6.3439 21.7027 6.14403 21.8583 6.07755L22.5461 5.76687C22.7017 5.70039 22.9015 5.76687 22.968 5.92243L24.2555 8.83064C24.322 8.9862 24.2555 9.18563 24.0999 9.25255L23.4117 9.56323C23.257 9.62971 23.0793 9.56279 22.9902 9.40767ZM8.69397 14.8243L7.40652 11.9161C7.34004 11.7606 7.40652 11.5611 7.56208 11.4942L8.25034 11.1835C8.4059 11.1171 8.60533 11.1835 8.67225 11.3391L9.9597 14.2473C10.0262 14.4029 9.9597 14.6027 9.80414 14.6692L9.11588 14.9799C8.93861 15.0685 8.76089 14.9799 8.69397 14.8243Z" fill="#F7E774"/>
<path d="M9.29422 8.80848L10.6264 5.92243C10.6929 5.76687 10.8928 5.70039 11.0483 5.76687L11.7366 6.07755C11.8922 6.14403 11.9586 6.3439 11.8922 6.49946L10.5599 9.38551C10.4935 9.54107 10.2936 9.60755 10.138 9.54107L9.44977 9.2304C9.29422 9.16392 9.22774 8.9862 9.29422 8.80848ZM29.3398 16.0458L29.7839 12.8934C29.8061 12.7156 29.9616 12.6048 30.1394 12.627L30.8941 12.7378C31.0718 12.76 31.1826 12.9155 31.1604 13.0928L30.7164 16.2452C30.6942 16.4225 30.5387 16.5337 30.3614 16.5115L29.6066 16.4008C29.4285 16.3786 29.3177 16.2235 29.3398 16.0458Z" fill="#EC6A69"/>
<path d="M7.642 26.9096C7.79712 26.9894 7.96952 27.0062 8.0945 26.9544C8.21903 26.9025 8.27709 26.7895 8.24651 26.6579C8.21593 26.5262 8.10114 26.3964 7.94603 26.3166C7.79091 26.2368 7.61852 26.22 7.49354 26.2719C7.369 26.3237 7.31095 26.4367 7.34153 26.5684C7.37211 26.6995 7.48645 26.8298 7.642 26.9096Z" fill="#E3A358"/>
<path d="M23.9659 27.689C24.0053 27.7927 24.1688 27.8401 24.3935 27.8131C24.6187 27.7865 24.8717 27.6894 25.057 27.5591C25.2422 27.4288 25.3322 27.2843 25.2928 27.1806C25.2529 27.0769 25.0898 27.0295 24.8646 27.0561C24.6395 27.0827 24.3864 27.1793 24.2012 27.31C24.0159 27.4408 23.926 27.5853 23.9659 27.689Z" fill="#E3A358"/>
<path d="M14.0005 26.5245C14.211 26.6801 14.461 26.7488 14.656 26.7049C14.851 26.661 14.9618 26.5113 14.9458 26.3118C14.9303 26.1128 14.7911 25.8939 14.5806 25.7383C14.3701 25.5828 14.1201 25.5141 13.9251 25.5579C13.7301 25.6018 13.6194 25.7516 13.6353 25.9511C13.6504 26.1509 13.79 26.3694 14.0005 26.5245Z" fill="#E3A358"/>
<path d="M20.2204 29.504C20.2456 29.6861 20.4925 29.8022 20.7717 29.7637C21.0513 29.7251 21.257 29.5461 21.2317 29.3639C21.2064 29.1818 20.9596 29.0652 20.6804 29.1042C20.4007 29.1428 20.1951 29.3218 20.2204 29.504Z" fill="#E3A358"/>
</g>
<defs>
<clipPath id="clip0_1_14605">
<rect width="34.5688" height="34.5688" fill="white" transform="translate(0.0234375 0.336914)"/>
</clipPath>
</defs>
</svg>
