<svg width="51" height="51" viewBox="0 0 51 51" fill="none" xmlns="http://www.w3.org/2000/svg">
<g clip-path="url(#clip0_1_14628)">
<path d="M26.8371 26.3561C20.6647 32.135 13.2721 33.3824 12.4508 33.5065C11.1862 33.694 9.92225 33.3853 8.89446 32.6241C7.86634 31.8626 7.19098 30.7484 7.0046 29.4841C6.76991 27.9271 7.31843 26.3494 8.46974 25.2715C9.17722 24.6091 10.0554 24.1846 11.0168 24.0338C11.219 24.0016 16.1928 23.1678 20.2182 19.399C22.5889 17.1795 24.1578 14.3763 24.8805 11.0691C25.0903 10.1155 25.5719 9.25964 26.2836 8.59333C27.4349 7.51541 29.0417 7.06802 30.5798 7.40462C31.8295 7.67344 32.8965 8.42095 33.5888 9.49694C34.281 10.5729 34.5095 11.8583 34.2353 13.1043C33.087 18.3763 30.5992 22.8338 26.8371 26.3561Z" fill="#F4A360"/>
<path d="M27.6028 27.175C21.4224 32.9614 14.0362 34.3942 12.6181 34.6229C11.0592 34.8558 9.49868 34.4679 8.22751 33.5297C6.95402 32.5897 6.1244 31.2131 5.89289 29.6525C5.60281 27.73 6.27934 25.7866 7.70306 24.4536C8.57391 23.6383 9.65365 23.1072 10.8256 22.9177C10.8641 22.9132 15.6321 22.1426 19.4443 18.5734C21.6425 16.5154 23.0996 13.9076 23.7748 10.8223C24.0318 9.64572 24.6318 8.58963 25.51 7.76741C26.9338 6.43445 28.9175 5.88723 30.816 6.30312C32.3612 6.64232 33.6813 7.5604 34.5316 8.88808C35.3842 10.2182 35.6686 11.8009 35.3325 13.3441C34.1335 18.8423 31.5329 23.4955 27.6028 27.175ZM9.23552 26.0904C8.35836 26.9117 7.93674 28.1169 8.10734 29.3145C8.40504 31.314 10.2748 32.6955 12.2757 32.3957C12.5873 32.3498 20.001 31.2134 26.0629 25.538C29.649 22.1805 32.0278 17.9177 33.1326 12.8685C33.3431 11.9135 33.1683 10.9328 32.6402 10.1087C32.1114 9.28392 31.2922 8.7146 30.3339 8.50619C29.1562 8.25024 27.9269 8.59001 27.0448 9.41585C26.499 9.92691 26.127 10.5815 25.9692 11.3089C25.1967 14.8454 23.5181 17.8441 20.9795 20.2208C16.8226 24.1127 11.7437 25.0515 11.1781 25.1459C10.4514 25.2557 9.77823 25.5823 9.23552 26.0904Z" fill="#4C2F1B"/>
<path d="M30.4921 29.6269C25.0591 34.7136 18.0443 37.1887 13.287 37.8126C12.019 37.9803 10.7639 37.6417 9.7479 36.8615C8.73231 36.0811 8.08447 34.9562 7.92143 33.6845C7.72438 32.16 8.27546 30.6174 9.39908 29.5654C10.1307 28.8803 11.0439 28.4454 12.0397 28.3151C12.1175 28.302 14.0978 28.0294 16.6707 27.0673C19.5493 25.9911 22.0037 24.5181 23.9624 22.6843C26.8008 20.0269 28.5088 16.6583 29.0329 12.6753C29.1778 11.58 29.7 10.5587 30.5074 9.8028C31.5588 8.81843 32.9838 8.36106 34.4105 8.54699C35.6752 8.71169 36.8077 9.36046 37.5871 10.3771C38.3666 11.3938 38.7004 12.6476 38.5378 13.9166C37.7153 20.1141 35.0094 25.3977 30.4921 29.6269Z" fill="#FF6C4A"/>
<path d="M31.2663 30.4545C25.6447 35.7177 18.3698 38.2839 13.4361 38.9309C11.8677 39.1347 10.3149 38.7172 9.06362 37.7544C7.81591 36.7949 7.01505 35.4013 6.80798 33.8309C6.56102 31.9496 7.24359 30.0491 8.6333 28.748C9.53816 27.9009 10.6635 27.3665 11.8876 27.2025C11.904 27.2003 13.8002 26.942 16.2795 26.0182C19.0215 24.993 21.3488 23.5963 23.1963 21.8666C25.8369 19.3943 27.4249 16.2538 27.9159 12.5319C28.0901 11.1791 28.7367 9.91835 29.7377 8.98125C31.0397 7.76219 32.7967 7.20115 34.5574 7.44241C36.1194 7.64428 37.5109 8.44682 38.4781 9.70189C39.4423 10.9531 39.8585 12.5058 39.651 14.0732C38.7986 20.5319 35.9778 26.0433 31.2663 30.4545ZM10.169 30.3883C9.30906 31.1935 8.8853 32.3711 9.03484 33.5385C9.29532 35.5439 11.138 36.9619 13.1421 36.7006C17.7257 36.1006 24.4893 33.7127 29.7263 28.8096C34.0497 24.7618 36.6374 19.702 37.4172 13.77C37.545 12.8005 37.288 11.8388 36.6927 11.0632C36.0968 10.2861 35.2338 9.78806 34.2616 9.66105C33.1652 9.52016 32.0762 9.87059 31.2734 10.6222C30.6546 11.2016 30.2539 11.9836 30.1453 12.8247C29.5882 17.0719 27.7667 20.6657 24.7317 23.5072C22.665 25.4421 20.0857 26.9947 17.0648 28.1219C14.3073 29.1497 12.2134 29.4267 12.1926 29.4291C11.4309 29.5304 10.731 29.8622 10.169 30.3883Z" fill="#4C2F1B"/>
<path d="M19.3595 31.6859C18.4883 32.5015 17.387 31.9584 16.6552 31.6018C15.8893 31.2244 15.4877 31.0758 15.2998 31.2518C14.8441 31.6785 14.1323 31.6553 13.706 31.2C13.2797 30.7446 13.3034 30.0329 13.7592 29.6062C15.0903 28.3599 16.6882 29.1053 17.5878 29.5448C17.4797 28.7245 17.3743 27.4658 18.3538 26.5487C19.3411 25.6244 20.6216 25.7822 21.4705 25.8794C21.6247 25.9 21.829 25.9256 21.9876 25.9349C22.0112 25.6881 22.0007 25.308 21.9937 25.0602C21.9689 24.1764 21.9443 23.1727 22.6241 22.5363C23.3316 21.8739 24.4284 21.971 25.3974 22.0609C25.5132 22.0721 25.6442 22.0842 25.7798 22.0926C25.7766 22.0654 25.7735 22.0459 25.7665 22.0222C25.6357 21.1778 25.4428 19.8973 26.3539 19.0442C27.0695 18.3743 28.104 18.4771 29.0146 18.577C29.1037 18.5836 29.2116 18.595 29.3196 18.6063C29.3121 18.5982 29.3127 18.5904 29.3087 18.5862C28.8711 17.6544 28.0573 15.9278 29.3765 14.6927C29.8323 14.266 30.544 14.2891 30.9704 14.7444C31.3967 15.1998 31.3729 15.9115 30.9172 16.3382C30.844 16.5566 31.1839 17.2802 31.3507 17.6262C31.7339 18.4361 32.2585 19.5494 31.3831 20.369C30.6834 21.0242 29.6723 20.9217 28.7805 20.8265C28.5298 20.799 28.1402 20.7595 27.9073 20.7673C27.8879 21.003 27.9546 21.4348 27.9926 21.6918C28.1103 22.4506 28.2405 23.3106 27.593 23.9169C26.9893 24.4821 26.1171 24.3994 25.1904 24.3153C24.9202 24.2909 24.5183 24.2544 24.2473 24.2616C24.232 24.4856 24.2448 24.7957 24.2492 25.0092C24.2761 25.943 24.2989 27.001 23.5711 27.6824C22.8755 28.3336 21.9456 28.2222 21.1936 28.1316C20.6612 28.0681 20.1098 27.9999 19.89 28.2057C19.714 28.3705 19.7577 28.8015 19.8347 29.3966C19.9363 30.0744 20.0632 31.0271 19.3595 31.6859Z" fill="#F9AF38"/>
<path d="M33.6449 33.8118C27.9002 39.1902 21.2466 41.1622 19.9077 41.3667C18.6425 41.5542 17.4904 41.3734 16.5789 40.8405C15.5382 40.2334 14.8566 39.1849 14.6634 37.8895C14.4287 36.3325 14.9772 34.7548 16.1285 33.6769C16.836 33.0145 17.7139 32.5896 18.6757 32.4385C18.8778 32.4063 23.8517 31.5725 27.8774 27.8034C30.2481 25.5838 31.817 22.7806 32.5397 19.4735C32.7498 18.5202 33.2314 17.6644 33.9431 16.998C35.0948 15.9198 36.7009 15.4724 38.239 15.809C39.5119 16.0864 40.5008 16.7498 41.0957 17.7218C41.6721 18.6663 41.8342 19.8331 41.5563 21.0983C40.2672 26.9668 36.9947 30.6755 33.6449 33.8118Z" fill="#F4A360"/>
<path d="M34.4107 34.6379C27.6304 40.9859 20.1345 42.4694 20.0597 42.4836C18.5486 42.7113 17.1427 42.4809 16.0048 41.8143C14.6611 41.0248 13.7869 39.6906 13.5439 38.0573C13.2538 36.1348 13.9303 34.1914 15.354 32.8584C16.2288 32.0395 17.3104 31.5112 18.4817 31.3308C18.524 31.3254 23.3177 30.5288 27.1022 26.9856C29.3004 24.9275 30.7571 22.32 31.4327 19.2345C31.69 18.0582 32.2894 17.0021 33.1676 16.1799C34.5913 14.8469 36.575 14.2997 38.4736 14.7156C40.0533 15.0586 41.2894 15.8969 42.0478 17.1398C42.7804 18.3403 42.9876 19.7935 42.6476 21.3423C41.3037 27.508 37.8945 31.3762 34.4107 34.6379ZM16.8905 34.4988C16.0123 35.321 15.5892 36.5275 15.7588 37.7261C16.0412 39.6137 17.5623 40.5835 19.7287 40.2595C19.7936 40.2494 26.658 38.8103 32.8668 32.9973C36.0831 29.9861 39.2268 26.4322 40.4458 20.8633C40.6656 19.8641 40.5448 18.965 40.0954 18.2643C39.6606 17.5862 38.9327 17.1201 37.9892 16.9149C36.8111 16.6593 35.5818 16.999 34.7001 17.8245C34.1546 18.3353 33.7826 18.9898 33.6245 19.7176C32.852 23.2541 31.173 26.2531 28.6348 28.6295C24.4747 32.5243 19.3986 33.4605 18.8334 33.5546C18.1064 33.6641 17.4328 33.991 16.8905 34.4988Z" fill="#4C2F1B"/>
<path d="M24.6385 37.3496C24.5225 37.4583 24.3615 37.5189 24.1921 37.4981C23.8838 37.4647 23.6601 37.1864 23.6977 36.8738C23.8792 35.2723 22.5779 34.4516 22.5247 34.4193C22.2588 34.2555 22.1775 33.9122 22.3376 33.6427C22.5014 33.377 22.8415 33.2912 23.1106 33.4507C23.1942 33.5 25.0878 34.6653 24.82 36.9996C24.7966 37.1418 24.7343 37.26 24.6385 37.3496ZM32.319 32.1078C32.2471 32.1751 32.1565 32.2224 32.0547 32.25C31.7502 32.3175 31.4509 32.1258 31.384 31.8217C31.0311 30.2031 29.6257 30.0722 29.6143 30.0678C29.3054 30.0421 29.0743 29.7714 29.1003 29.4625C29.1259 29.1533 29.3971 28.9223 29.706 28.948C30.4782 29.0118 32.0609 29.6439 32.484 31.5786C32.5273 31.7773 32.4588 31.9768 32.319 32.1078Z" fill="#4C2F1B"/>
<path d="M38.1496 24.5053C38.0854 24.5654 38.0065 24.609 37.9204 24.6371C37.6196 24.7241 37.3117 24.5477 37.2246 24.2467C36.816 22.8006 35.2537 22.831 35.1881 22.8326C34.8782 22.8381 34.6188 22.6012 34.6058 22.2907C34.5927 21.9808 34.8377 21.7212 35.1479 21.7082C36.0168 21.6742 37.7919 22.0959 38.3111 23.9406C38.3665 24.1517 38.2975 24.3668 38.1496 24.5053Z" fill="#4C2F1B"/>
<path d="M39.4681 9.2462C39.3643 9.34336 39.234 9.41282 39.0936 9.44698L37.7041 9.77373C37.2784 9.87198 36.8492 9.62234 36.7277 9.20372L36.3426 7.87043C36.2558 7.56976 36.3437 7.25474 36.5716 7.04139C36.8356 6.79423 37.2244 6.74505 37.536 6.92531L39.3113 7.93187C39.5395 8.06325 39.6906 8.28857 39.7243 8.54947C39.7538 8.8065 39.6599 9.06666 39.4681 9.2462Z" fill="#FF6C4A"/>
<path d="M36.9529 7.44895C37.029 7.37772 37.1457 7.3506 37.2561 7.41226L39.031 8.41847C39.1943 8.51276 39.2029 8.72224 39.083 8.8345C39.0511 8.86437 39.0117 8.88618 38.965 8.90029L37.5755 9.22704C37.439 9.25759 37.3061 9.17957 37.2676 9.05063L36.8824 7.70952C36.8545 7.60809 36.8849 7.51262 36.9529 7.44895ZM36.1826 6.62616C35.7987 6.98557 35.6532 7.51881 35.795 8.02299L36.1805 9.35595C36.3854 10.0632 37.1107 10.4859 37.8289 10.3156L39.2184 9.98885C39.4563 9.93103 39.6734 9.81785 39.8494 9.65308C40.1695 9.35341 40.3314 8.90935 40.2759 8.47419C40.2244 8.04256 39.9624 7.65096 39.5824 7.43688L37.8071 6.43032C37.2831 6.13481 36.6264 6.21062 36.1826 6.62616Z" fill="#4C2F1B"/>
<path d="M7.59219 36.9466C7.40043 37.1261 7.13466 37.2027 6.87653 37.1519C6.61877 37.1007 6.40748 36.939 6.28745 36.6991L5.39985 34.8614C5.24432 34.5351 5.31512 34.1539 5.58296 33.9032C5.81084 33.6898 6.13064 33.6224 6.42528 33.7291L7.73034 34.2012C8.13939 34.3499 8.36126 34.7949 8.23489 35.213L7.81744 36.5779C7.77386 36.7239 7.69632 36.8491 7.59219 36.9466Z" fill="#FF6C4A"/>
<path d="M5.96801 34.3225C6.03602 34.2588 6.12967 34.231 6.23301 34.269L7.53772 34.7413C7.66386 34.7882 7.73657 34.9298 7.6935 35.0602L7.27605 36.4251C7.25924 36.4711 7.23455 36.5087 7.20264 36.5386C7.08274 36.6508 6.87428 36.6284 6.79094 36.4593L5.90334 34.6217C5.85684 34.5088 5.89193 34.3937 5.96801 34.3225ZM5.19767 33.4997C4.75383 33.9153 4.62751 34.566 4.89545 35.1164L5.78305 36.954C5.97528 37.3511 6.34519 37.6345 6.77249 37.7143C7.2076 37.7946 7.65716 37.6656 7.97689 37.3662C8.15288 37.2015 8.28392 36.9894 8.35344 36.7587L8.77088 35.3937C8.98769 34.6879 8.61438 33.9364 7.91757 33.6889L6.61285 33.2166C6.12321 33.0302 5.58156 33.1403 5.19767 33.4997Z" fill="#4C2F1B"/>
</g>
<defs>
<clipPath id="clip0_1_14628">
<rect width="44.9726" height="25.6986" fill="white" transform="translate(0.390137 31.2861) rotate(-43.1142)"/>
</clipPath>
</defs>
</svg>
