<svg width="24" height="42" viewBox="0 0 24 42" fill="none" xmlns="http://www.w3.org/2000/svg">
<g clip-path="url(#clip0_1_14583)">
<path d="M5.67246 16.5163C5.67246 16.5163 2.99642 11.7037 9.08602 8.79233C15.1761 5.88099 13.9764 2.89934 13.9305 1.06836C13.9305 1.06836 19.0513 2.85263 19.0513 8.18185C19.0513 14.356 5.67246 16.5163 5.67246 16.5163Z" fill="white"/>
<path d="M15.2682 3.08785C15.2682 3.08785 16.606 7.97123 13.9995 9.77863C11.393 11.5865 7.63272 12.1262 6.24902 14.2629C6.24902 14.2629 8.20982 15.2725 11.3239 14.4742C14.438 13.676 19.0512 8.93366 19.0512 8.93366C19.0512 8.93366 21.0352 1.37388 15.2682 3.08785Z" fill="#5A85FF"/>
<path d="M15.3143 3.22793C15.3143 3.22793 17.7595 6.35063 17.1829 8.43968C16.6062 10.5292 13.9997 11.8908 13.6076 11.9846C13.2154 12.0785 7.58704 13.2995 6.27197 14.2619C6.27197 14.2619 12.4538 14.2147 14.1842 13.2523C15.9373 12.2899 19.6972 9.75407 18.8438 7.73532C17.9904 5.71656 17.2061 2.21833 15.3143 3.22793Z" fill="#507BE1"/>
<path d="M5.88808 17.5141C5.79672 17.4951 5.73611 17.4951 5.67239 17.4951C5.32613 17.4951 5.00795 17.3087 4.84217 17.0084C4.63985 16.6134 3.68352 14.5661 4.4001 12.2947C4.98121 10.4741 6.42952 8.99827 8.7036 7.90929C13.4202 5.67873 13.2295 3.68039 13.061 1.91744C13.0378 1.61265 13.0147 1.35322 12.9915 1.09379C12.9924 0.795806 13.1386 0.490566 13.3837 0.298714C13.5472 0.180337 13.7509 0.112305 13.9509 0.112305C14.0583 0.112305 14.1631 0.131354 14.262 0.168999C15.2495 0.551342 20.0356 2.6862 20.0356 8.22905C20.0356 15.0568 6.9166 17.3454 5.88808 17.5141ZM15.0303 3.1715C14.9518 5.02335 14.2549 7.43579 9.51643 9.67633C7.74236 10.5304 6.63719 11.6057 6.23032 12.8734C5.95537 13.7633 6.06321 14.6246 6.20225 15.191L6.25751 15.416L6.48077 15.3702C7.66928 15.1253 18.0904 12.8435 18.0904 8.18324C18.0904 5.53677 16.6323 3.89673 15.4091 2.98645L15.0494 2.71886L15.0303 3.1715Z" fill="#4C2F1B"/>
<path d="M3.29595 23.2306C3.29595 23.2306 0.274098 18.0184 6.73313 15.4364C12.8691 12.9713 14.2991 15.3892 18.7051 9.77832C19.3281 10.9285 21.5652 14.1215 18.4515 18.1359C17.0901 19.897 6.50229 23.3245 3.29595 23.2306Z" fill="white"/>
<path d="M18.4747 11.3281C18.4747 11.3281 19.4439 16.1176 10.955 16.7984C5.28031 17.2447 3.2041 21.7054 3.2041 21.7054L16.283 19.3809L20.066 15.601L18.4747 11.3281Z" fill="#FF5C68"/>
<path d="M9.13229 40.3221C8.55564 40.3221 8.04806 39.8994 7.95581 39.3125L6.66392 31.4947C6.59484 31.1427 6.71026 30.7672 6.9411 30.5086C7.1715 30.227 7.49458 30.0859 7.86357 30.0859H15.7758C16.1216 30.0859 16.4679 30.2501 16.6983 30.5086C16.9291 30.7908 17.0214 31.1427 16.9755 31.4947L15.6836 39.3125C15.5913 39.8994 15.0837 40.3221 14.5071 40.3221H9.13229Z" fill="#FFCD8A"/>
<path d="M9.13225 41.3001C8.07699 41.3001 7.15675 40.5095 6.99187 39.4618L5.69952 31.6417C5.59435 30.9777 5.76771 30.3223 6.17502 29.8456C6.60149 29.3467 7.20844 29.0605 7.84035 29.0605H15.7526C16.385 29.0605 16.9919 29.3467 17.4179 29.8456C17.8244 30.3423 17.999 30.9981 17.8934 31.6422L16.6015 39.4596C16.413 40.5245 15.5124 41.2996 14.4607 41.2996H9.13225V41.3001ZM8.93038 39.3199H14.6621L16.0342 31.0172H7.55827L8.93038 39.3199Z" fill="#4C2F1B"/>
<path d="M18.0853 33.4478L11.8803 33.793H11.735L5.52996 33.4474C4.9239 33.4229 4.39047 32.9539 4.29377 32.3371L3.25188 26.787C3.1066 25.9484 3.73673 25.1592 4.56071 25.1592H19.055C19.9035 25.1592 20.5336 25.9484 20.3638 26.787L19.3219 32.3375C19.2003 32.9544 18.6913 33.3984 18.0853 33.4478Z" fill="#FFCD8A"/>
<path d="M2.14307 28.4217L2.70412 27.6181L12.6133 34.7855L12.0522 35.5892L2.14307 28.4217ZM5.39575 27.7138L5.95681 26.9101L15.8655 34.0775L15.3044 34.8812L5.39575 27.7138ZM9.11458 27.1128L9.67608 26.3091L19.5848 33.4766L19.0237 34.2803L9.11458 27.1128ZM11.6961 25.5381L12.2572 24.7344L20.8499 30.9498L20.2884 31.7535L11.6961 25.5381Z" fill="#FFBB71"/>
<path d="M10.3914 34.7991L20.3015 27.633L20.8625 28.4372L10.9525 35.6033L10.3914 34.7991ZM7.15035 34.0675L19.4106 25.2015L19.9717 26.0057L7.7114 34.8712L7.15035 34.0675ZM3.39587 33.4825L13.3055 26.3164L13.8665 27.12L3.95693 34.2862L3.39587 33.4825ZM2.14453 30.9616L10.7382 24.7471L11.2992 25.5512L2.70559 31.7658L2.14453 30.9616Z" fill="#FFBB71"/>
<path d="M11.5781 35.76L5.68591 35.432C4.11104 35.3663 2.79909 34.2011 2.49294 32.5992L1.5014 27.3176C1.30889 26.317 1.57716 25.2684 2.2367 24.4407C2.91095 23.6216 3.85346 23.1689 4.88867 23.1689H18.7065C19.7314 23.1689 20.6953 23.642 21.284 24.4344C21.9547 25.2272 22.2207 26.274 22.0242 27.3176L21.0322 32.6001C20.7305 34.1793 19.4177 35.3441 17.8393 35.432L11.9404 35.76H11.5781ZM4.9114 25.1251C4.47379 25.1251 4.05845 25.3247 3.77102 25.6735C3.47556 26.0322 3.35168 26.5007 3.431 26.9593L4.42388 32.2445C4.53127 32.928 5.13422 33.47 5.82495 33.4981L11.7265 33.8265L11.878 33.8269L17.7965 33.4977C18.4877 33.4414 19.0599 32.9271 19.1935 32.2463L20.1855 26.9624C20.2764 26.5139 20.1641 26.049 19.8772 25.6907C19.5893 25.3315 19.1624 25.1251 18.706 25.1251H4.9114Z" fill="#4C2F1B"/>
<path d="M18.4979 11.9854C18.4979 11.9854 19.0287 15.4364 16.8143 17.0329C14.0924 19.4277 6.29553 19.146 4.35791 20.6718C4.35791 20.6718 16.5835 20.9303 18.0135 17.3613C19.4435 13.7928 19.9048 12.1495 18.4979 11.9854Z" fill="#F93D53"/>
<path d="M3.27321 24.2332C2.95057 24.2332 2.65422 24.0523 2.46037 23.7366C2.43765 23.7021 1.03612 21.2534 1.9069 18.6614C2.50405 16.8603 4.00182 15.4725 6.35834 14.5359C8.70951 13.6066 10.4448 13.3748 11.8388 13.1884C14.2225 12.8763 15.5335 12.7044 18.1066 9.43706C18.2853 9.20575 18.5473 9.07422 18.8268 9.07422C18.8615 9.07422 18.8963 9.07603 18.9306 9.08057C19.2626 9.10098 19.5487 9.29283 19.6913 9.5822C19.7256 9.63798 19.7457 9.67427 19.7657 9.7101C19.792 9.75681 19.8187 9.80307 19.8446 9.84344C20.5728 11.102 22.5255 14.4751 19.21 18.7621C17.5228 20.9368 6.7456 24.2337 3.38863 24.2337H3.27321V24.2332ZM18.4408 12.0296C16.0054 14.6239 14.1957 14.8565 12.1012 15.1259C10.6186 15.3051 9.11593 15.5346 7.06066 16.3619C5.25718 17.0717 4.1315 18.0613 3.71662 19.3031C3.43542 20.1041 3.46573 21.0421 3.80842 22.0875L3.86813 22.2703L4.05664 22.2526C7.76298 21.9034 16.6685 18.8342 17.6694 17.5611C19.5848 15.0656 19.2532 13.2569 18.837 12.113L18.7047 11.7493L18.4408 12.0296Z" fill="#4C2F1B"/>
<path d="M19.6508 16.3047C19.6508 16.3047 18.2667 19.4505 12.846 20.554C8.48634 21.4226 1.95823 20.8592 1.93506 25.1321C1.93506 29.1937 18.5434 28.4893 20.5965 24.8269C23.5724 19.4977 19.6508 16.3047 19.6508 16.3047Z" fill="white"/>
<path d="M3.06592 25.1559C5.67244 22.7145 12.5464 24.2171 14.9684 23.3245C18.2438 22.1035 19.6511 21.7044 19.9278 18.042C19.9278 18.042 24.1262 22.9957 18.7514 26.3293C15.6373 28.2079 4.93402 29.5459 3.06592 25.1559Z" fill="#FFF383"/>
<path d="M19.9738 18.0195C19.9738 18.0195 24.7029 27.9033 4.35742 26.0959C4.38059 26.0955 26.9404 30.2037 19.9738 18.0195Z" fill="#F6E259"/>
<path d="M9.17919 28.7635C6.84362 28.7635 4.90199 28.5004 3.5633 28.0033C1.86811 27.411 0.974609 26.4186 0.974609 25.1324C0.974609 20.9996 5.60698 20.464 9.32893 20.0331L9.43632 20.0204C10.7327 19.8889 11.7817 19.7419 12.6382 19.5714C17.2069 18.6461 19.0081 16.1371 19.1632 15.7371L19.1431 15.8146C19.2889 15.5556 19.5268 15.3806 19.8134 15.3221C19.8651 15.3112 19.9181 15.3066 19.9707 15.3066C20.1904 15.3066 20.4217 15.396 20.6057 15.5525C22.3361 17.0655 24.714 21.0799 21.3103 25.4272C19.661 27.5951 13.8298 28.7635 9.17919 28.7635ZM19.8735 18.0366C18.7198 19.2348 16.5968 20.8105 13.0322 21.5135C11.9551 21.7276 10.7242 21.8695 9.66226 21.9797C5.58871 22.4401 2.91981 22.9082 2.91981 25.1319C2.91981 25.595 3.742 25.9592 4.2322 26.1356C5.42249 26.561 7.09674 26.786 9.07447 26.786C13.2247 26.786 18.6752 25.7252 19.8611 24.2026C21.9511 21.4999 20.9956 19.1999 20.2403 18.0697L20.0767 17.8248L19.8735 18.0366Z" fill="#4C2F1B"/>
</g>
<defs>
<clipPath id="clip0_1_14583">
<rect width="22.0652" height="41.1883" fill="white" transform="translate(0.974609 0.112305)"/>
</clipPath>
</defs>
</svg>
