<svg width="35" height="36" viewBox="0 0 35 36" fill="none" xmlns="http://www.w3.org/2000/svg">
<g clip-path="url(#clip0_1_14645)">
<path d="M1.24023 20.9238V24.8014H31.9711C32.835 24.8014 33.4941 20.8555 33.4941 20.8555L1.24023 20.9238Z" fill="#F2C05A"/>
<path d="M1.23988 25.7501C0.707289 25.7501 0.289551 25.3334 0.289551 24.8016V20.9237C0.289551 20.4009 0.715854 19.9756 1.23988 19.9756L33.5167 19.9072C33.785 19.9072 34.0625 20.0342 34.2237 20.2308C34.409 20.4526 34.4803 20.7221 34.4262 20.9917C33.6386 25.7501 32.4437 25.7501 31.9941 25.7501H1.23988ZM31.7052 23.876L31.7691 23.7482C31.9131 23.4608 32.0793 22.9508 32.3083 22.0944L32.3861 21.8035L2.21317 21.8726V23.876H2.44443H31.7052Z" fill="#4C2F1B"/>
<path d="M25.2202 1.73895C24.5611 1.3987 23.7427 1.48959 23.1973 1.9887L1.2627 20.9242H5.35443V31.832C5.35443 33.1247 6.39975 34.1676 7.69541 34.1676C8.99106 34.1676 10.0364 33.1247 10.0364 31.832V20.9242H12.4684V26.0719C12.4684 27.387 13.5593 28.4757 14.8779 28.4757C16.1962 28.4757 17.2874 27.3874 17.2874 26.0719V20.9242H20.7652C21.1063 22.2169 22.2656 23.1693 23.652 23.1693C25.0388 23.1693 26.2203 22.2169 26.5388 20.9242L33.5395 20.9017C35.7439 8.36101 28.1977 3.2359 25.2202 1.73895Z" fill="#FFDE8A"/>
<path d="M17.992 9.99305C19.3328 9.99305 20.4015 8.92725 20.4015 7.58916C20.4015 6.6593 19.8786 5.8883 19.1284 5.48047L15.7417 8.40561C16.0827 9.33547 16.9463 9.99305 17.992 9.99305Z" fill="#FF5C5C"/>
<path d="M17.992 10.4691C16.7871 10.4691 15.6962 9.69813 15.2871 8.56436C15.2189 8.38297 15.2641 8.17905 15.4233 8.0431L18.81 5.11758C18.9463 4.98163 19.1736 4.95872 19.3325 5.04961C20.2871 5.54872 20.8555 6.52363 20.8555 7.56691C20.8788 9.17649 19.5832 10.4691 17.992 10.4691ZM16.3098 8.54183C16.6508 9.15435 17.2874 9.53966 17.992 9.53966C19.0603 9.53966 19.9242 8.67816 19.9242 7.61197C19.9242 6.99983 19.6287 6.43275 19.151 6.06997L16.3098 8.54183Z" fill="#4C2F1B"/>
<path d="M25.9702 12.0568C25.6973 13.2135 26.4475 14.3928 27.6065 14.6421C28.4249 14.8235 29.2202 14.5287 29.7205 13.9391L27.8113 10.3789C26.9248 10.4923 26.1746 11.127 25.9702 12.0568Z" fill="#FF5C5C"/>
<path d="M28.084 15.1644C27.9022 15.1644 27.6978 15.1418 27.516 15.0964C26.1066 14.7791 25.1976 13.373 25.5157 11.9444C25.7656 10.8786 26.6521 10.0622 27.7659 9.92624C27.9477 9.90371 28.1525 9.99421 28.2432 10.1756L30.1524 13.7133C30.2435 13.8947 30.2206 14.0986 30.0843 14.2349C29.5615 14.8241 28.8342 15.1644 28.084 15.1644ZM26.4247 12.1484C26.3336 12.602 26.4021 13.0553 26.6517 13.4181C26.902 13.8034 27.2656 14.0757 27.72 14.1665C28.2203 14.28 28.7427 14.144 29.1519 13.8263L27.5837 10.9012C26.9931 11.1051 26.561 11.5584 26.4247 12.1484Z" fill="#4C2F1B"/>
<path d="M7.67233 35.0933C5.85733 35.0933 4.38026 33.6201 4.38026 31.8089V21.8496H1.23962C0.834733 21.8496 0.492522 21.6092 0.36794 21.2367C0.218442 20.8619 0.328229 20.4486 0.63657 20.195L22.5754 1.25594C23.0839 0.823247 23.7286 0.583984 24.3901 0.583984C24.8257 0.583984 25.2458 0.683418 25.639 0.879955C28.3027 2.21959 36.8116 7.63018 34.4477 20.9974C34.3757 21.446 33.9755 21.7816 33.5161 21.7816L27.1694 21.8049L27.1052 21.9292C26.4281 23.237 25.0959 24.0496 23.6285 24.0496C22.1616 24.0496 20.8293 23.2374 20.1519 21.9292L20.0869 21.8041H18.2147V26.0037C18.2147 27.8397 16.7178 29.3331 14.8774 29.3331C13.0371 29.3331 11.5406 27.8397 11.5406 26.0041V21.8045H10.9866V31.7638C10.9656 33.5987 9.47877 35.0933 7.67233 35.0933ZM24.3667 2.48216C24.1526 2.48216 23.9544 2.55751 23.7932 2.70045L3.77798 19.9759H5.33097C5.59454 19.9759 5.82424 20.0695 5.97724 20.2396C6.1645 20.4268 6.25872 20.6607 6.25872 20.9244V31.8322C6.25872 32.6098 6.89292 33.2425 7.67194 33.2425C8.46459 33.2425 9.08517 32.623 9.08517 31.8322V20.924C9.08517 20.4012 9.51147 19.9759 10.0355 19.9759H12.4676C12.7307 19.9759 12.9604 20.0695 13.1138 20.2396C13.3011 20.4268 13.3953 20.6607 13.3953 20.9244V26.072C13.3953 26.8745 14.0498 27.5274 14.8541 27.5274C15.6584 27.5274 16.3129 26.8745 16.3129 26.072V20.9015C16.3129 20.3783 16.7392 19.953 17.2632 19.953H20.741C21.1755 19.953 21.5422 20.2392 21.6535 20.6649C21.886 21.5676 22.6981 22.1984 23.6278 22.1984C24.5575 22.1984 25.3696 21.5676 25.602 20.6645C25.7133 20.2396 26.0801 19.9534 26.5142 19.9534L32.7164 19.9301L32.744 19.732C34.2924 8.67385 27.6899 4.05096 24.7794 2.57654C24.6384 2.51245 24.5026 2.48216 24.3667 2.48216Z" fill="#4C2F1B"/>
<path d="M33.5164 20.8552C35.7896 8.08807 27.8795 3.03093 25.0382 1.64779C24.4698 1.37552 23.7877 1.4664 23.3104 1.87463L21.583 3.37157C25.3563 6.18329 31.6979 11.3768 29.7657 20.8785L33.5164 20.8552Z" fill="#FFB07B"/>
<path d="M29.7664 21.8044C29.4903 21.8044 29.2167 21.6743 29.0352 21.4564C28.8542 21.24 28.7791 20.9479 28.834 20.6741C30.4979 12.4669 25.8047 7.6984 20.9946 4.11646C20.7673 3.95915 20.6295 3.6927 20.6096 3.38003C20.5921 3.09804 20.7108 2.82887 20.9359 2.64204L22.6668 1.14199C23.1289 0.743867 23.7133 0.524414 24.312 0.524414C24.6928 0.524414 25.0724 0.615691 25.4107 0.788146C28.1312 2.11186 36.8076 7.47662 34.4028 21.0198C34.3307 21.4688 33.9305 21.8044 33.4715 21.8044H29.7664ZM24.3253 2.42259C24.1684 2.42259 24.0142 2.4793 23.89 2.58261L23.0639 3.31477L23.2819 3.48529C25.4621 5.19353 32.0968 10.392 30.9005 19.6472L30.867 19.9074H32.6956L32.7232 19.7085C34.3004 8.43949 27.5628 3.90866 24.5931 2.48357C24.5141 2.44434 24.4206 2.42259 24.3253 2.42259Z" fill="#4C2F1B"/>
<path d="M29.7662 20.8555C29.7662 20.8555 29.5614 23.3499 28.6523 24.8014H31.9935C31.9935 24.8014 33.1754 24.1663 33.5165 20.8555H29.7662Z" fill="#E2803D"/>
<path d="M28.6522 25.7497C28.3022 25.7497 27.9966 25.5667 27.8339 25.2603C27.6638 24.9577 27.6704 24.5961 27.8483 24.3114C28.5027 23.2479 28.7721 21.3598 28.815 20.7819C28.8504 20.3037 29.2584 19.9297 29.7435 19.9297H33.4938C33.7722 19.9297 34.0213 20.0392 34.1786 20.2307C34.3768 20.4486 34.4589 20.698 34.4235 20.9609C34.0381 24.605 32.677 25.4984 32.408 25.6405C32.299 25.7116 32.1444 25.7497 31.9934 25.7497H28.6522ZM30.5844 21.9894C30.4945 22.4384 30.3824 22.9974 30.2041 23.5769L30.1122 23.8756H31.6367L31.706 23.7769C31.8626 23.5536 32.1584 23.037 32.3784 22.0865L32.4438 21.8038H30.6218L30.5844 21.9894Z" fill="#4C2F1B"/>
<path d="M11.7183 16.1163C11.7183 16.9805 12.4202 17.6808 13.2864 17.6808C14.1527 17.6808 14.8546 16.9805 14.8546 16.1163C14.8546 15.2521 14.1527 14.5518 13.2864 14.5518C12.4202 14.5518 11.7183 15.2521 11.7183 16.1163Z" fill="#FF5C5C"/>
<path d="M13.2866 18.157C12.1728 18.157 11.2407 17.2501 11.2407 16.1163C11.2407 14.9825 12.1498 14.0752 13.2866 14.0752C14.423 14.0752 15.3321 14.9821 15.3321 16.1163C15.3321 17.2497 14.423 18.157 13.2866 18.157ZM13.2866 15.0276C12.673 15.0276 12.1957 15.5267 12.1957 16.1159C12.1957 16.7055 12.6956 17.2042 13.2866 17.2042C13.8776 17.2042 14.3775 16.7051 14.3775 16.1159C14.3775 15.5263 13.9002 15.0276 13.2866 15.0276Z" fill="#4C2F1B"/>
<path d="M21.0149 17.6809H17.719C17.5372 17.6809 17.3779 17.5221 17.3779 17.3407V16.5922C17.3779 16.4108 17.5372 16.252 17.719 16.252H21.0149C21.1968 16.252 21.356 16.4108 21.356 16.5922V17.3407C21.3786 17.5221 21.2193 17.6809 21.0149 17.6809Z" fill="#3DE25C"/>
<path d="M20.6516 18.1573H18.1058C17.4467 18.1573 16.9238 17.6356 16.9238 16.978C16.9238 16.3205 17.4467 15.7988 18.1058 15.7988H20.6516C21.3107 15.7988 21.8335 16.3205 21.8335 16.978C21.8335 17.6356 21.3107 18.1573 20.6516 18.1573ZM18.1058 16.7283C17.9695 16.7283 17.8559 16.8417 17.8559 16.9777C17.8559 17.114 17.9695 17.2274 18.1058 17.2274H20.6516C20.7878 17.2274 20.9015 17.114 20.9015 16.9777C20.9015 16.8417 20.7878 16.7283 20.6516 16.7283H18.1058Z" fill="#4C2F1B"/>
<path d="M23.2878 14.2568L21.5374 12.3521C21.4693 12.2841 21.4693 12.1707 21.5374 12.1027L22.3328 11.3772C22.4009 11.3092 22.5146 11.3092 22.5831 11.3772L24.3335 13.2819C24.4016 13.3499 24.4016 13.4633 24.3335 13.5313L23.5381 14.2568C23.4922 14.3252 23.3559 14.3252 23.2878 14.2568Z" fill="#3DE25C"/>
<path d="M23.4475 14.7098H23.4024C23.175 14.7098 22.9702 14.5964 22.8114 14.4375L21.3113 12.8276C21.1521 12.6687 21.084 12.4423 21.084 12.2154C21.084 11.989 21.1977 11.7847 21.3569 11.6258L21.8568 11.1721C22.016 11.0133 22.2434 10.9453 22.4707 10.9453C22.6981 10.9453 22.9025 11.0587 23.0617 11.2176L24.5618 12.8276C24.721 12.9864 24.7891 13.2133 24.7891 13.4401C24.7891 13.6669 24.6754 13.8708 24.5162 14.0297L24.0163 14.4834C23.8567 14.6189 23.6519 14.7098 23.4475 14.7098ZM22.0838 12.238L23.4475 13.712L23.8112 13.3717L22.4474 11.8977L22.0838 12.238Z" fill="#4C2F1B"/>
</g>
<defs>
<clipPath id="clip0_1_14645">
<rect width="34.5688" height="34.5688" fill="white" transform="translate(0.289551 0.524414)"/>
</clipPath>
</defs>
</svg>
