<svg width="1440" height="221" viewBox="0 0 1440 221" fill="none" xmlns="http://www.w3.org/2000/svg">
<rect width="1440" height="220.5" fill="#5C4EAE"/>
<mask id="mask0_1_16794" style="mask-type:alpha" maskUnits="userSpaceOnUse" x="0" y="0" width="1440" height="221">
<rect width="1440" height="220.5" fill="#201F1F"/>
</mask>
<g mask="url(#mask0_1_16794)">
<path opacity="0.2" d="M1562.55 -80.8447C1539.07 -78.6528 1513.57 -78.3091 1490.69 -73.183C1468.3 -68.1671 1444.73 -59.0673 1425.03 -49.4564C1388.74 -31.7454 1370.15 -6.95103 1353.28 22.6297C1325.45 71.4467 1315.37 122.078 1314.94 175.123C1314.65 210.239 1316 244.997 1319.67 279.998C1320.78 290.684 1320.23 302.9 1328.07 312.128" stroke="#A596FF" stroke-width="4.44874" stroke-linecap="round"/>
<path opacity="0.2" d="M1610 -55.6357C1585.82 -53.3776 1559.56 -53.0235 1535.99 -47.7427C1512.94 -42.5754 1488.66 -33.2008 1468.37 -23.2998C1430.99 -5.05417 1411.84 20.4887 1394.47 50.9625C1365.8 101.253 1355.43 153.413 1354.98 208.059C1354.68 244.235 1356.07 280.042 1359.85 316.1C1361 327.109 1360.42 339.694 1368.5 349.2" stroke="#A596FF" stroke-width="4.44874" stroke-linecap="round"/>
<path opacity="0.2" d="M369.68 577.878C375.051 546.413 382.885 516.817 380.878 482.89C379.444 458.658 373.443 434.809 361.905 412.054C340.393 369.626 312.272 329.18 278.84 296.952C244.679 264.021 211.142 228.189 172.566 202.9C136.7 179.387 98.446 159.962 63.4785 134.41C4.88972 91.5978 -36.5779 23.2802 -71.7742 -42.2882C-90.3944 -76.9764 -108.862 -111.901 -126.689 -147.001C-137.875 -169.027 -147.273 -192.647 -161.028 -213.115" stroke="#A596FF" stroke-width="4.01667" stroke-linecap="round"/>
<path opacity="0.2" d="M413.34 566.6C419.134 532.606 427.589 500.633 425.415 463.977C423.861 437.797 417.374 412.03 404.907 387.442C381.662 341.6 351.28 297.896 315.163 263.07C278.258 227.484 242.027 188.764 200.355 161.433C161.61 136.023 120.288 115.028 82.5135 87.4146C19.2219 41.1481 -25.5823 -32.6707 -63.6122 -103.518C-83.7315 -140.999 -103.686 -178.735 -122.948 -216.66C-135.036 -240.46 -145.191 -265.98 -160.052 -288.097" stroke="#A596FF" stroke-width="4.01667" stroke-linecap="round"/>
</g>
</svg>
