<svg width="374" height="748" viewBox="0 0 374 748" fill="none" xmlns="http://www.w3.org/2000/svg">
<rect width="375" height="748" fill="#5C4EAE"/>
<mask id="mask0_1_5467" style="mask-type:alpha" maskUnits="userSpaceOnUse" x="0" y="0" width="375" height="748">
<rect width="375" height="748" fill="#201F1F"/>
</mask>
<g mask="url(#mask0_1_5467)">
<path opacity="0.2" d="M402.751 516.999C388.319 526.057 371.982 534.58 358.893 545.335C346.085 555.859 333.839 569.404 324.263 582.016C306.615 605.258 302.695 627.304 301.446 651.876C299.385 692.428 309.368 728.37 326.357 762.729C337.603 785.475 349.79 807.457 363.549 828.842C367.75 835.371 371.366 843.434 379.431 846.832" stroke="#A596FF" stroke-width="3.21454" stroke-linecap="round"/>
<path opacity="0.2" d="M441.57 517.814C426.706 527.143 409.88 535.922 396.399 546.999C383.208 557.839 370.597 571.791 360.734 584.782C342.56 608.723 338.525 631.433 337.241 656.746C335.121 698.519 345.408 735.546 362.909 770.942C374.495 794.375 387.05 817.021 401.224 839.051C405.551 845.778 409.277 854.083 417.583 857.585" stroke="#A596FF" stroke-width="3.21454" stroke-linecap="round"/>
<path opacity="0.2" d="M733.883 -169.034C704.525 -181.563 677.557 -196.055 644.09 -201.98C620.188 -206.212 595.598 -205.911 570.785 -199.972C524.522 -188.898 478.652 -170.936 439.543 -145.9C399.58 -120.318 356.941 -96.0168 323.387 -64.3662C292.19 -34.939 264.414 -2.24062 231.442 25.839C176.197 72.887 100.118 97.36 28.1698 116.371C-9.89362 126.429 -48.1515 136.284 -86.431 145.474C-110.453 151.241 -135.609 154.898 -158.711 163.525" stroke="#A596FF" stroke-width="4.01667" stroke-linecap="round"/>
<path opacity="0.2" d="M733.05 -214.12C701.33 -227.648 672.193 -243.296 636.035 -249.691C610.209 -254.258 583.64 -253.931 556.83 -247.513C506.843 -235.547 457.279 -216.141 415.02 -189.097C371.837 -161.462 325.764 -135.211 289.505 -101.023C255.794 -69.2369 225.778 -33.918 190.149 -3.58695C130.453 47.2333 48.2487 73.6745 -29.4921 94.2165C-70.62 105.084 -111.958 115.732 -153.319 125.662C-179.274 131.894 -206.456 135.847 -231.418 145.167" stroke="#A596FF" stroke-width="4.01667" stroke-linecap="round"/>
</g>
</svg>
