<svg width="316" height="150" viewBox="0 0 316 150" fill="none" xmlns="http://www.w3.org/2000/svg">
<rect x="0.229004" width="315" height="150" fill="#6C5FBC"/>
<path d="M93.2448 38.3734C93.2448 36.7254 93.6128 35.2534 94.3488 33.9574C95.1008 32.6454 96.1168 31.6294 97.3968 30.9094C98.6928 30.1734 100.141 29.8054 101.741 29.8054C103.613 29.8054 105.253 30.2854 106.661 31.2454C108.069 32.2054 109.053 33.5334 109.613 35.2294H105.749C105.365 34.4294 104.821 33.8294 104.117 33.4294C103.429 33.0294 102.629 32.8294 101.717 32.8294C100.741 32.8294 99.8688 33.0614 99.1008 33.5254C98.3488 33.9734 97.7568 34.6134 97.3248 35.4454C96.9088 36.2774 96.7008 37.2534 96.7008 38.3734C96.7008 39.4774 96.9088 40.4534 97.3248 41.3014C97.7568 42.1334 98.3488 42.7814 99.1008 43.2454C99.8688 43.6934 100.741 43.9174 101.717 43.9174C102.629 43.9174 103.429 43.7174 104.117 43.3174C104.821 42.9014 105.365 42.2934 105.749 41.4934H109.613C109.053 43.2054 108.069 44.5414 106.661 45.5014C105.269 46.4454 103.629 46.9174 101.741 46.9174C100.141 46.9174 98.6928 46.5574 97.3968 45.8374C96.1168 45.1014 95.1008 44.0854 94.3488 42.7894C93.6128 41.4934 93.2448 40.0214 93.2448 38.3734ZM117.855 46.9894C116.575 46.9894 115.423 46.7094 114.399 46.1494C113.375 45.5734 112.567 44.7654 111.975 43.7254C111.399 42.6854 111.111 41.4854 111.111 40.1254C111.111 38.7654 111.407 37.5654 111.999 36.5254C112.607 35.4854 113.431 34.6854 114.471 34.1254C115.511 33.5494 116.671 33.2614 117.951 33.2614C119.231 33.2614 120.391 33.5494 121.431 34.1254C122.471 34.6854 123.287 35.4854 123.879 36.5254C124.487 37.5654 124.791 38.7654 124.791 40.1254C124.791 41.4854 124.479 42.6854 123.855 43.7254C123.247 44.7654 122.415 45.5734 121.359 46.1494C120.319 46.7094 119.151 46.9894 117.855 46.9894ZM117.855 44.0614C118.463 44.0614 119.031 43.9174 119.559 43.6294C120.103 43.3254 120.535 42.8774 120.855 42.2854C121.175 41.6934 121.335 40.9734 121.335 40.1254C121.335 38.8614 120.999 37.8934 120.327 37.2214C119.671 36.5334 118.863 36.1894 117.903 36.1894C116.943 36.1894 116.135 36.5334 115.479 37.2214C114.839 37.8934 114.519 38.8614 114.519 40.1254C114.519 41.3894 114.831 42.3654 115.455 43.0534C116.095 43.7254 116.895 44.0614 117.855 44.0614ZM134.091 33.2854C135.675 33.2854 136.955 33.7894 137.931 34.7974C138.907 35.7894 139.395 37.1814 139.395 38.9734V46.7734H136.035V39.4294C136.035 38.3734 135.771 37.5654 135.243 37.0054C134.715 36.4294 133.995 36.1414 133.083 36.1414C132.155 36.1414 131.419 36.4294 130.875 37.0054C130.347 37.5654 130.083 38.3734 130.083 39.4294V46.7734H126.723V33.4774H130.083V35.1334C130.531 34.5574 131.099 34.1094 131.787 33.7894C132.491 33.4534 133.259 33.2854 134.091 33.2854ZM145.97 36.2374V42.6694C145.97 43.1174 146.074 43.4454 146.282 43.6534C146.506 43.8454 146.874 43.9414 147.386 43.9414H148.946V46.7734H146.834C144.002 46.7734 142.586 45.3974 142.586 42.6454V36.2374H141.002V33.4774H142.586V30.1894H145.97V33.4774H148.946V36.2374H145.97ZM149.967 40.0774C149.967 38.7334 150.231 37.5414 150.759 36.5014C151.303 35.4614 152.031 34.6614 152.943 34.1014C153.871 33.5414 154.903 33.2614 156.039 33.2614C157.031 33.2614 157.895 33.4614 158.631 33.8614C159.383 34.2614 159.983 34.7654 160.431 35.3734V33.4774H163.815V46.7734H160.431V44.8294C159.999 45.4534 159.399 45.9734 158.631 46.3894C157.879 46.7894 157.007 46.9894 156.015 46.9894C154.895 46.9894 153.871 46.7014 152.943 46.1254C152.031 45.5494 151.303 44.7414 150.759 43.7014C150.231 42.6454 149.967 41.4374 149.967 40.0774ZM160.431 40.1254C160.431 39.3094 160.271 38.6134 159.951 38.0374C159.631 37.4454 159.199 36.9974 158.655 36.6934C158.111 36.3734 157.527 36.2134 156.903 36.2134C156.279 36.2134 155.703 36.3654 155.175 36.6694C154.647 36.9734 154.215 37.4214 153.879 38.0134C153.559 38.5894 153.399 39.2774 153.399 40.0774C153.399 40.8774 153.559 41.5814 153.879 42.1894C154.215 42.7814 154.647 43.2374 155.175 43.5574C155.719 43.8774 156.295 44.0374 156.903 44.0374C157.527 44.0374 158.111 43.8854 158.655 43.5814C159.199 43.2614 159.631 42.8134 159.951 42.2374C160.271 41.6454 160.431 40.9414 160.431 40.1254ZM165.7 40.1254C165.7 38.7494 165.98 37.5494 166.54 36.5254C167.1 35.4854 167.876 34.6854 168.868 34.1254C169.86 33.5494 170.996 33.2614 172.276 33.2614C173.924 33.2614 175.284 33.6774 176.356 34.5094C177.444 35.3254 178.172 36.4774 178.54 37.9654H174.916C174.724 37.3894 174.396 36.9414 173.932 36.6214C173.484 36.2854 172.924 36.1174 172.252 36.1174C171.292 36.1174 170.532 36.4694 169.972 37.1734C169.412 37.8614 169.132 38.8454 169.132 40.1254C169.132 41.3894 169.412 42.3734 169.972 43.0774C170.532 43.7654 171.292 44.1094 172.252 44.1094C173.612 44.1094 174.5 43.5014 174.916 42.2854H178.54C178.172 43.7254 177.444 44.8694 176.356 45.7174C175.268 46.5654 173.908 46.9894 172.276 46.9894C170.996 46.9894 169.86 46.7094 168.868 46.1494C167.876 45.5734 167.1 44.7734 166.54 43.7494C165.98 42.7094 165.7 41.5014 165.7 40.1254ZM184.382 36.2374V42.6694C184.382 43.1174 184.486 43.4454 184.694 43.6534C184.918 43.8454 185.286 43.9414 185.798 43.9414H187.358V46.7734H185.246C182.414 46.7734 180.998 45.3974 180.998 42.6454V36.2374H179.414V33.4774H180.998V30.1894H184.382V33.4774H187.358V36.2374H184.382ZM197.741 30.0214V40.3894C197.741 41.5254 198.037 42.3974 198.629 43.0054C199.221 43.5974 200.053 43.8934 201.125 43.8934C202.213 43.8934 203.053 43.5974 203.645 43.0054C204.237 42.3974 204.533 41.5254 204.533 40.3894V30.0214H207.917V40.3654C207.917 41.7894 207.605 42.9974 206.981 43.9894C206.373 44.9654 205.549 45.7014 204.509 46.1974C203.485 46.6934 202.341 46.9414 201.077 46.9414C199.829 46.9414 198.693 46.6934 197.669 46.1974C196.661 45.7014 195.861 44.9654 195.269 43.9894C194.677 42.9974 194.381 41.7894 194.381 40.3654V30.0214H197.741ZM215.719 46.9894C214.631 46.9894 213.655 46.7974 212.791 46.4134C211.927 46.0134 211.239 45.4774 210.727 44.8054C210.231 44.1334 209.959 43.3894 209.911 42.5734H213.295C213.359 43.0854 213.607 43.5094 214.039 43.8454C214.487 44.1814 215.039 44.3494 215.695 44.3494C216.335 44.3494 216.831 44.2214 217.183 43.9654C217.551 43.7094 217.735 43.3814 217.735 42.9814C217.735 42.5494 217.511 42.2294 217.063 42.0214C216.631 41.7974 215.935 41.5574 214.975 41.3014C213.983 41.0614 213.167 40.8134 212.527 40.5574C211.903 40.3014 211.359 39.9094 210.895 39.3814C210.447 38.8534 210.223 38.1414 210.223 37.2454C210.223 36.5094 210.431 35.8374 210.847 35.2294C211.279 34.6214 211.887 34.1414 212.671 33.7894C213.471 33.4374 214.407 33.2614 215.479 33.2614C217.063 33.2614 218.327 33.6614 219.271 34.4614C220.215 35.2454 220.735 36.3094 220.831 37.6534H217.615C217.567 37.1254 217.343 36.7094 216.943 36.4054C216.559 36.0854 216.039 35.9254 215.383 35.9254C214.775 35.9254 214.303 36.0374 213.967 36.2614C213.647 36.4854 213.487 36.7974 213.487 37.1974C213.487 37.6454 213.711 37.9894 214.159 38.2294C214.607 38.4534 215.303 38.6854 216.247 38.9254C217.207 39.1654 217.999 39.4134 218.623 39.6694C219.247 39.9254 219.783 40.3254 220.231 40.8694C220.695 41.3974 220.935 42.1014 220.951 42.9814C220.951 43.7494 220.735 44.4374 220.303 45.0454C219.887 45.6534 219.279 46.1334 218.479 46.4854C217.695 46.8214 216.775 46.9894 215.719 46.9894Z" fill="#F9F9F9"/>
<path d="M65.1835 110.995C54.4542 101.339 46.0359 89.1896 45.2336 74.5059C44.5096 61.2521 51.5521 51.2379 65.6504 57.1439C72.3243 59.9396 78.6877 67.6393 77.5418 75.0609C76.2652 83.3292 65.7317 79.3819 61.7826 75.1501C52.5589 65.2665 50.6663 48.8851 59.8859 38.5675C70.8041 26.3491 82.1619 40.3724 82.0545 40.4077" stroke="white" stroke-width="2.09329" stroke-miterlimit="1.5" stroke-linecap="round" stroke-linejoin="round"/>
<path d="M49.8009 111.824C51.1072 111.096 52.6057 111.015 54.0916 110.856C58.9706 110.333 64.4983 111.36 68.7159 114.471C65.3256 109.896 62.3766 102.906 64.4028 97.6141" stroke="white" stroke-width="2.09329" stroke-miterlimit="1.5" stroke-linecap="round" stroke-linejoin="round"/>
</svg>
