<svg width="532" height="818" viewBox="0 0 532 818" fill="none" xmlns="http://www.w3.org/2000/svg">
<rect width="531" height="818" transform="translate(0.368164)" fill="#6C5FBC"/>
<path d="M135.216 92.8798V116.4C135.216 119.664 134.272 122.208 132.384 124.032C130.496 125.824 127.968 126.72 124.8 126.72C121.6 126.72 119.008 125.792 117.024 123.936C115.072 122.08 114.096 119.488 114.096 116.16H120.816C120.848 117.6 121.184 118.72 121.824 119.52C122.496 120.32 123.456 120.72 124.704 120.72C125.92 120.72 126.848 120.336 127.488 119.568C128.128 118.8 128.448 117.744 128.448 116.4V92.8798H135.216ZM168.159 99.7918V126.384H161.391V123.024C160.527 124.176 159.391 125.088 157.983 125.76C156.607 126.4 155.103 126.72 153.471 126.72C151.391 126.72 149.551 126.288 147.951 125.424C146.351 124.528 145.087 123.232 144.159 121.536C143.263 119.808 142.815 117.76 142.815 115.392V99.7918H149.535V114.432C149.535 116.544 150.063 118.176 151.119 119.328C152.175 120.448 153.615 121.008 155.439 121.008C157.295 121.008 158.751 120.448 159.807 119.328C160.863 118.176 161.391 116.544 161.391 114.432V99.7918H168.159ZM184.966 126.816C182.79 126.816 180.838 126.432 179.11 125.664C177.382 124.864 176.006 123.792 174.982 122.448C173.99 121.104 173.446 119.616 173.35 117.984H180.118C180.246 119.008 180.742 119.856 181.606 120.528C182.502 121.2 183.606 121.536 184.918 121.536C186.198 121.536 187.19 121.28 187.894 120.768C188.63 120.256 188.998 119.6 188.998 118.8C188.998 117.936 188.55 117.296 187.654 116.88C186.79 116.432 185.398 115.952 183.478 115.44C181.494 114.96 179.862 114.464 178.582 113.952C177.334 113.44 176.246 112.656 175.318 111.6C174.422 110.544 173.974 109.12 173.974 107.328C173.974 105.856 174.39 104.512 175.222 103.296C176.086 102.08 177.302 101.12 178.87 100.416C180.47 99.7118 182.342 99.3598 184.486 99.3598C187.654 99.3598 190.182 100.16 192.07 101.76C193.958 103.328 194.998 105.456 195.19 108.144H188.758C188.662 107.088 188.214 106.256 187.414 105.648C186.646 105.008 185.606 104.688 184.294 104.688C183.078 104.688 182.134 104.912 181.462 105.36C180.822 105.808 180.502 106.432 180.502 107.232C180.502 108.128 180.95 108.816 181.846 109.296C182.742 109.744 184.134 110.208 186.022 110.688C187.942 111.168 189.526 111.664 190.774 112.176C192.022 112.688 193.094 113.488 193.99 114.576C194.918 115.632 195.398 117.04 195.43 118.8C195.43 120.336 194.998 121.712 194.134 122.928C193.302 124.144 192.086 125.104 190.486 125.808C188.918 126.48 187.078 126.816 184.966 126.816ZM208.77 105.312V118.176C208.77 119.072 208.978 119.728 209.394 120.144C209.842 120.528 210.578 120.72 211.602 120.72H214.722V126.384H210.498C204.834 126.384 202.002 123.632 202.002 118.128V105.312H198.834V99.7918H202.002V93.2158H208.77V99.7918H214.722V105.312H208.77ZM229.361 109.584C229.361 106.288 230.097 103.344 231.569 100.752C233.073 98.1278 235.105 96.0958 237.665 94.6558C240.257 93.1838 243.153 92.4478 246.353 92.4478C250.097 92.4478 253.377 93.4078 256.193 95.3278C259.009 97.2478 260.977 99.9038 262.097 103.296H254.369C253.601 101.696 252.513 100.496 251.105 99.6958C249.729 98.8958 248.129 98.4958 246.305 98.4958C244.353 98.4958 242.609 98.9598 241.073 99.8878C239.569 100.784 238.385 102.064 237.521 103.728C236.689 105.392 236.273 107.344 236.273 109.584C236.273 111.792 236.689 113.744 237.521 115.44C238.385 117.104 239.569 118.4 241.073 119.328C242.609 120.224 244.353 120.672 246.305 120.672C248.129 120.672 249.729 120.272 251.105 119.472C252.513 118.64 253.601 117.424 254.369 115.824H262.097C260.977 119.248 259.009 121.92 256.193 123.84C253.409 125.728 250.129 126.672 246.353 126.672C243.153 126.672 240.257 125.952 237.665 124.512C235.105 123.04 233.073 121.008 231.569 118.416C230.097 115.824 229.361 112.88 229.361 109.584ZM279.644 126.816C277.084 126.816 274.78 126.256 272.732 125.136C270.684 123.984 269.068 122.368 267.884 120.288C266.732 118.208 266.156 115.808 266.156 113.088C266.156 110.368 266.748 107.968 267.932 105.888C269.148 103.808 270.796 102.208 272.876 101.088C274.956 99.9358 277.276 99.3598 279.836 99.3598C282.396 99.3598 284.716 99.9358 286.796 101.088C288.876 102.208 290.508 103.808 291.692 105.888C292.908 107.968 293.516 110.368 293.516 113.088C293.516 115.808 292.892 118.208 291.644 120.288C290.428 122.368 288.764 123.984 286.652 125.136C284.572 126.256 282.236 126.816 279.644 126.816ZM279.644 120.96C280.86 120.96 281.996 120.672 283.052 120.096C284.14 119.488 285.004 118.592 285.644 117.408C286.284 116.224 286.604 114.784 286.604 113.088C286.604 110.56 285.932 108.624 284.588 107.28C283.276 105.904 281.66 105.216 279.74 105.216C277.82 105.216 276.204 105.904 274.892 107.28C273.612 108.624 272.972 110.56 272.972 113.088C272.972 115.616 273.596 117.568 274.844 118.944C276.124 120.288 277.724 120.96 279.644 120.96ZM313.182 99.4078C316.35 99.4078 318.91 100.416 320.862 102.432C322.814 104.416 323.79 107.2 323.79 110.784V126.384H317.07V111.696C317.07 109.584 316.542 107.968 315.486 106.848C314.43 105.696 312.99 105.12 311.166 105.12C309.31 105.12 307.838 105.696 306.75 106.848C305.694 107.968 305.166 109.584 305.166 111.696V126.384H298.446V99.7918H305.166V103.104C306.062 101.952 307.198 101.056 308.574 100.416C309.982 99.7438 311.518 99.4078 313.182 99.4078ZM338.004 105.312V118.176C338.004 119.072 338.212 119.728 338.628 120.144C339.076 120.528 339.812 120.72 340.836 120.72H343.956V126.384H339.732C334.068 126.384 331.236 123.632 331.236 118.128V105.312H328.068V99.7918H331.236V93.2158H338.004V99.7918H343.956V105.312H338.004ZM347.062 112.992C347.062 110.304 347.59 107.92 348.646 105.84C349.734 103.76 351.19 102.16 353.014 101.04C354.87 99.9198 356.934 99.3598 359.206 99.3598C361.19 99.3598 362.918 99.7598 364.39 100.56C365.894 101.36 367.094 102.368 367.99 103.584V99.7918H374.758V126.384H367.99V122.496C367.126 123.744 365.926 124.784 364.39 125.616C362.886 126.416 361.142 126.816 359.158 126.816C356.918 126.816 354.87 126.24 353.014 125.088C351.19 123.936 349.734 122.32 348.646 120.24C347.59 118.128 347.062 115.712 347.062 112.992ZM367.99 113.088C367.99 111.456 367.67 110.064 367.03 108.912C366.39 107.728 365.526 106.832 364.438 106.224C363.35 105.584 362.182 105.264 360.934 105.264C359.686 105.264 358.534 105.568 357.478 106.176C356.422 106.784 355.558 107.68 354.886 108.864C354.246 110.016 353.926 111.392 353.926 112.992C353.926 114.592 354.246 116 354.886 117.216C355.558 118.4 356.422 119.312 357.478 119.952C358.566 120.592 359.718 120.912 360.934 120.912C362.182 120.912 363.35 120.608 364.438 120C365.526 119.36 366.39 118.464 367.03 117.312C367.67 116.128 367.99 114.72 367.99 113.088ZM379.593 113.088C379.593 110.336 380.153 107.936 381.273 105.888C382.393 103.808 383.945 102.208 385.929 101.088C387.913 99.9358 390.185 99.3598 392.745 99.3598C396.041 99.3598 398.761 100.192 400.905 101.856C403.081 103.488 404.537 105.792 405.273 108.768H398.025C397.641 107.616 396.985 106.72 396.057 106.08C395.161 105.408 394.041 105.072 392.697 105.072C390.777 105.072 389.257 105.776 388.137 107.184C387.017 108.56 386.457 110.528 386.457 113.088C386.457 115.616 387.017 117.584 388.137 118.992C389.257 120.368 390.777 121.056 392.697 121.056C395.417 121.056 397.193 119.84 398.025 117.408H405.273C404.537 120.288 403.081 122.576 400.905 124.272C398.729 125.968 396.009 126.816 392.745 126.816C390.185 126.816 387.913 126.256 385.929 125.136C383.945 123.984 382.393 122.384 381.273 120.336C380.153 118.256 379.593 115.84 379.593 113.088ZM418.02 105.312V118.176C418.02 119.072 418.228 119.728 418.644 120.144C419.092 120.528 419.828 120.72 420.852 120.72H423.972V126.384H419.748C414.084 126.384 411.252 123.632 411.252 118.128V105.312H408.084V99.7918H411.252V93.2158H418.02V99.7918H423.972V105.312H418.02Z" fill="#F9F9F9"/>
<path d="M109.181 154.712C135.833 149.027 168.448 146.144 194.552 154.386C201.164 156.474 206.844 159.644 211.064 163.375M211.064 163.375C217.492 169.057 220.532 176.041 218.315 182.487C214.846 192.572 203.875 201.951 184.788 202.936C174.839 203.45 165.759 201.415 162.75 195.594C158.153 186.7 172.175 176.268 184.036 171.492C192.237 168.191 201.372 165.474 211.064 163.375ZM416.212 158.757C390.013 152.427 357.647 148.75 330.944 156.347C324.18 158.271 318.265 161.299 313.767 164.924M313.767 164.924C306.916 170.444 303.351 177.347 305.079 183.841C307.782 194.001 318.034 203.64 337.029 205.09C346.929 205.846 356.155 204.035 359.601 198.293C364.866 189.52 351.646 178.755 340.156 173.694C332.213 170.195 323.292 167.258 313.767 164.924ZM313.767 164.924C280.299 156.721 242.948 154.874 210.725 163.307" stroke="#F9F9F9" stroke-width="4" stroke-linecap="round"/>
<path d="M400.886 142.636C406.063 146.152 417.48 154.453 421.729 159.524" stroke="#F9F9F9" stroke-width="4" stroke-linecap="round"/>
<path d="M421.735 159.524C414.303 161.307 397.474 165.723 389.617 169.129" stroke="#F9F9F9" stroke-width="4" stroke-linecap="round"/>
<path fill-rule="evenodd" clip-rule="evenodd" d="M93.4267 94.9929C91.7084 97.9818 89.5814 100.803 87.5513 103.581C85.7754 100.669 84.1041 97.6848 82.3682 94.7498C84.5057 91.7477 86.082 88.2725 87.6232 84.9355C90.0002 88.4756 91.934 91.8876 93.4267 94.9929Z" stroke="#AA9CFF" stroke-width="3.5008" stroke-miterlimit="1.5" stroke-linecap="round" stroke-linejoin="round"/>
<path fill-rule="evenodd" clip-rule="evenodd" d="M106.522 64.2559C106.607 61.4203 105.299 58.5925 102.429 56.8859C101.318 56.225 100.002 55.9844 98.7053 55.7844C103.972 55.6251 105.8 50.7635 106.533 47C106.278 50.3754 108.279 54.0213 112.368 54.3577C108.298 56.4698 106.901 60.3454 106.522 64.2559Z" stroke="#A597FF" stroke-width="3.02784" stroke-miterlimit="1.5" stroke-linecap="round" stroke-linejoin="round"/>
</svg>
