<svg width="38" height="36" viewBox="0 0 38 36" fill="none" xmlns="http://www.w3.org/2000/svg">
<rect x="3.03564" y="4.83887" width="34.6745" height="30.6295" rx="5.71751" fill="#6C5FBC"/>
<rect x="0.847995" y="1.57993" width="33.0215" height="28.9765" rx="4.891" fill="#DBD9EE" stroke="#6C5FBC" stroke-width="1.65302"/>
<path d="M26.7747 10.6382L7.99043 10.5551" stroke="#6C5FBC" stroke-width="1.70989" stroke-linecap="round" stroke-linejoin="round"/>
<path d="M26.7617 14.4009L22.5828 14.3824C20.8543 14.3748 19.4563 12.6829 19.4627 10.6064C19.469 8.52981 20.8773 6.85034 22.6058 6.85798L26.7848 6.87646" stroke="#6C5FBC" stroke-width="1.70989" stroke-linecap="round" stroke-linejoin="round"/>
<path d="M14.2554 22.674L8.79568 22.6132C8.34832 22.6112 7.97348 22.1698 7.96496 21.6323L7.92863 20.2153C7.92018 19.6534 8.29782 19.1787 8.76552 19.1807L14.1642 19.2413L14.2554 22.674Z" stroke="#6C5FBC" stroke-width="1.70989" stroke-linecap="round" stroke-linejoin="round"/>
<path d="M22.8276 24.7139L15.1105 24.6187C14.6631 24.6167 14.2882 24.1753 14.2797 23.6378L14.1814 19.2277L26.7179 19.3809L26.7264 19.9428C26.7894 22.606 25.0339 24.7481 22.8276 24.7139Z" stroke="#6C5FBC" stroke-width="1.70989" stroke-linecap="round" stroke-linejoin="round"/>
</svg>
