<svg width="864" height="200" viewBox="0 0 864 200" fill="none" xmlns="http://www.w3.org/2000/svg">
<mask id="mask0_1_10233" style="mask-type:alpha" maskUnits="userSpaceOnUse" x="0" y="0" width="864" height="200">
<rect opacity="0.8" x="0.442383" y="0.423828" width="863.289" height="199.111" rx="21.3333" fill="#6C5FBC"/>
</mask>
<g mask="url(#mask0_1_10233)">
<g opacity="0.25">
<path d="M333.398 100.657C330.636 103.335 326.876 104.964 322.727 104.933C318.606 104.903 314.846 103.244 312.043 100.535" stroke="#1C186C" stroke-width="3.29925" stroke-linecap="round" stroke-linejoin="round"/>
<path d="M312.708 106.82C315.691 108.798 319.118 109.924 322.754 109.955C327.014 109.985 330.968 108.494 334.257 105.907C335.589 104.856 335.963 102.802 335.103 101.219L334.201 99.5603L330.469 92.8031C330.469 92.8031 327.818 87.9939 325.321 83.4587C324.114 81.2672 321.311 81.2368 320.117 83.3979L311.237 99.4385L310.363 101.021C309.502 102.589 309.891 104.674 311.251 105.739C311.709 106.135 312.208 106.485 312.708 106.82Z" stroke="#1C186C" stroke-width="3.29925" stroke-linecap="round" stroke-linejoin="round"/>
<path d="M317.772 97.5081C317.439 97.356 317.064 97.356 316.731 97.5081C316.551 97.5842 316.412 97.6907 316.273 97.8276C316.024 98.1166 315.871 98.4969 315.871 98.8924C315.871 99.3031 316.01 99.6682 316.273 99.9573C316.537 100.246 316.87 100.398 317.244 100.398C317.619 100.398 317.952 100.246 318.215 99.9573C318.479 99.6682 318.618 99.2879 318.618 98.8924C318.618 98.4969 318.465 98.1166 318.215 97.8276C318.091 97.6755 317.938 97.569 317.772 97.5081Z" fill="#201D67"/>
<path d="M323.238 98.9984C322.905 98.8462 322.531 98.8462 322.198 98.9984C322.031 99.0744 321.879 99.1809 321.74 99.3178C321.49 99.6068 321.338 99.9872 321.338 100.383C321.338 100.793 321.477 101.158 321.74 101.448C322.004 101.737 322.337 101.889 322.711 101.889C323.086 101.889 323.419 101.737 323.682 101.448C323.946 101.158 324.085 100.793 324.085 100.383C324.085 99.9872 323.932 99.6068 323.682 99.3178C323.557 99.1809 323.419 99.0744 323.238 98.9984Z" fill="#201D67"/>
<path d="M329.178 97.8113C328.665 97.2484 327.75 97.2484 327.236 97.8113C326.987 98.1003 326.834 98.4806 326.834 98.8761C326.834 99.2869 326.973 99.652 327.236 99.941C327.5 100.23 327.833 100.382 328.207 100.382C328.388 100.382 328.568 100.337 328.721 100.26C328.887 100.184 329.04 100.078 329.178 99.941C329.442 99.652 329.581 99.2869 329.581 98.8761C329.567 98.4958 329.414 98.1003 329.178 97.8113Z" fill="#201D67"/>
<path d="M326.722 92.2991C326.652 92.1014 326.555 91.9493 326.43 91.7971C325.917 91.2343 325.002 91.2343 324.488 91.7971C324.363 91.9493 324.266 92.1014 324.197 92.2991C324.128 92.4817 324.086 92.6794 324.086 92.862C324.086 93.0597 324.128 93.2575 324.197 93.4248C324.266 93.6074 324.363 93.7747 324.488 93.9268C324.752 94.2159 325.085 94.368 325.459 94.368C325.64 94.368 325.82 94.3223 325.973 94.2463C326.139 94.1702 326.292 94.0637 326.43 93.9268C326.694 93.6378 326.833 93.2727 326.833 92.862C326.833 92.6794 326.791 92.4817 326.722 92.2991Z" fill="#201D67"/>
<path d="M321.242 92.2991C321.173 92.1166 321.076 91.9493 320.951 91.7971C320.424 91.2343 319.508 91.2343 319.009 91.7971C318.884 91.9493 318.787 92.1014 318.717 92.2991C318.648 92.4817 318.606 92.6794 318.606 92.862C318.606 93.2727 318.745 93.6378 319.009 93.9268C319.147 94.0637 319.3 94.1702 319.467 94.2463C319.633 94.3223 319.813 94.368 319.994 94.368C320.368 94.368 320.701 94.2159 320.965 93.9268C321.09 93.7747 321.187 93.6074 321.256 93.4248C321.339 93.2423 321.367 93.0445 321.367 92.862C321.353 92.6794 321.325 92.4817 321.242 92.2991Z" fill="#201D67"/>
<path d="M321.754 87.9335C322.018 88.2225 322.351 88.3747 322.725 88.3747C322.905 88.3747 323.086 88.329 323.238 88.253C323.405 88.1769 323.557 88.0704 323.696 87.9335C323.821 87.7814 323.918 87.6141 323.987 87.4315C324.057 87.249 324.098 87.0512 324.098 86.8687C324.098 86.4579 323.946 86.0929 323.696 85.8038C323.308 85.3931 322.711 85.241 322.198 85.4844C322.018 85.5604 321.879 85.6669 321.74 85.8038C321.49 86.0929 321.338 86.4731 321.338 86.8687C321.338 87.0664 321.38 87.2642 321.449 87.4315C321.532 87.6141 321.629 87.7814 321.754 87.9335Z" fill="#201D67"/>
<path d="M664.383 33.3576C662.704 37.2537 659.097 39.9474 654.906 39.9474C649.12 39.9474 644.416 34.7882 644.416 28.442C644.416 22.7958 648.135 18.0931 653.047 17.1191C653.213 20.5434 655.503 23.3589 658.5 23.9828C658.444 24.3938 658.403 24.8199 658.403 25.246C658.403 29.2333 660.97 32.5663 664.383 33.3576Z" stroke="#1C186C" stroke-width="3.29925" stroke-linecap="round" stroke-linejoin="round"/>
<path d="M650.569 22.1704C649.722 22.1704 649.028 22.9313 649.028 23.8595C649.028 24.7878 649.722 25.5486 650.569 25.5486C651.415 25.5486 652.109 24.7878 652.109 23.8595C652.109 22.9161 651.415 22.1704 650.569 22.1704Z" fill="#201D67"/>
<path d="M647.167 13.3584C646.321 13.3584 645.627 14.1193 645.627 15.0475C645.627 15.9757 646.321 16.7366 647.167 16.7366C648.014 16.7366 648.708 15.9757 648.708 15.0475C648.694 14.104 648.014 13.3584 647.167 13.3584Z" fill="#201D67"/>
<path d="M655.048 27.3594C654.202 27.3594 653.508 28.1202 653.508 29.0485C653.508 29.9767 654.202 30.7376 655.048 30.7376C655.895 30.7376 656.588 29.9767 656.588 29.0485C656.588 28.105 655.895 27.3594 655.048 27.3594Z" fill="#201D67"/>
<path d="M656.378 34.1348C656.378 34.1348 656.086 34.3173 655.712 34.5607C655.351 34.7889 655.046 34.9866 655.046 34.9866C655.046 34.9866 655.337 34.8041 655.712 34.5607C656.072 34.3173 656.378 34.1348 656.378 34.1348Z" stroke="#1C186C" stroke-width="3.29925" stroke-linecap="round" stroke-linejoin="round"/>
<path d="M649.313 29.7656C649.313 29.7656 649.633 29.9177 650.021 30.1003C650.409 30.2828 650.728 30.435 650.728 30.435C650.728 30.435 650.409 30.2828 650.021 30.1003C649.633 29.9177 649.313 29.7656 649.313 29.7656Z" stroke="#1C186C" stroke-width="3.29925" stroke-linecap="round" stroke-linejoin="round"/>
<path d="M642.431 20.1903C642.431 20.1903 642.68 19.9317 642.986 19.6122C643.291 19.2928 643.54 19.0342 643.54 19.0342C643.54 19.0342 643.291 19.2928 642.986 19.6122C642.68 19.9317 642.431 20.1903 642.431 20.1903Z" stroke="#1C186C" stroke-width="3.29925" stroke-linecap="round" stroke-linejoin="round"/>
<path d="M641.03 28.6697C639.587 26.8739 638.713 24.5302 638.713 21.9582C638.713 16.3424 642.862 11.792 647.982 11.792C652.117 11.792 655.627 14.7597 656.821 18.8688" stroke="#1C186C" stroke-width="3.29925" stroke-linecap="round" stroke-linejoin="round"/>
<path d="M379.055 145.9C378.163 145.682 377.237 145.713 376.359 145.99C375.481 146.266 374.681 146.78 374.03 147.482C373.755 147.795 373.601 148.212 373.601 148.647C373.601 149.081 373.755 149.499 374.03 149.811L375.613 151.607" stroke="#1C186C" stroke-width="3.29925" stroke-linecap="round" stroke-linejoin="round"/>
<path d="M389.403 157.45C389.594 158.439 389.557 159.466 389.295 160.436C389.033 161.406 388.555 162.289 387.904 163.005C387.766 163.158 387.602 163.279 387.421 163.362C387.24 163.445 387.046 163.488 386.85 163.488C386.653 163.488 386.459 163.445 386.278 163.362C386.097 163.279 385.933 163.158 385.795 163.005L384.185 161.209" stroke="#1C186C" stroke-width="3.29925" stroke-linecap="round" stroke-linejoin="round"/>
<path d="M376.711 161.575C377.284 162.568 377.587 163.719 377.586 164.894C377.585 165.686 377.442 166.471 377.163 167.203C376.884 167.934 376.476 168.598 375.962 169.155C375.865 169.252 375.739 169.305 375.608 169.305C375.477 169.305 375.351 169.252 375.254 169.155C374.8 168.651 374.437 168.057 374.185 167.405C373.956 166.928 373.796 166.414 373.713 165.883C373.681 165.559 373.681 165.233 373.713 164.909C373.962 163.429 374.65 162.08 375.67 161.073C374.725 162.164 373.483 162.89 372.131 163.143C371.835 163.174 371.538 163.174 371.242 163.143C370.757 163.039 370.289 162.854 369.854 162.595C369.257 162.284 368.72 161.85 368.272 161.317C368.184 161.21 368.136 161.072 368.136 160.928C368.136 160.785 368.184 160.647 368.272 160.54C369.311 159.427 370.706 158.804 372.159 158.805C373.224 158.813 374.264 159.156 375.157 159.795" stroke="#1C186C" stroke-width="3.29925" stroke-linecap="round" stroke-linejoin="round"/>
<path d="M392.624 142.536C392.46 142.33 392.273 142.146 392.069 141.988C391.498 141.59 390.861 141.32 390.193 141.194C389.526 141.069 388.843 141.09 388.184 141.258C386.625 141.516 385.122 142.078 383.744 142.917C381.152 144.289 378.975 146.45 377.472 149.141C376.139 151.847 375.384 154.85 375.266 157.922C375.266 158.136 375.03 159.734 375.182 159.84L376.722 161.575C376.82 161.742 378.263 161.575 378.457 161.499C381.272 161.418 384.032 160.621 386.519 159.17C388.986 157.572 390.973 155.218 392.236 152.398C393.457 149.613 394.844 145.184 392.624 142.536Z" stroke="#1C186C" stroke-width="3.29925" stroke-linecap="round" stroke-linejoin="round"/>
<path d="M382.966 144.301C383.529 146.378 384.543 148.274 385.922 149.826C387.307 151.375 389.019 152.525 390.905 153.175" stroke="#1C186C" stroke-width="3.29925" stroke-linecap="round" stroke-linejoin="round"/>
<path d="M388.96 144.347C388.831 144.2 388.675 144.083 388.504 144.003C388.332 143.923 388.147 143.881 387.961 143.881C387.774 143.881 387.59 143.923 387.418 144.003C387.246 144.083 387.091 144.2 386.962 144.347C386.773 144.562 386.646 144.833 386.596 145.127C386.547 145.42 386.577 145.724 386.684 145.998C386.79 146.273 386.968 146.507 387.195 146.672C387.422 146.837 387.689 146.925 387.961 146.925C388.233 146.925 388.499 146.837 388.727 146.672C388.954 146.507 389.131 146.273 389.238 145.998C389.345 145.724 389.375 145.42 389.326 145.127C389.276 144.833 389.149 144.562 388.96 144.347Z" fill="#201D67"/>
<path d="M519.58 153.614L525.284 170.827L530.988 153.614" stroke="#1C186C" stroke-width="3.29925" stroke-linecap="round" stroke-linejoin="round"/>
<path d="M533.842 152.839C533.606 152.839 533.398 152.854 533.204 152.885C531.678 153.158 531.47 154.406 529.555 154.406C527.404 154.406 527.404 152.839 525.281 152.839C523.13 152.839 523.13 154.406 521.007 154.406C519.092 154.406 518.898 153.174 517.358 152.885C517.178 152.854 516.956 152.839 516.72 152.839" stroke="#1C186C" stroke-width="3.29925" stroke-linecap="round" stroke-linejoin="round"/>
<path d="M532.417 150.496C532.417 151.318 532.306 152.14 532.07 152.886C530.751 153.159 530.585 154.408 528.947 154.408C527.101 154.408 527.101 152.84 525.283 152.84C523.437 152.84 523.437 154.408 521.618 154.408C519.981 154.408 519.8 153.175 518.495 152.886C518.273 152.14 518.148 151.318 518.148 150.496C518.148 146.173 521.341 142.672 525.283 142.672C529.225 142.672 532.417 146.173 532.417 150.496Z" stroke="#1C186C" stroke-width="3.29925" stroke-linecap="round" stroke-linejoin="round"/>
<path d="M532.418 155.185H518.149" stroke="#1C186C" stroke-width="3.29925" stroke-linecap="round" stroke-linejoin="round"/>
<path d="M666.402 155.831H656.131V157.444H666.402V155.831Z" stroke="#1C186C" stroke-width="3.29925" stroke-linecap="round" stroke-linejoin="round"/>
<path d="M672.615 142.958C673.558 142.958 674.28 143.932 674.058 144.936C672.601 151.191 667.425 155.818 661.264 155.818C655.103 155.818 649.928 151.191 648.471 144.936C648.235 143.932 648.956 142.958 649.914 142.958H672.615V142.958Z" stroke="#1C186C" stroke-width="3.29925" stroke-linecap="round" stroke-linejoin="round"/>
<path d="M655.729 142.963C657.347 142.963 658.658 141.525 658.658 139.752C658.658 137.978 657.347 136.54 655.729 136.54C654.112 136.54 652.801 137.978 652.801 139.752C652.801 141.525 654.112 142.963 655.729 142.963Z" stroke="#1C186C" stroke-width="3.29925" stroke-linecap="round" stroke-linejoin="round"/>
<path d="M666.803 142.72C668.42 142.72 669.731 141.282 669.731 139.508C669.731 137.734 668.42 136.296 666.803 136.296C665.185 136.296 663.874 137.734 663.874 139.508C663.874 141.282 665.185 142.72 666.803 142.72Z" stroke="#1C186C" stroke-width="3.29925" stroke-linecap="round" stroke-linejoin="round"/>
<path d="M661.724 142.735C662.942 142.735 663.93 141.652 663.93 140.315C663.93 138.979 662.942 137.895 661.724 137.895C660.505 137.895 659.517 138.979 659.517 140.315C659.517 141.652 660.505 142.735 661.724 142.735Z" stroke="#1C186C" stroke-width="3.29925" stroke-linecap="round" stroke-linejoin="round"/>
<path d="M654.134 136.751L649.526 131.697" stroke="#1C186C" stroke-width="3.29925" stroke-linecap="round" stroke-linejoin="round"/>
<path d="M650.273 147.754H672.253" stroke="#1C186C" stroke-width="3.29925" stroke-linecap="round" stroke-linejoin="round"/>
<path d="M607.143 80.6548H582.167C582.167 83.1811 584.026 85.2204 586.33 85.2204H602.981C605.284 85.2204 607.143 83.1811 607.143 80.6548Z" stroke="#1C186C" stroke-width="3.29925" stroke-linecap="round" stroke-linejoin="round"/>
<path d="M594.654 66.9551C588.521 66.9551 583.554 72.4034 583.554 79.1302V80.652H605.755V79.1302C605.755 72.4034 600.787 66.9551 594.654 66.9551Z" stroke="#1C186C" stroke-width="3.29925" stroke-linecap="round" stroke-linejoin="round"/>
<path d="M594.655 68.0993C595.996 68.0993 597.084 66.9067 597.084 65.4356C597.084 63.9645 595.996 62.772 594.655 62.772C593.313 62.772 592.226 63.9645 592.226 65.4356C592.226 66.9067 593.313 68.0993 594.655 68.0993Z" fill="#201D67"/>
<path d="M507.538 59.4204C511.382 59.6791 515.227 61.5206 518.266 64.8992C521.277 68.2473 522.929 72.5086 523.179 76.7699" stroke="#1C186C" stroke-width="3.29925" stroke-linecap="round" stroke-linejoin="round"/>
<path d="M524.759 77.7575L523.052 78.2141L505.735 82.8558C503.404 83.4798 501.364 81.197 501.947 78.6098L503.168 73.131L503.252 72.781L504.32 68.0175L504.417 67.5609L506.221 59.571L506.665 57.623C507.081 55.7511 508.732 54.5488 510.425 54.8532C514.588 55.5989 518.501 57.6991 521.623 61.169C524.731 64.6084 526.604 68.9458 527.284 73.5571C527.562 75.4443 526.452 77.301 524.759 77.7575Z" stroke="#1C186C" stroke-width="3.29925" stroke-linecap="round" stroke-linejoin="round"/>
<path d="M514.295 72.8905C515.522 72.8905 516.516 71.7866 516.516 70.4248C516.516 69.0629 515.522 67.959 514.295 67.959C513.069 67.959 512.074 69.0629 512.074 70.4248C512.074 71.7866 513.069 72.8905 514.295 72.8905Z" stroke="#1C186C" stroke-width="3.29925" stroke-linecap="round" stroke-linejoin="round"/>
<path d="M506.083 71.9616C505.32 72.8139 504.224 73.0879 503.252 72.7531L504.64 66.543C505.167 66.68 505.667 66.9539 506.083 67.4106C507.222 68.6739 507.222 70.7135 506.083 71.9616Z" stroke="#1C186C" stroke-width="3.29925" stroke-linecap="round" stroke-linejoin="round"/>
<path d="M507.827 80.636C507.619 79.7532 507.827 78.7791 508.438 78.0941C509.368 77.0591 510.867 77.0591 511.797 78.0941C512.102 78.429 512.311 78.84 512.408 79.2814" stroke="#1C186C" stroke-width="3.29925" stroke-linecap="round" stroke-linejoin="round"/>
<path d="M451.95 82.0405L437.742 97.6246C436.229 99.2835 436.229 101.962 437.742 103.621C439.254 105.28 441.696 105.28 443.209 103.621L457.418 88.0368C458.93 86.3779 458.93 83.6994 457.418 82.0405C455.905 80.3817 453.463 80.3817 451.95 82.0405Z" stroke="#1C186C" stroke-width="3.29925" stroke-linecap="round" stroke-linejoin="round"/>
<path d="M440.723 99.6992C442.36 97.9031 442.943 98.5424 444.595 96.7463C446.233 94.9503 445.65 94.311 447.288 92.4997C448.926 90.7037 449.523 91.343 451.16 89.5469C452.798 87.7508 452.215 87.0963 453.853 85.3003" stroke="#1C186C" stroke-width="3.29925" stroke-linecap="round" stroke-linejoin="round"/>
<path d="M447.036 80.2468L436.102 92.2392C434.284 94.2329 434.284 97.4441 436.102 99.4377L453.585 80.262C451.781 78.2531 448.839 78.2531 447.036 80.2468Z" stroke="#1C186C" stroke-width="3.29925" stroke-linecap="round" stroke-linejoin="round"/>
<path d="M448.119 105.417L459.053 93.4241C460.87 91.4304 460.87 88.2193 459.053 86.2256L441.569 105.401C443.373 107.41 446.315 107.41 448.119 105.417Z" stroke="#1C186C" stroke-width="3.29925" stroke-linecap="round" stroke-linejoin="round"/>
<path d="M378.193 47.5114H364.318C361.848 47.5114 359.85 45.3199 359.85 42.611V39.689H382.661V42.611C382.661 45.3199 380.663 47.5114 378.193 47.5114Z" stroke="#1C186C" stroke-width="3.29925" stroke-linecap="round" stroke-linejoin="round"/>
<path d="M381.953 34.9985H360.557C359.377 34.9985 358.42 36.0486 358.42 37.3422C358.42 38.6358 359.377 39.6859 360.557 39.6859H381.953C383.133 39.6859 384.09 38.6358 384.09 37.3422C384.09 36.0486 383.133 34.9985 381.953 34.9985Z" stroke="#1C186C" stroke-width="3.29925" stroke-linecap="round" stroke-linejoin="round"/>
<path d="M371.991 22.4907H370.52C364.623 22.4907 359.85 27.726 359.85 34.194V35.0006H382.661V34.194C382.661 27.726 377.888 22.4907 371.991 22.4907Z" stroke="#1C186C" stroke-width="3.29925" stroke-linecap="round" stroke-linejoin="round"/>
<path d="M359.696 40.0698C360.237 40.7089 360.626 41.5763 361.639 41.5763C362.652 41.5763 363.041 40.7089 363.582 40.0698" stroke="#1C186C" stroke-width="3.29925" stroke-linecap="round" stroke-linejoin="round"/>
<path d="M372.725 40.0698C373.266 40.7089 373.654 41.5763 374.667 41.5763C375.694 41.5763 376.083 40.7089 376.624 40.0698" stroke="#1C186C" stroke-width="3.29925" stroke-linecap="round" stroke-linejoin="round"/>
<path d="M381.204 41.5602C380.191 41.5602 379.803 40.6931 379.262 40.0542" stroke="#1C186C" stroke-width="3.29925" stroke-linecap="round" stroke-linejoin="round"/>
<path d="M366.218 40.0698C366.759 40.7089 367.148 41.5763 368.161 41.5763C369.173 41.5763 369.562 40.7089 370.103 40.0698" stroke="#1C186C" stroke-width="3.29925" stroke-linecap="round" stroke-linejoin="round"/>
<path d="M729.577 68.6926C726.816 71.3711 723.056 72.9995 718.907 72.969C714.786 72.9386 711.026 71.2798 708.223 68.5708" stroke="#1C186C" stroke-width="3.29925" stroke-linecap="round" stroke-linejoin="round"/>
<path d="M708.887 74.8543C711.871 76.8328 715.298 77.959 718.933 77.9894C723.193 78.0198 727.148 76.5284 730.436 73.9412C731.769 72.8911 732.143 70.8365 731.283 69.2538L730.381 67.5949L726.648 60.8378C726.648 60.8378 723.998 56.0286 721.5 51.4934C720.293 49.3019 717.49 49.2715 716.297 51.4325L707.417 67.4732L706.542 69.056C705.682 70.6235 706.071 72.7085 707.431 73.7738C707.888 74.1695 708.388 74.5195 708.887 74.8543Z" stroke="#1C186C" stroke-width="3.29925" stroke-linecap="round" stroke-linejoin="round"/>
<path d="M713.953 65.5399C713.62 65.3878 713.246 65.3878 712.913 65.5399C712.732 65.6159 712.594 65.7224 712.455 65.8593C712.205 66.1483 712.053 66.5286 712.053 66.9242C712.053 67.3349 712.191 67.7 712.455 67.989C712.719 68.278 713.052 68.4302 713.426 68.4302C713.801 68.4302 714.134 68.278 714.397 67.989C714.661 67.7 714.799 67.3197 714.799 66.9242C714.799 66.5286 714.647 66.1483 714.397 65.8593C714.272 65.7072 714.12 65.6007 713.953 65.5399Z" fill="#201D67"/>
<path d="M719.421 67.035C719.088 66.8829 718.713 66.8829 718.381 67.035C718.214 67.1111 718.062 67.2175 717.923 67.3544C717.673 67.6435 717.521 68.0238 717.521 68.4193C717.521 68.83 717.659 69.1951 717.923 69.4841C718.186 69.7732 718.519 69.9253 718.894 69.9253C719.268 69.9253 719.601 69.7732 719.865 69.4841C720.128 69.1951 720.267 68.83 720.267 68.4193C720.267 68.0238 720.115 67.6435 719.865 67.3544C719.74 67.2175 719.601 67.1111 719.421 67.035Z" fill="#201D67"/>
<path d="M725.36 65.845C724.847 65.2821 723.931 65.2821 723.418 65.845C723.168 66.134 723.016 66.5143 723.016 66.9098C723.016 67.3206 723.154 67.6856 723.418 67.9747C723.681 68.2637 724.014 68.4158 724.389 68.4158C724.569 68.4158 724.75 68.3702 724.902 68.2941C725.069 68.2181 725.221 68.1116 725.36 67.9747C725.624 67.6856 725.762 67.3206 725.762 66.9098C725.748 66.5295 725.596 66.134 725.36 65.845Z" fill="#201D67"/>
<path d="M722.901 60.3348C722.832 60.137 722.735 59.9849 722.61 59.8328C722.097 59.2699 721.181 59.2699 720.668 59.8328C720.543 59.9849 720.446 60.137 720.377 60.3348C720.307 60.5173 720.266 60.7151 720.266 60.8976C720.266 61.0954 720.307 61.2931 720.377 61.4605C720.446 61.643 720.543 61.8103 720.668 61.9625C720.931 62.2515 721.264 62.4036 721.639 62.4036C721.819 62.4036 722 62.358 722.152 62.2819C722.319 62.2059 722.471 62.0994 722.61 61.9625C722.874 61.6734 723.012 61.3084 723.012 60.8976C723.012 60.7151 722.971 60.5173 722.901 60.3348Z" fill="#201D67"/>
<path d="M717.421 60.3348C717.351 60.1522 717.254 59.9849 717.13 59.8328C716.602 59.2699 715.687 59.2699 715.187 59.8328C715.063 59.9849 714.965 60.137 714.896 60.3348C714.827 60.5173 714.785 60.7151 714.785 60.8976C714.785 61.3084 714.924 61.6734 715.187 61.9625C715.326 62.0994 715.479 62.2059 715.645 62.2819C715.812 62.358 715.992 62.4036 716.172 62.4036C716.547 62.4036 716.88 62.2515 717.143 61.9625C717.268 61.8103 717.365 61.643 717.435 61.4605C717.518 61.2779 717.546 61.0802 717.546 60.8976C717.532 60.7151 717.504 60.5173 717.421 60.3348Z" fill="#201D67"/>
<path d="M717.937 55.9672C718.2 56.2562 718.533 56.4084 718.908 56.4084C719.088 56.4084 719.268 56.3627 719.421 56.2867C719.587 56.2106 719.74 56.1041 719.879 55.9672C720.004 55.8151 720.101 55.6477 720.17 55.4652C720.239 55.2827 720.281 55.0849 720.281 54.9024C720.281 54.4916 720.128 54.1265 719.879 53.8375C719.49 53.4268 718.894 53.2747 718.381 53.518C718.2 53.5941 718.062 53.7006 717.923 53.8375C717.673 54.1265 717.521 54.5068 717.521 54.9024C717.521 55.1001 717.562 55.2979 717.631 55.4652C717.715 55.6477 717.812 55.8151 717.937 55.9672Z" fill="#201D67"/>
<path d="M597.778 182.502C596.099 186.398 592.491 189.092 588.301 189.092C582.514 189.092 577.811 183.933 577.811 177.586C577.811 171.94 581.529 167.238 586.441 166.264C586.608 169.688 588.897 172.503 591.894 173.127C591.839 173.538 591.797 173.964 591.797 174.391C591.797 178.378 594.364 181.711 597.778 182.502Z" stroke="#1C186C" stroke-width="3.29925" stroke-linecap="round" stroke-linejoin="round"/>
<path d="M583.955 171.318C583.109 171.318 582.415 172.079 582.415 173.007C582.415 173.936 583.109 174.697 583.955 174.697C584.802 174.697 585.496 173.936 585.496 173.007C585.496 172.064 584.802 171.318 583.955 171.318Z" fill="#201D67"/>
<path d="M580.554 162.507C579.707 162.507 579.014 163.268 579.014 164.196C579.014 165.125 579.707 165.886 580.554 165.886C581.4 165.886 582.094 165.125 582.094 164.196C582.08 163.253 581.4 162.507 580.554 162.507Z" fill="#201D67"/>
<path d="M588.436 176.51C587.589 176.51 586.896 177.271 586.896 178.199C586.896 179.128 587.589 179.888 588.436 179.888C589.282 179.888 589.976 179.128 589.976 178.199C589.976 177.256 589.282 176.51 588.436 176.51Z" fill="#201D67"/>
<path d="M589.772 183.276C589.772 183.276 589.481 183.459 589.106 183.702C588.746 183.93 588.44 184.128 588.44 184.128C588.44 184.128 588.732 183.946 589.106 183.702C589.467 183.459 589.772 183.276 589.772 183.276Z" stroke="#1C186C" stroke-width="3.29925" stroke-linecap="round" stroke-linejoin="round"/>
<path d="M582.708 178.911C582.708 178.911 583.027 179.063 583.415 179.246C583.804 179.428 584.123 179.58 584.123 179.58C584.123 179.58 583.804 179.428 583.415 179.246C583.027 179.063 582.708 178.911 582.708 178.911Z" stroke="#1C186C" stroke-width="3.29925" stroke-linecap="round" stroke-linejoin="round"/>
<path d="M575.825 169.336C575.825 169.336 576.075 169.077 576.38 168.758C576.685 168.438 576.935 168.18 576.935 168.18C576.935 168.18 576.685 168.438 576.38 168.758C576.075 169.077 575.825 169.336 575.825 169.336Z" stroke="#1C186C" stroke-width="3.29925" stroke-linecap="round" stroke-linejoin="round"/>
<path d="M574.425 177.813C572.982 176.017 572.107 173.674 572.107 171.102C572.107 165.486 576.256 160.936 581.376 160.936C585.511 160.936 589.022 163.903 590.215 168.012" stroke="#1C186C" stroke-width="3.29925" stroke-linecap="round" stroke-linejoin="round"/>
<path d="M781.424 113.94C780.533 113.722 779.606 113.754 778.728 114.03C777.85 114.307 777.05 114.82 776.399 115.523C776.124 115.835 775.97 116.252 775.97 116.687C775.97 117.122 776.124 117.539 776.399 117.851L777.982 119.647" stroke="#1C186C" stroke-width="3.29925" stroke-linecap="round" stroke-linejoin="round"/>
<path d="M791.773 125.491C791.963 126.48 791.926 127.507 791.664 128.477C791.403 129.447 790.925 130.33 790.274 131.046C790.135 131.199 789.971 131.32 789.79 131.403C789.609 131.486 789.415 131.529 789.219 131.529C789.023 131.529 788.828 131.486 788.647 131.403C788.466 131.32 788.302 131.199 788.164 131.046L786.554 129.25" stroke="#1C186C" stroke-width="3.29925" stroke-linecap="round" stroke-linejoin="round"/>
<path d="M779.08 129.614C779.653 130.607 779.956 131.758 779.955 132.933C779.954 133.725 779.811 134.51 779.532 135.242C779.253 135.973 778.845 136.637 778.331 137.194C778.234 137.291 778.108 137.344 777.977 137.344C777.846 137.344 777.72 137.291 777.623 137.194C777.169 136.69 776.806 136.096 776.554 135.444C776.325 134.967 776.165 134.453 776.082 133.922C776.051 133.598 776.051 133.272 776.082 132.948C776.332 131.468 777.02 130.119 778.039 129.112C777.094 130.203 775.853 130.929 774.5 131.182C774.204 131.213 773.907 131.213 773.612 131.182C773.126 131.078 772.658 130.894 772.224 130.634C771.626 130.323 771.089 129.889 770.641 129.356C770.553 129.249 770.505 129.111 770.505 128.968C770.505 128.824 770.553 128.686 770.641 128.579C771.68 127.466 773.075 126.843 774.528 126.844C775.593 126.852 776.634 127.195 777.526 127.834" stroke="#1C186C" stroke-width="3.29925" stroke-linecap="round" stroke-linejoin="round"/>
<path d="M794.993 110.576C794.829 110.37 794.642 110.186 794.438 110.028C793.867 109.63 793.23 109.36 792.563 109.234C791.896 109.109 791.212 109.13 790.553 109.298C788.995 109.556 787.491 110.118 786.113 110.957C783.521 112.329 781.344 114.49 779.841 117.181C778.508 119.887 777.753 122.89 777.635 125.963C777.635 126.176 777.399 127.774 777.551 127.88L779.092 129.615C779.189 129.782 780.632 129.615 780.826 129.539C783.642 129.458 786.401 128.661 788.888 127.21C791.355 125.613 793.342 123.259 794.605 120.438C795.826 117.653 797.213 113.224 794.993 110.576Z" stroke="#1C186C" stroke-width="3.29925" stroke-linecap="round" stroke-linejoin="round"/>
<path d="M785.338 112.341C785.901 114.418 786.915 116.314 788.294 117.866C789.679 119.415 791.391 120.565 793.277 121.215" stroke="#1C186C" stroke-width="3.29925" stroke-linecap="round" stroke-linejoin="round"/>
<path d="M791.329 112.387C791.2 112.24 791.045 112.123 790.873 112.043C790.701 111.963 790.517 111.921 790.33 111.921C790.144 111.921 789.959 111.963 789.787 112.043C789.616 112.123 789.46 112.24 789.331 112.387C789.142 112.602 789.015 112.873 788.965 113.167C788.916 113.46 788.946 113.764 789.053 114.038C789.159 114.313 789.337 114.547 789.564 114.712C789.792 114.877 790.058 114.965 790.33 114.965C790.602 114.965 790.869 114.877 791.096 114.712C791.323 114.547 791.501 114.313 791.607 114.038C791.714 113.764 791.744 113.46 791.695 113.167C791.645 112.873 791.518 112.602 791.329 112.387Z" fill="#201D67"/>
<path d="M437.849 174.677C441.693 174.936 445.537 176.777 448.576 180.156C451.588 183.504 453.24 187.765 453.489 192.027" stroke="#1C186C" stroke-width="3.29925" stroke-linecap="round" stroke-linejoin="round"/>
<path d="M455.068 193.014L453.362 193.471L436.045 198.113C433.714 198.737 431.674 196.454 432.257 193.867L433.478 188.388L433.561 188.038L434.63 183.274L434.727 182.818L436.531 174.828L436.975 172.88C437.391 171.008 439.042 169.806 440.735 170.11C444.898 170.856 448.811 172.956 451.933 176.426C455.041 179.865 456.914 184.203 457.594 188.814C457.871 190.701 456.761 192.558 455.068 193.014Z" stroke="#1C186C" stroke-width="3.29925" stroke-linecap="round" stroke-linejoin="round"/>
<path d="M444.605 188.148C445.831 188.148 446.825 187.044 446.825 185.683C446.825 184.321 445.831 183.217 444.605 183.217C443.378 183.217 442.384 184.321 442.384 185.683C442.384 187.044 443.378 188.148 444.605 188.148Z" stroke="#1C186C" stroke-width="3.29925" stroke-linecap="round" stroke-linejoin="round"/>
<path d="M436.393 187.217C435.63 188.07 434.533 188.344 433.562 188.009L434.95 181.799C435.477 181.936 435.977 182.21 436.393 182.666C437.531 183.93 437.531 185.969 436.393 187.217Z" stroke="#1C186C" stroke-width="3.29925" stroke-linecap="round" stroke-linejoin="round"/>
<path d="M438.138 195.895C437.93 195.012 438.138 194.038 438.749 193.353C439.679 192.318 441.178 192.318 442.108 193.353C442.413 193.688 442.621 194.099 442.718 194.54" stroke="#1C186C" stroke-width="3.29925" stroke-linecap="round" stroke-linejoin="round"/>
<path d="M838.482 165.172C842.327 165.431 846.171 167.272 849.21 170.651C852.222 173.999 853.873 178.26 854.123 182.521" stroke="#1C186C" stroke-width="3.29925" stroke-linecap="round" stroke-linejoin="round"/>
<path d="M855.704 183.51L853.998 183.967L836.681 188.608C834.35 189.232 832.31 186.949 832.893 184.362L834.114 178.883L834.197 178.533L835.265 173.77L835.362 173.313L837.166 165.323L837.61 163.375C838.027 161.504 839.678 160.301 841.371 160.606C845.533 161.351 849.446 163.452 852.568 166.921C855.676 170.361 857.55 174.698 858.23 179.31C858.507 181.197 857.397 183.053 855.704 183.51Z" stroke="#1C186C" stroke-width="3.29925" stroke-linecap="round" stroke-linejoin="round"/>
<path d="M845.241 178.642C846.468 178.642 847.462 177.538 847.462 176.176C847.462 174.814 846.468 173.71 845.241 173.71C844.015 173.71 843.021 174.814 843.021 176.176C843.021 177.538 844.015 178.642 845.241 178.642Z" stroke="#1C186C" stroke-width="3.29925" stroke-linecap="round" stroke-linejoin="round"/>
<path d="M837.028 177.712C836.264 178.564 835.168 178.838 834.196 178.504L835.584 172.293C836.112 172.43 836.611 172.704 837.028 173.161C838.166 174.424 838.166 176.464 837.028 177.712Z" stroke="#1C186C" stroke-width="3.29925" stroke-linecap="round" stroke-linejoin="round"/>
<path d="M838.775 186.388C838.566 185.506 838.775 184.532 839.385 183.847C840.315 182.812 841.814 182.812 842.744 183.847C843.05 184.181 843.258 184.592 843.355 185.034" stroke="#1C186C" stroke-width="3.29925" stroke-linecap="round" stroke-linejoin="round"/>
<path d="M851.219 50.0811L837.01 65.6652C835.498 67.324 835.498 70.0025 837.01 71.6614C838.523 73.3202 840.965 73.3202 842.477 71.6614L856.686 56.0773C858.199 54.4184 858.199 51.7399 856.686 50.0811C855.174 48.4222 852.732 48.4222 851.219 50.0811Z" stroke="#1C186C" stroke-width="3.29925" stroke-linecap="round" stroke-linejoin="round"/>
<path d="M839.991 67.7368C841.629 65.9407 842.212 66.58 843.864 64.7839C845.502 62.9879 844.919 62.3486 846.556 60.5373C848.194 58.7413 848.791 59.3805 850.429 57.5845C852.067 55.7884 851.484 55.1339 853.122 53.3379" stroke="#1C186C" stroke-width="3.29925" stroke-linecap="round" stroke-linejoin="round"/>
<path d="M846.305 48.2858L835.371 60.2783C833.553 62.2719 833.553 65.4831 835.371 67.4768L852.855 48.3011C851.051 46.2922 848.109 46.2922 846.305 48.2858Z" stroke="#1C186C" stroke-width="3.29925" stroke-linecap="round" stroke-linejoin="round"/>
<path d="M847.389 73.4556L858.323 61.4632C860.141 59.4695 860.141 56.2583 858.323 54.2646L840.84 73.4404C842.644 75.4493 845.585 75.4493 847.389 73.4556Z" stroke="#1C186C" stroke-width="3.29925" stroke-linecap="round" stroke-linejoin="round"/>
<path d="M311.593 196.653H297.717C295.247 196.653 293.249 194.462 293.249 191.753V188.831H316.061V191.753C316.061 194.462 314.063 196.653 311.593 196.653Z" stroke="#1C186C" stroke-width="3.29925" stroke-linecap="round" stroke-linejoin="round"/>
<path d="M315.355 184.14H293.958C292.779 184.14 291.821 185.19 291.821 186.484C291.821 187.777 292.779 188.828 293.958 188.828H315.355C316.534 188.828 317.491 187.777 317.491 186.484C317.491 185.19 316.534 184.14 315.355 184.14Z" stroke="#1C186C" stroke-width="3.29925" stroke-linecap="round" stroke-linejoin="round"/>
<path d="M305.39 171.632H303.919C298.022 171.632 293.249 176.868 293.249 183.336V184.142H316.061V183.336C316.061 176.868 311.287 171.632 305.39 171.632Z" stroke="#1C186C" stroke-width="3.29925" stroke-linecap="round" stroke-linejoin="round"/>
<path d="M293.099 189.208C293.64 189.847 294.028 190.715 295.041 190.715C296.054 190.715 296.443 189.847 296.984 189.208" stroke="#1C186C" stroke-width="3.29925" stroke-linecap="round" stroke-linejoin="round"/>
<path d="M306.129 189.208C306.67 189.847 307.059 190.715 308.072 190.715C309.099 190.715 309.487 189.847 310.028 189.208" stroke="#1C186C" stroke-width="3.29925" stroke-linecap="round" stroke-linejoin="round"/>
<path d="M314.608 190.699C313.595 190.699 313.207 189.832 312.666 189.193" stroke="#1C186C" stroke-width="3.29925" stroke-linecap="round" stroke-linejoin="round"/>
<path d="M299.621 189.208C300.162 189.847 300.551 190.715 301.564 190.715C302.577 190.715 302.965 189.847 303.507 189.208" stroke="#1C186C" stroke-width="3.29925" stroke-linecap="round" stroke-linejoin="round"/>
<path d="M788.288 15.5505H774.412C771.942 15.5505 769.944 13.359 769.944 10.65V7.72803H792.756V10.65C792.756 13.359 790.758 15.5505 788.288 15.5505Z" stroke="#1C186C" stroke-width="3.29925" stroke-linecap="round" stroke-linejoin="round"/>
<path d="M792.051 3.03857H770.654C769.475 3.03857 768.518 4.08867 768.518 5.38228C768.518 6.67588 769.475 7.72598 770.654 7.72598H792.051C793.23 7.72598 794.188 6.67588 794.188 5.38228C794.188 4.08867 793.23 3.03857 792.051 3.03857Z" stroke="#1C186C" stroke-width="3.29925" stroke-linecap="round" stroke-linejoin="round"/>
<path d="M782.086 -9.47021H780.615C774.718 -9.47021 769.944 -4.23493 769.944 2.23308V3.03968H792.756V2.23308C792.756 -4.23493 787.983 -9.47021 782.086 -9.47021Z" stroke="#1C186C" stroke-width="3.29925" stroke-linecap="round" stroke-linejoin="round"/>
<path d="M769.795 8.10791C770.336 8.74703 770.725 9.61441 771.738 9.61441C772.751 9.61441 773.139 8.74703 773.68 8.10791" stroke="#1C186C" stroke-width="3.29925" stroke-linecap="round" stroke-linejoin="round"/>
<path d="M782.823 8.10791C783.364 8.74703 783.753 9.61441 784.766 9.61441C785.793 9.61441 786.181 8.74703 786.723 8.10791" stroke="#1C186C" stroke-width="3.29925" stroke-linecap="round" stroke-linejoin="round"/>
<path d="M791.304 9.59926C790.292 9.59926 789.903 8.73217 789.362 8.09326" stroke="#1C186C" stroke-width="3.29925" stroke-linecap="round" stroke-linejoin="round"/>
<path d="M776.316 8.10791C776.858 8.74703 777.246 9.61441 778.259 9.61441C779.272 9.61441 779.661 8.74703 780.202 8.10791" stroke="#1C186C" stroke-width="3.29925" stroke-linecap="round" stroke-linejoin="round"/>
<path d="M736.944 205.785H723.069C720.599 205.785 718.601 203.593 718.601 200.884V197.962H741.412V200.884C741.412 203.593 739.414 205.785 736.944 205.785Z" stroke="#1C186C" stroke-width="3.29925" stroke-linecap="round" stroke-linejoin="round"/>
<path d="M740.706 193.274H719.31C718.13 193.274 717.173 194.325 717.173 195.618C717.173 196.912 718.13 197.962 719.31 197.962H740.706C741.886 197.962 742.843 196.912 742.843 195.618C742.843 194.325 741.886 193.274 740.706 193.274Z" stroke="#1C186C" stroke-width="3.29925" stroke-linecap="round" stroke-linejoin="round"/>
<path d="M730.742 180.764H729.271C723.374 180.764 718.601 185.999 718.601 192.467V193.274H741.412V192.467C741.412 185.999 736.639 180.764 730.742 180.764Z" stroke="#1C186C" stroke-width="3.29925" stroke-linecap="round" stroke-linejoin="round"/>
<path d="M718.447 198.343C718.988 198.982 719.377 199.85 720.39 199.85C721.403 199.85 721.792 198.982 722.333 198.343" stroke="#1C186C" stroke-width="3.29925" stroke-linecap="round" stroke-linejoin="round"/>
<path d="M731.476 198.343C732.017 198.982 732.405 199.85 733.418 199.85C734.445 199.85 734.834 198.982 735.375 198.343" stroke="#1C186C" stroke-width="3.29925" stroke-linecap="round" stroke-linejoin="round"/>
<path d="M739.956 199.834C738.943 199.834 738.555 198.967 738.014 198.328" stroke="#1C186C" stroke-width="3.29925" stroke-linecap="round" stroke-linejoin="round"/>
<path d="M724.968 198.343C725.509 198.982 725.898 199.85 726.911 199.85C727.923 199.85 728.312 198.982 728.853 198.343" stroke="#1C186C" stroke-width="3.29925" stroke-linecap="round" stroke-linejoin="round"/>
</g>
<g opacity="0.25">
<path d="M177.301 193.092C180.065 190.417 183.827 188.792 187.976 188.827C192.097 188.862 195.855 190.525 198.655 193.237" stroke="#1C186C" stroke-width="3.29925" stroke-linecap="round" stroke-linejoin="round"/>
<path d="M197.996 186.951C195.015 184.969 191.589 183.839 187.953 183.805C183.693 183.77 179.737 185.257 176.446 187.841C175.113 188.889 174.736 190.944 175.594 192.527L176.495 194.187L180.22 200.948C180.22 200.948 182.865 205.76 185.358 210.298C186.563 212.491 189.365 212.524 190.561 210.365L199.459 194.334L200.335 192.752C201.197 191.185 200.81 189.1 199.452 188.033C198.994 187.637 198.495 187.286 197.996 186.951Z" stroke="#1C186C" stroke-width="3.29925" stroke-linecap="round" stroke-linejoin="round"/>
<path d="M192.919 196.257C193.252 196.41 193.626 196.41 193.959 196.259C194.14 196.183 194.279 196.076 194.418 195.94C194.668 195.651 194.821 195.271 194.821 194.875C194.821 194.464 194.683 194.099 194.42 193.81C194.157 193.521 193.824 193.368 193.449 193.368C193.075 193.367 192.742 193.519 192.478 193.808C192.214 194.097 192.075 194.477 192.074 194.872C192.074 195.268 192.226 195.648 192.475 195.937C192.6 196.09 192.753 196.196 192.919 196.257Z" fill="#201D67"/>
<path d="M187.457 194.759C187.79 194.912 188.164 194.912 188.497 194.76C188.664 194.685 188.817 194.578 188.956 194.442C189.206 194.153 189.359 193.773 189.359 193.377C189.359 192.966 189.221 192.601 188.958 192.312C188.695 192.022 188.362 191.87 187.987 191.87C187.613 191.869 187.28 192.021 187.016 192.31C186.752 192.598 186.613 192.963 186.612 193.374C186.612 193.77 186.764 194.15 187.014 194.439C187.138 194.576 187.277 194.683 187.457 194.759Z" fill="#201D67"/>
<path d="M181.517 195.939C182.03 196.503 182.946 196.503 183.46 195.941C183.71 195.652 183.863 195.272 183.863 194.877C183.863 194.466 183.725 194.101 183.462 193.812C183.199 193.522 182.866 193.37 182.491 193.369C182.311 193.369 182.13 193.415 181.978 193.49C181.811 193.566 181.659 193.673 181.52 193.809C181.256 194.098 181.117 194.463 181.116 194.874C181.13 195.254 181.282 195.65 181.517 195.939Z" fill="#201D67"/>
<path d="M183.966 201.453C184.035 201.651 184.132 201.803 184.257 201.955C184.769 202.519 185.685 202.52 186.199 201.957C186.324 201.805 186.421 201.653 186.491 201.456C186.56 201.273 186.602 201.075 186.602 200.893C186.602 200.695 186.561 200.497 186.492 200.33C186.423 200.147 186.326 199.98 186.201 199.828C185.938 199.538 185.605 199.386 185.23 199.385C185.05 199.385 184.87 199.431 184.717 199.507C184.551 199.582 184.398 199.689 184.259 199.826C183.995 200.114 183.856 200.479 183.856 200.89C183.855 201.072 183.897 201.27 183.966 201.453Z" fill="#201D67"/>
<path d="M189.447 201.46C189.517 201.642 189.613 201.81 189.738 201.962C190.265 202.525 191.18 202.526 191.68 201.964C191.805 201.812 191.902 201.66 191.972 201.462C192.042 201.28 192.083 201.082 192.084 200.9C192.084 200.489 191.946 200.124 191.682 199.834C191.544 199.697 191.391 199.591 191.225 199.515C191.059 199.438 190.878 199.392 190.698 199.392C190.323 199.392 189.99 199.544 189.727 199.832C189.602 199.984 189.504 200.152 189.435 200.334C189.351 200.517 189.323 200.714 189.323 200.897C189.337 201.079 189.364 201.277 189.447 201.46Z" fill="#201D67"/>
<path d="M131.685 147.802C132.576 148.02 133.503 147.99 134.381 147.714C135.259 147.439 136.06 146.926 136.711 146.224C136.987 145.912 137.141 145.495 137.142 145.06C137.142 144.626 136.989 144.208 136.713 143.895L135.133 142.098" stroke="#1C186C" stroke-width="3.29925" stroke-linecap="round" stroke-linejoin="round"/>
<path d="M121.348 136.24C121.158 135.25 121.196 134.223 121.459 133.254C121.722 132.284 122.201 131.401 122.853 130.686C122.991 130.533 123.155 130.412 123.336 130.329C123.518 130.247 123.712 130.204 123.908 130.204C124.104 130.205 124.298 130.247 124.479 130.33C124.66 130.413 124.824 130.535 124.962 130.688L126.57 132.486" stroke="#1C186C" stroke-width="3.29925" stroke-linecap="round" stroke-linejoin="round"/>
<path d="M134.045 132.126C133.473 131.132 133.171 129.981 133.174 128.807C133.175 128.014 133.32 127.229 133.599 126.498C133.879 125.767 134.288 125.104 134.802 124.547C134.9 124.451 135.026 124.397 135.157 124.398C135.287 124.398 135.413 124.451 135.51 124.547C135.964 125.052 136.326 125.646 136.577 126.299C136.806 126.776 136.965 127.29 137.047 127.822C137.079 128.145 137.078 128.472 137.046 128.796C136.795 130.275 136.106 131.623 135.085 132.629C136.032 131.539 137.274 130.815 138.627 130.563C138.922 130.533 139.22 130.533 139.515 130.564C140 130.668 140.468 130.854 140.903 131.113C141.5 131.425 142.036 131.86 142.483 132.394C142.571 132.5 142.62 132.639 142.619 132.782C142.619 132.925 142.571 133.064 142.483 133.17C141.443 134.282 140.047 134.904 138.594 134.901C137.529 134.892 136.489 134.548 135.597 133.908" stroke="#1C186C" stroke-width="3.29925" stroke-linecap="round" stroke-linejoin="round"/>
<path d="M118.113 151.147C118.277 151.353 118.463 151.537 118.667 151.695C119.238 152.095 119.875 152.365 120.542 152.491C121.209 152.618 121.892 152.597 122.552 152.43C124.11 152.173 125.615 151.613 126.994 150.776C129.586 149.406 131.766 147.248 133.272 144.558C134.608 141.854 135.366 138.852 135.488 135.779C135.488 135.566 135.726 133.968 135.573 133.862L134.035 132.125C133.938 131.957 132.495 132.123 132.3 132.199C129.485 132.277 126.724 133.071 124.236 134.519C121.768 136.114 119.778 138.466 118.512 141.285C117.288 144.069 115.896 148.496 118.113 151.147Z" stroke="#1C186C" stroke-width="3.29925" stroke-linecap="round" stroke-linejoin="round"/>
<path d="M127.773 149.394C127.213 147.316 126.2 145.419 124.823 143.865C123.44 142.316 121.73 141.164 119.844 140.511" stroke="#1C186C" stroke-width="3.29925" stroke-linecap="round" stroke-linejoin="round"/>
<path d="M121.778 149.343C121.907 149.491 122.062 149.608 122.234 149.688C122.405 149.768 122.59 149.81 122.776 149.81C122.963 149.81 123.148 149.769 123.319 149.689C123.491 149.61 123.646 149.493 123.776 149.345C123.965 149.131 124.093 148.86 124.142 148.566C124.192 148.272 124.162 147.969 124.056 147.694C123.95 147.42 123.772 147.185 123.545 147.02C123.318 146.855 123.052 146.767 122.78 146.767C122.507 146.766 122.241 146.854 122.014 147.018C121.787 147.183 121.608 147.417 121.502 147.692C121.395 147.966 121.364 148.269 121.413 148.563C121.462 148.857 121.589 149.128 121.778 149.343Z" fill="#201D67"/>
<path d="M58.7247 211.581L72.9502 196.012C74.4644 194.355 74.4673 191.677 72.9566 190.016C71.4459 188.356 69.0038 188.353 67.4896 190.01L53.2641 205.579C51.7499 207.236 51.747 209.915 53.2577 211.575C54.7683 213.236 57.2104 213.238 58.7247 211.581Z" stroke="#1C186C" stroke-width="3.29925" stroke-linecap="round" stroke-linejoin="round"/>
<path d="M69.9705 193.937C68.3308 195.731 67.7485 195.091 66.0949 196.885C64.4551 198.68 65.0374 199.319 63.3976 201.129C61.7578 202.923 61.1617 202.283 59.5219 204.078C57.8822 205.872 58.4644 206.527 56.8246 208.321" stroke="#1C186C" stroke-width="3.29925" stroke-linecap="round" stroke-linejoin="round"/>
<path d="M63.6369 213.381L74.5838 201.4C76.4037 199.409 76.4071 196.198 74.5916 194.202L57.0876 213.359C58.8892 215.37 61.8309 215.373 63.6369 213.381Z" stroke="#1C186C" stroke-width="3.29925" stroke-linecap="round" stroke-linejoin="round"/>
<path d="M62.5807 188.209L51.6337 200.189C49.8139 202.181 49.8104 205.392 51.626 207.388L69.13 188.231C67.3283 186.22 64.3866 186.217 62.5807 188.209Z" stroke="#1C186C" stroke-width="3.29925" stroke-linecap="round" stroke-linejoin="round"/>
<path d="M254.875 44.0296C257.639 41.3541 261.401 39.7297 265.55 39.7646C269.671 39.7995 273.43 41.4624 276.229 44.1743" stroke="#1C186C" stroke-width="3.29925" stroke-linecap="round" stroke-linejoin="round"/>
<path d="M275.57 37.8888C272.589 35.9071 269.163 34.7772 265.527 34.7429C261.268 34.7079 257.311 36.1951 254.02 38.7787C252.687 39.8274 252.31 41.8816 253.169 43.4652L254.069 45.1251L257.794 51.8862C257.794 51.8862 260.439 56.6982 262.932 61.2361C264.137 63.4289 266.94 63.4624 268.135 61.3026L277.033 45.2715L277.909 43.6897C278.771 42.123 278.385 40.0377 277.026 38.9709C276.568 38.5747 276.069 38.2241 275.57 37.8888Z" stroke="#1C186C" stroke-width="3.29925" stroke-linecap="round" stroke-linejoin="round"/>
<path d="M270.492 47.2017C270.825 47.3542 271.2 47.3546 271.533 47.2029C271.713 47.127 271.852 47.0207 271.991 46.8839C272.241 46.5951 272.394 46.215 272.394 45.8195C272.395 45.4088 272.256 45.0435 271.993 44.7542C271.73 44.4649 271.397 44.3124 271.022 44.312C270.648 44.3116 270.315 44.4634 270.051 44.7521C269.787 45.0409 269.648 45.421 269.648 45.8165C269.647 46.2121 269.799 46.5925 270.049 46.8818C270.173 47.0341 270.326 47.1407 270.492 47.2017Z" fill="#201D67"/>
<path d="M265.03 45.7022C265.363 45.8547 265.738 45.8551 266.071 45.7033C266.237 45.6275 266.39 45.5212 266.529 45.3844C266.779 45.0956 266.932 44.7155 266.932 44.32C266.933 43.9092 266.794 43.544 266.531 43.2547C266.268 42.9654 265.935 42.8129 265.561 42.8125C265.186 42.8121 264.853 42.9638 264.589 43.2526C264.325 43.5413 264.186 43.9063 264.186 44.317C264.185 44.7125 264.337 45.093 264.587 45.3823C264.711 45.5193 264.85 45.626 265.03 45.7022Z" fill="#201D67"/>
<path d="M259.091 46.8844C259.603 47.4478 260.519 47.4488 261.033 46.8865C261.283 46.5978 261.436 46.2176 261.436 45.8221C261.437 45.4114 261.298 45.0461 261.035 44.7568C260.772 44.4675 260.439 44.315 260.064 44.3146C259.884 44.3144 259.704 44.3599 259.551 44.4358C259.385 44.5116 259.232 44.618 259.093 44.7547C258.829 45.0435 258.69 45.4084 258.69 45.8191C258.703 46.1995 258.855 46.5951 259.091 46.8844Z" fill="#201D67"/>
<path d="M261.54 52.3978C261.609 52.5956 261.706 52.7478 261.831 52.9C262.344 53.4634 263.259 53.4644 263.773 52.9021C263.898 52.7502 263.995 52.5982 264.065 52.4005C264.134 52.218 264.176 52.0203 264.176 51.8377C264.177 51.64 264.135 51.4422 264.066 51.2748C263.997 51.0921 263.9 50.9247 263.775 50.7724C263.512 50.4831 263.179 50.3307 262.805 50.3303C262.624 50.3301 262.444 50.3755 262.291 50.4514C262.125 50.5273 261.972 50.6336 261.833 50.7704C261.569 51.0591 261.43 51.424 261.43 51.8348C261.43 52.0173 261.471 52.2151 261.54 52.3978Z" fill="#201D67"/>
<path d="M267.023 52.4046C267.092 52.5872 267.189 52.7546 267.313 52.9069C267.84 53.4703 268.755 53.4713 269.255 52.909C269.38 52.757 269.478 52.605 269.547 52.4073C269.617 52.2248 269.659 52.0271 269.659 51.8446C269.659 51.4338 269.521 51.0686 269.258 50.7793C269.119 50.6422 268.967 50.5356 268.8 50.4594C268.634 50.3831 268.454 50.3373 268.273 50.3371C267.899 50.3367 267.566 50.4884 267.302 50.7772C267.177 50.9292 267.079 51.0964 267.01 51.2789C266.926 51.4613 266.898 51.659 266.898 51.8416C266.912 52.0242 266.94 52.222 267.023 52.4046Z" fill="#201D67"/>
<path d="M266.504 56.7726C266.24 56.4833 265.908 56.3308 265.533 56.3304C265.353 56.3302 265.172 56.3756 265.02 56.4515C264.853 56.5274 264.7 56.6337 264.562 56.7705C264.436 56.9225 264.339 57.0897 264.27 57.2722C264.2 57.4547 264.158 57.6524 264.158 57.8349C264.158 58.2456 264.31 58.6109 264.559 58.9002C264.947 59.3113 265.544 59.4641 266.057 59.2213C266.237 59.1454 266.376 59.0391 266.515 58.9023C266.765 58.6135 266.918 58.2334 266.919 57.8379C266.919 57.6401 266.877 57.4423 266.808 57.2749C266.725 57.0923 266.628 56.9248 266.504 56.7726Z" fill="#201D67"/>
<path d="M198.424 20.7523C199.315 20.9704 200.242 20.9403 201.12 20.6648C201.998 20.3892 202.799 19.877 203.45 19.1748C203.726 18.8628 203.881 18.4454 203.881 18.0108C203.882 17.5763 203.728 17.1585 203.453 16.846L201.872 15.0482" stroke="#1C186C" stroke-width="3.29925" stroke-linecap="round" stroke-linejoin="round"/>
<path d="M188.087 9.19019C187.897 8.20029 187.936 7.17413 188.198 6.20444C188.461 5.23476 188.94 4.35209 189.592 3.63621C189.73 3.48358 189.894 3.36247 190.076 3.2799C190.257 3.19733 190.451 3.15493 190.647 3.15514C190.843 3.15535 191.038 3.19817 191.218 3.28113C191.399 3.36409 191.564 3.48555 191.702 3.63848L193.31 5.43627" stroke="#1C186C" stroke-width="3.29925" stroke-linecap="round" stroke-linejoin="round"/>
<path d="M200.784 5.07802C200.213 4.08463 199.911 2.93353 199.913 1.75894C199.914 0.966115 200.059 0.181389 200.338 -0.549842C200.618 -1.28107 201.027 -1.94429 201.542 -2.50113C201.639 -2.59729 201.765 -2.65046 201.896 -2.65032C202.027 -2.65018 202.153 -2.59674 202.25 -2.50037C202.703 -1.99579 203.065 -1.40144 203.316 -0.748833C203.545 -0.271682 203.704 0.242195 203.787 0.773754C203.818 1.09757 203.818 1.42414 203.786 1.74788C203.535 3.2276 202.845 4.57517 201.824 5.58142C202.771 4.49163 204.013 3.76679 205.366 3.5152C205.662 3.48471 205.959 3.48503 206.254 3.51615C206.74 3.62055 207.208 3.80584 207.642 4.06559C208.239 4.37706 208.776 4.81173 209.223 5.34584C209.31 5.45229 209.359 5.59067 209.359 5.73412C209.359 5.87757 209.31 6.01584 209.222 6.1221C208.182 7.23462 206.786 7.85605 205.334 7.85309C204.268 7.84439 203.228 7.49983 202.337 6.86052" stroke="#1C186C" stroke-width="3.29925" stroke-linecap="round" stroke-linejoin="round"/>
<path d="M184.852 24.0978C185.016 24.3043 185.202 24.4884 185.407 24.6463C185.977 25.0457 186.614 25.3164 187.281 25.4426C187.948 25.5687 188.631 25.5478 189.291 25.3809C190.85 25.1243 192.354 24.5641 193.733 23.7269C196.326 22.3569 198.505 20.1987 200.011 17.5091C201.348 14.8049 202.105 11.8028 202.227 8.73021C202.227 8.51714 202.465 6.91942 202.312 6.81273L200.774 5.07612C200.677 4.90861 199.234 5.07447 199.04 5.15035C196.224 5.228 193.463 6.02215 190.975 7.47016C188.507 9.06547 186.517 11.4173 185.251 14.2364C184.027 17.0201 182.635 21.4473 184.852 24.0978Z" stroke="#1C186C" stroke-width="3.29925" stroke-linecap="round" stroke-linejoin="round"/>
<path d="M194.512 22.3438C193.951 20.2661 192.939 18.3689 191.561 16.8154C190.178 15.2657 188.468 14.1138 186.582 13.4615" stroke="#1C186C" stroke-width="3.29925" stroke-linecap="round" stroke-linejoin="round"/>
<path d="M188.517 22.2944C188.646 22.4419 188.801 22.5592 188.973 22.6394C189.145 22.7196 189.329 22.761 189.516 22.7612C189.702 22.7614 189.887 22.7204 190.059 22.6405C190.23 22.5607 190.386 22.4437 190.515 22.2966C190.704 22.0818 190.832 21.8108 190.882 21.5172C190.931 21.2236 190.901 20.9205 190.795 20.6456C190.689 20.3707 190.511 20.1362 190.284 19.9712C190.057 19.8062 189.791 19.7181 189.519 19.7178C189.247 19.7175 188.98 19.805 188.753 19.9695C188.526 20.134 188.348 20.3682 188.241 20.6429C188.134 20.9175 188.103 21.2206 188.152 21.5143C188.202 21.8079 188.328 22.0793 188.517 22.2944Z" fill="#201D67"/>
<path d="M57.9082 17.9712L52.2228 0.75256L46.5003 17.9589" stroke="#1C186C" stroke-width="3.29925" stroke-linecap="round" stroke-linejoin="round"/>
<path d="M43.6381 18.734C43.874 18.7343 44.0822 18.7193 44.2765 18.6891C45.8031 18.4168 46.0126 17.169 47.9274 17.1711C50.0781 17.1734 50.0765 18.741 52.1994 18.7432C54.3502 18.7455 54.3519 17.178 56.4748 17.1803C58.3897 17.1824 58.5826 18.4153 60.1225 18.7061C60.3029 18.7367 60.5249 18.7522 60.7607 18.7524" stroke="#1C186C" stroke-width="3.29925" stroke-linecap="round" stroke-linejoin="round"/>
<path d="M45.0621 21.0723C45.063 20.2504 45.1749 19.4286 45.4116 18.683C46.7305 18.4105 46.8984 17.1625 48.5363 17.1643C50.3823 17.1663 50.3806 18.734 52.1989 18.736C54.0449 18.738 54.0466 17.1702 55.8649 17.1722C57.5027 17.1739 57.6818 18.407 58.9862 18.6976C59.2075 19.4437 59.3316 20.2657 59.3307 21.0876C59.326 25.4104 56.1299 28.9077 52.188 28.9035C48.2461 28.8992 45.0574 25.395 45.0621 21.0723Z" stroke="#1C186C" stroke-width="3.29925" stroke-linecap="round" stroke-linejoin="round"/>
<path d="M45.0673 16.3924L59.3359 16.4077" stroke="#1C186C" stroke-width="3.29925" stroke-linecap="round" stroke-linejoin="round"/>
<path d="M72.9209 118.957C69.0769 118.694 65.2347 116.849 62.199 113.467C59.191 110.115 57.5441 105.852 57.2989 101.591" stroke="#1C186C" stroke-width="3.29925" stroke-linecap="round" stroke-linejoin="round"/>
<path d="M55.7199 100.599L57.4271 100.144L74.7489 95.5213C77.0807 94.8999 79.118 97.1849 78.5324 99.7715L77.3055 105.249L77.2218 105.599L76.1483 110.361L76.0507 110.818L74.2383 118.806L73.7921 120.753C73.3738 122.625 71.7213 123.825 70.0288 123.519C65.8669 122.769 61.9562 120.664 58.8379 117.191C55.7335 113.748 53.8649 109.409 53.19 104.797C52.9145 102.909 54.0265 101.054 55.7199 100.599Z" stroke="#1C186C" stroke-width="3.29925" stroke-linecap="round" stroke-linejoin="round"/>
<path d="M66.1771 105.478C64.9506 105.476 63.9551 106.579 63.9536 107.941C63.9522 109.303 64.9453 110.408 66.1718 110.409C67.3983 110.411 68.3938 109.308 68.3952 107.946C68.3967 106.584 67.4036 105.479 66.1771 105.478Z" stroke="#1C186C" stroke-width="3.29925" stroke-linecap="round" stroke-linejoin="round"/>
<path d="M74.3882 106.418C75.1525 105.566 76.2493 105.293 77.2205 105.629L75.8259 111.838C75.2986 111.7 74.7992 111.426 74.3833 110.969C73.2465 109.704 73.2487 107.665 74.3882 106.418Z" stroke="#1C186C" stroke-width="3.29925" stroke-linecap="round" stroke-linejoin="round"/>
<path d="M72.6509 97.7394C72.8581 98.6224 72.6489 99.5963 72.0374 100.281C71.1063 101.315 69.6073 101.313 68.6785 100.277C68.3735 99.9418 68.1657 99.5306 68.069 99.0891" stroke="#1C186C" stroke-width="3.29925" stroke-linecap="round" stroke-linejoin="round"/>
<path d="M125.488 62.506L139.714 46.9372C141.228 45.2799 141.231 42.6014 139.72 40.9409C138.21 39.2805 135.767 39.2778 134.253 40.9351L120.028 56.5039C118.514 58.1611 118.511 60.8396 120.021 62.5001C121.532 64.1606 123.974 64.1632 125.488 62.506Z" stroke="#1C186C" stroke-width="3.29925" stroke-linecap="round" stroke-linejoin="round"/>
<path d="M136.737 44.8614C135.097 46.6557 134.515 46.0158 132.861 47.8101C131.222 49.6043 131.804 50.2442 130.164 52.0538C128.524 53.8481 127.928 53.2081 126.289 55.0024C124.649 56.7967 125.231 57.4518 123.591 59.2461" stroke="#1C186C" stroke-width="3.29925" stroke-linecap="round" stroke-linejoin="round"/>
<path d="M130.401 64.3089L141.347 52.3282C143.167 50.3365 143.171 47.1253 141.355 45.1297L123.851 64.2866C125.653 66.2974 128.595 66.3006 130.401 64.3089Z" stroke="#1C186C" stroke-width="3.29925" stroke-linecap="round" stroke-linejoin="round"/>
<path d="M129.345 39.1355L118.398 51.1162C116.579 53.1079 116.575 56.3191 118.391 58.3147L135.895 39.1578C134.093 37.1469 131.151 37.1438 129.345 39.1355Z" stroke="#1C186C" stroke-width="3.29925" stroke-linecap="round" stroke-linejoin="round"/>
<path d="M199.2 97.1207L213.076 97.1356C215.545 97.1383 217.541 99.3319 217.538 102.041L217.535 104.963L194.723 104.938L194.727 102.016C194.73 99.3074 196.73 97.118 199.2 97.1207Z" stroke="#1C186C" stroke-width="3.29925" stroke-linecap="round" stroke-linejoin="round"/>
<path d="M195.43 109.625L216.826 109.648C218.005 109.649 218.964 108.6 218.965 107.306C218.967 106.013 218.011 104.961 216.831 104.96L195.435 104.937C194.255 104.936 193.297 105.985 193.295 107.279C193.294 108.572 194.25 109.623 195.43 109.625Z" stroke="#1C186C" stroke-width="3.29925" stroke-linecap="round" stroke-linejoin="round"/>
<path d="M205.375 122.142L206.846 122.144C212.743 122.15 217.522 116.92 217.529 110.452L217.53 109.645L194.718 109.621L194.718 110.427C194.711 116.895 199.478 122.136 205.375 122.142Z" stroke="#1C186C" stroke-width="3.29925" stroke-linecap="round" stroke-linejoin="round"/>
<path d="M217.691 104.576C217.151 103.936 216.763 103.069 215.75 103.068C214.737 103.066 214.348 103.933 213.806 104.572" stroke="#1C186C" stroke-width="3.29925" stroke-linecap="round" stroke-linejoin="round"/>
<path d="M204.662 104.562C204.122 103.923 203.734 103.055 202.721 103.054C201.694 103.053 201.305 103.92 200.763 104.558" stroke="#1C186C" stroke-width="3.29925" stroke-linecap="round" stroke-linejoin="round"/>
<path d="M196.184 103.062C197.196 103.063 197.584 103.931 198.124 104.57" stroke="#1C186C" stroke-width="3.29925" stroke-linecap="round" stroke-linejoin="round"/>
<path d="M211.17 104.569C210.629 103.93 210.242 103.062 209.229 103.061C208.216 103.06 207.826 103.927 207.284 104.565" stroke="#1C186C" stroke-width="3.29925" stroke-linecap="round" stroke-linejoin="round"/>
</g>
<path d="M72.6349 58.188C72.0708 57.2588 71.2909 56.5454 70.2954 56.0476C69.333 55.5498 68.1881 55.3009 66.8607 55.3009C64.405 55.3009 62.4637 56.0974 61.0367 57.6902C59.6429 59.2831 58.9461 61.4236 58.9461 64.1116C58.9461 67.1314 59.6927 69.4378 61.1861 71.0307C62.7126 72.5904 64.9194 73.3702 67.8065 73.3702C71.2246 73.3702 73.6637 71.8271 75.1238 68.7409H65.3176V61.7222H83.5363V71.18C82.773 73.0384 81.6447 74.7806 80.1514 76.4067C78.6912 78.0328 76.8329 79.3768 74.5763 80.4387C72.3197 81.4674 69.7478 81.9818 66.8607 81.9818C63.3431 81.9818 60.2237 81.2351 57.5025 79.7418C54.8145 78.2153 52.7238 76.108 51.2305 73.42C49.7704 70.6988 49.0403 67.596 49.0403 64.1116C49.0403 60.6603 49.7704 57.5907 51.2305 54.9027C52.7238 52.1815 54.8145 50.0742 57.5025 48.5809C60.1905 47.0544 63.2933 46.2911 66.8109 46.2911C71.2246 46.2911 74.8749 47.3531 77.7621 49.4769C80.6492 51.6008 82.4412 54.5045 83.1381 58.188H72.6349ZM97.665 54.4547V60.1791H108.865V67.596H97.665V73.9178H110.358V81.7329H87.9086V46.6396H110.358V54.4547H97.665ZM141.611 46.6396V54.4049H132.253V81.7329H122.497V54.4049H113.238V46.6396H141.611ZM180.384 53.9569H165.451V59.4822C166.082 58.8185 166.944 58.2876 168.039 57.8894C169.135 57.4911 170.346 57.292 171.673 57.292C174.063 57.292 176.054 57.8396 177.647 58.9347C179.273 60.0298 180.467 61.4734 181.231 63.2654C181.994 65.0574 182.375 67.0153 182.375 69.1391C182.375 73.055 181.264 76.1412 179.04 78.3978C176.817 80.6212 173.731 81.7329 169.782 81.7329C167.027 81.7329 164.638 81.2683 162.614 80.3391C160.623 79.3768 159.096 78.0494 158.034 76.3569C156.972 74.6645 156.425 72.7231 156.391 70.5329H165.899C165.999 71.2962 166.33 71.9599 166.895 72.524C167.459 73.0882 168.288 73.3702 169.383 73.3702C170.545 73.3702 171.424 72.972 172.022 72.1756C172.619 71.3791 172.918 70.3172 172.918 68.9898C172.918 67.6956 172.602 66.7166 171.972 66.0529C171.341 65.356 170.429 65.0076 169.234 65.0076C168.338 65.0076 167.608 65.2399 167.044 65.7045C166.513 66.1359 166.198 66.6834 166.098 67.3471H156.591V45.3454H180.384V53.9569ZM186.521 63.0165C186.521 57.3086 187.682 52.812 190.005 49.5267C192.328 46.2414 195.978 44.5987 200.956 44.5987C205.934 44.5987 209.584 46.2414 211.907 49.5267C214.263 52.812 215.442 57.3086 215.442 63.0165C215.442 68.7907 214.28 73.3205 211.957 76.6058C209.634 79.8911 205.967 81.5338 200.956 81.5338C195.945 81.5338 192.278 79.8911 189.955 76.6058C187.666 73.3205 186.521 68.7907 186.521 63.0165ZM205.785 63.0165C205.785 60.0298 205.469 57.7566 204.839 56.1969C204.208 54.604 202.914 53.8076 200.956 53.8076C198.998 53.8076 197.704 54.604 197.074 56.1969C196.443 57.7566 196.128 60.0298 196.128 63.0165C196.128 66.0695 196.426 68.3925 197.024 69.9854C197.654 71.5451 198.965 72.3249 200.956 72.3249C202.947 72.3249 204.242 71.5451 204.839 69.9854C205.469 68.3925 205.785 66.0695 205.785 63.0165ZM218.589 54.7036C218.589 51.8828 219.385 49.7258 220.978 48.2325C222.571 46.7391 224.662 45.9925 227.25 45.9925C229.805 45.9925 231.879 46.7391 233.472 48.2325C235.065 49.7258 235.862 51.8828 235.862 54.7036C235.862 57.4911 235.065 59.6482 233.472 61.1747C231.879 62.668 229.805 63.4147 227.25 63.4147C224.695 63.4147 222.604 62.668 220.978 61.1747C219.385 59.6482 218.589 57.4911 218.589 54.7036ZM253.931 46.54L235.065 81.7329H225.707L244.573 46.54H253.931ZM227.2 51.7169C225.84 51.7169 225.159 52.7125 225.159 54.7036C225.159 56.6947 225.84 57.6902 227.2 57.6902C227.864 57.6902 228.378 57.4414 228.743 56.9436C229.142 56.4458 229.341 55.6991 229.341 54.7036C229.341 53.708 229.142 52.9614 228.743 52.4636C228.378 51.9658 227.864 51.7169 227.2 51.7169ZM243.776 73.5196C243.776 70.732 244.573 68.5916 246.166 67.0982C247.792 65.5717 249.882 64.8085 252.438 64.8085C254.993 64.8085 257.05 65.5717 258.61 67.0982C260.203 68.5916 260.999 70.732 260.999 73.5196C260.999 76.3403 260.203 78.5139 258.61 80.0405C257.05 81.5338 254.993 82.2805 252.438 82.2805C249.882 82.2805 247.792 81.5338 246.166 80.0405C244.573 78.5139 243.776 76.3403 243.776 73.5196ZM252.388 70.5329C250.994 70.5329 250.297 71.5285 250.297 73.5196C250.297 75.5439 250.994 76.556 252.388 76.556C253.018 76.556 253.516 76.3071 253.881 75.8094C254.279 75.2784 254.479 74.5151 254.479 73.5196C254.479 72.5572 254.279 71.8271 253.881 71.3294C253.516 70.7984 253.018 70.5329 252.388 70.5329Z" fill="white"/>
</g>
</svg>
