<svg width="231" height="18" viewBox="0 0 231 18" fill="none" xmlns="http://www.w3.org/2000/svg">
<path d="M79.895 14.105C78.915 14.105 78.015 13.875 77.195 13.415C76.375 12.955 75.725 12.32 75.245 11.51C74.765 10.69 74.525 9.765 74.525 8.735C74.525 7.715 74.765 6.8 75.245 5.99C75.725 5.17 76.375 4.53 77.195 4.07C78.015 3.61 78.915 3.38 79.895 3.38C80.885 3.38 81.785 3.61 82.595 4.07C83.415 4.53 84.06 5.17 84.53 5.99C85.01 6.8 85.25 7.715 85.25 8.735C85.25 9.765 85.01 10.69 84.53 11.51C84.06 12.32 83.415 12.955 82.595 13.415C81.775 13.875 80.875 14.105 79.895 14.105ZM79.895 12.23C80.525 12.23 81.08 12.09 81.56 11.81C82.04 11.52 82.415 11.11 82.685 10.58C82.955 10.05 83.09 9.435 83.09 8.735C83.09 8.035 82.955 7.425 82.685 6.905C82.415 6.375 82.04 5.97 81.56 5.69C81.08 5.41 80.525 5.27 79.895 5.27C79.265 5.27 78.705 5.41 78.215 5.69C77.735 5.97 77.36 6.375 77.09 6.905C76.82 7.425 76.685 8.035 76.685 8.735C76.685 9.435 76.82 10.05 77.09 10.58C77.36 11.11 77.735 11.52 78.215 11.81C78.705 12.09 79.265 12.23 79.895 12.23ZM98.2173 3.53L94.3773 14H91.8273L87.9873 3.53H90.2373L93.1173 11.855L95.9823 3.53H98.2173ZM103.576 5.225V7.85H107.101V9.515H103.576V12.29H107.551V14H101.476V3.515H107.551V5.225H103.576ZM116.86 14L114.55 9.92H113.56V14H111.46V3.53H115.39C116.2 3.53 116.89 3.675 117.46 3.965C118.03 4.245 118.455 4.63 118.735 5.12C119.025 5.6 119.17 6.14 119.17 6.74C119.17 7.43 118.97 8.055 118.57 8.615C118.17 9.165 117.575 9.545 116.785 9.755L119.29 14H116.86ZM113.56 8.345H115.315C115.885 8.345 116.31 8.21 116.59 7.94C116.87 7.66 117.01 7.275 117.01 6.785C117.01 6.305 116.87 5.935 116.59 5.675C116.31 5.405 115.885 5.27 115.315 5.27H113.56V8.345ZM128.148 5V3.065H131.763V14H129.603V5H128.148ZM135.838 8.39C135.838 6.66 136.148 5.305 136.768 4.325C137.398 3.345 138.438 2.855 139.888 2.855C141.338 2.855 142.373 3.345 142.993 4.325C143.623 5.305 143.938 6.66 143.938 8.39C143.938 10.13 143.623 11.495 142.993 12.485C142.373 13.475 141.338 13.97 139.888 13.97C138.438 13.97 137.398 13.475 136.768 12.485C136.148 11.495 135.838 10.13 135.838 8.39ZM141.868 8.39C141.868 7.65 141.818 7.03 141.718 6.53C141.628 6.02 141.438 5.605 141.148 5.285C140.868 4.965 140.448 4.805 139.888 4.805C139.328 4.805 138.903 4.965 138.613 5.285C138.333 5.605 138.143 6.02 138.043 6.53C137.953 7.03 137.908 7.65 137.908 8.39C137.908 9.15 137.953 9.79 138.043 10.31C138.133 10.82 138.323 11.235 138.613 11.555C138.903 11.865 139.328 12.02 139.888 12.02C140.448 12.02 140.873 11.865 141.163 11.555C141.453 11.235 141.643 10.82 141.733 10.31C141.823 9.79 141.868 9.15 141.868 8.39ZM147.535 8.39C147.535 6.66 147.845 5.305 148.465 4.325C149.095 3.345 150.135 2.855 151.585 2.855C153.035 2.855 154.07 3.345 154.69 4.325C155.32 5.305 155.635 6.66 155.635 8.39C155.635 10.13 155.32 11.495 154.69 12.485C154.07 13.475 153.035 13.97 151.585 13.97C150.135 13.97 149.095 13.475 148.465 12.485C147.845 11.495 147.535 10.13 147.535 8.39ZM153.565 8.39C153.565 7.65 153.515 7.03 153.415 6.53C153.325 6.02 153.135 5.605 152.845 5.285C152.565 4.965 152.145 4.805 151.585 4.805C151.025 4.805 150.6 4.965 150.31 5.285C150.03 5.605 149.84 6.02 149.74 6.53C149.65 7.03 149.605 7.65 149.605 8.39C149.605 9.15 149.65 9.79 149.74 10.31C149.83 10.82 150.02 11.235 150.31 11.555C150.6 11.865 151.025 12.02 151.585 12.02C152.145 12.02 152.57 11.865 152.86 11.555C153.15 11.235 153.34 10.82 153.43 10.31C153.52 9.79 153.565 9.15 153.565 8.39ZM159.233 8.39C159.233 6.66 159.543 5.305 160.163 4.325C160.793 3.345 161.833 2.855 163.283 2.855C164.733 2.855 165.768 3.345 166.388 4.325C167.018 5.305 167.333 6.66 167.333 8.39C167.333 10.13 167.018 11.495 166.388 12.485C165.768 13.475 164.733 13.97 163.283 13.97C161.833 13.97 160.793 13.475 160.163 12.485C159.543 11.495 159.233 10.13 159.233 8.39ZM165.263 8.39C165.263 7.65 165.213 7.03 165.113 6.53C165.023 6.02 164.833 5.605 164.543 5.285C164.263 4.965 163.843 4.805 163.283 4.805C162.723 4.805 162.298 4.965 162.008 5.285C161.728 5.605 161.538 6.02 161.438 6.53C161.348 7.03 161.303 7.65 161.303 8.39C161.303 9.15 161.348 9.79 161.438 10.31C161.528 10.82 161.718 11.235 162.008 11.555C162.298 11.865 162.723 12.02 163.283 12.02C163.843 12.02 164.268 11.865 164.558 11.555C164.848 11.235 165.038 10.82 165.128 10.31C165.218 9.79 165.263 9.15 165.263 8.39ZM178.814 3.53V10.01C178.814 10.72 178.999 11.265 179.369 11.645C179.739 12.015 180.259 12.2 180.929 12.2C181.609 12.2 182.134 12.015 182.504 11.645C182.874 11.265 183.059 10.72 183.059 10.01V3.53H185.174V9.995C185.174 10.885 184.979 11.64 184.589 12.26C184.209 12.87 183.694 13.33 183.044 13.64C182.404 13.95 181.689 14.105 180.899 14.105C180.119 14.105 179.409 13.95 178.769 13.64C178.139 13.33 177.639 12.87 177.269 12.26C176.899 11.64 176.714 10.885 176.714 9.995V3.53H178.814ZM192.818 14.105C192.088 14.105 191.428 13.98 190.838 13.73C190.258 13.48 189.798 13.12 189.458 12.65C189.118 12.18 188.943 11.625 188.933 10.985H191.183C191.213 11.415 191.363 11.755 191.633 12.005C191.913 12.255 192.293 12.38 192.773 12.38C193.263 12.38 193.648 12.265 193.928 12.035C194.208 11.795 194.348 11.485 194.348 11.105C194.348 10.795 194.253 10.54 194.063 10.34C193.873 10.14 193.633 9.985 193.343 9.875C193.063 9.755 192.673 9.625 192.173 9.485C191.493 9.285 190.938 9.09 190.508 8.9C190.088 8.7 189.723 8.405 189.413 8.015C189.113 7.615 188.963 7.085 188.963 6.425C188.963 5.805 189.118 5.265 189.428 4.805C189.738 4.345 190.173 3.995 190.733 3.755C191.293 3.505 191.933 3.38 192.653 3.38C193.733 3.38 194.608 3.645 195.278 4.175C195.958 4.695 196.333 5.425 196.403 6.365H194.093C194.073 6.005 193.918 5.71 193.628 5.48C193.348 5.24 192.973 5.12 192.503 5.12C192.093 5.12 191.763 5.225 191.513 5.435C191.273 5.645 191.153 5.95 191.153 6.35C191.153 6.63 191.243 6.865 191.423 7.055C191.613 7.235 191.843 7.385 192.113 7.505C192.393 7.615 192.783 7.745 193.283 7.895C193.963 8.095 194.518 8.295 194.948 8.495C195.378 8.695 195.748 8.995 196.058 9.395C196.368 9.795 196.523 10.32 196.523 10.97C196.523 11.53 196.378 12.05 196.088 12.53C195.798 13.01 195.373 13.395 194.813 13.685C194.253 13.965 193.588 14.105 192.818 14.105ZM202.444 5.225V7.85H205.969V9.515H202.444V12.29H206.419V14H200.344V3.515H206.419V5.225H202.444ZM215.727 14L213.417 9.92H212.427V14H210.327V3.53H214.257C215.067 3.53 215.757 3.675 216.327 3.965C216.897 4.245 217.322 4.63 217.602 5.12C217.892 5.6 218.037 6.14 218.037 6.74C218.037 7.43 217.837 8.055 217.437 8.615C217.037 9.165 216.442 9.545 215.652 9.755L218.157 14H215.727ZM212.427 8.345H214.182C214.752 8.345 215.177 8.21 215.457 7.94C215.737 7.66 215.877 7.275 215.877 6.785C215.877 6.305 215.737 5.935 215.457 5.675C215.177 5.405 214.752 5.27 214.182 5.27H212.427V8.345ZM225.551 14.105C224.821 14.105 224.161 13.98 223.571 13.73C222.991 13.48 222.531 13.12 222.191 12.65C221.851 12.18 221.676 11.625 221.666 10.985H223.916C223.946 11.415 224.096 11.755 224.366 12.005C224.646 12.255 225.026 12.38 225.506 12.38C225.996 12.38 226.381 12.265 226.661 12.035C226.941 11.795 227.081 11.485 227.081 11.105C227.081 10.795 226.986 10.54 226.796 10.34C226.606 10.14 226.366 9.985 226.076 9.875C225.796 9.755 225.406 9.625 224.906 9.485C224.226 9.285 223.671 9.09 223.241 8.9C222.821 8.7 222.456 8.405 222.146 8.015C221.846 7.615 221.696 7.085 221.696 6.425C221.696 5.805 221.851 5.265 222.161 4.805C222.471 4.345 222.906 3.995 223.466 3.755C224.026 3.505 224.666 3.38 225.386 3.38C226.466 3.38 227.341 3.645 228.011 4.175C228.691 4.695 229.066 5.425 229.136 6.365H226.826C226.806 6.005 226.651 5.71 226.361 5.48C226.081 5.24 225.706 5.12 225.236 5.12C224.826 5.12 224.496 5.225 224.246 5.435C224.006 5.645 223.886 5.95 223.886 6.35C223.886 6.63 223.976 6.865 224.156 7.055C224.346 7.235 224.576 7.385 224.846 7.505C225.126 7.615 225.516 7.745 226.016 7.895C226.696 8.095 227.251 8.295 227.681 8.495C228.111 8.695 228.481 8.995 228.791 9.395C229.101 9.795 229.256 10.32 229.256 10.97C229.256 11.53 229.111 12.05 228.821 12.53C228.531 13.01 228.106 13.395 227.546 13.685C226.986 13.965 226.321 14.105 225.551 14.105Z" fill="#201F1F" fill-opacity="0.2"/>
<line opacity="0.2" y1="7.5" x2="54" y2="7.5" stroke="#201F1F"/>
</svg>
