<svg width="138" height="23" viewBox="0 0 138 23" fill="none" xmlns="http://www.w3.org/2000/svg">
<path fill-rule="evenodd" clip-rule="evenodd" d="M11.9508 0.294884L15.2326 7.26932L22.5688 8.38799C22.7587 8.41751 22.9162 8.55695 22.9754 8.7479C23.0345 8.93886 22.9851 9.14837 22.8478 9.28867L17.5403 14.7163L18.7934 22.3818C18.8264 22.5795 18.749 22.7796 18.5938 22.8977C18.4386 23.0158 18.2327 23.0315 18.0629 22.938L11.5007 19.3196L4.93864 22.9391C4.76888 23.0328 4.56286 23.0174 4.40761 22.8994C4.25235 22.7813 4.17494 22.5811 4.20807 22.3834L5.46118 14.7163L0.152187 9.28867C0.0148778 9.14837 -0.0345498 8.93886 0.0246073 8.7479C0.0837645 8.55695 0.241294 8.41751 0.431213 8.38799L7.7674 7.26932L11.0507 0.294884C11.1343 0.114543 11.3091 0 11.5007 0C11.6924 0 11.8672 0.114543 11.9508 0.294884Z" fill="#F59E0B"/>
<path fill-rule="evenodd" clip-rule="evenodd" d="M40.7008 0.294884L43.9826 7.26932L51.3188 8.38799C51.5087 8.41751 51.6662 8.55695 51.7254 8.7479C51.7845 8.93886 51.7351 9.14837 51.5978 9.28867L46.2903 14.7163L47.5434 22.3818C47.5764 22.5795 47.499 22.7796 47.3438 22.8977C47.1886 23.0158 46.9827 23.0315 46.8129 22.938L40.2507 19.3196L33.6886 22.9391C33.5189 23.0328 33.3129 23.0174 33.1576 22.8994C33.0024 22.7813 32.9249 22.5811 32.9581 22.3834L34.2112 14.7163L28.9022 9.28867C28.7649 9.14837 28.7155 8.93886 28.7746 8.7479C28.8338 8.55695 28.9913 8.41751 29.1812 8.38799L36.5174 7.26932L39.8007 0.294884C39.8843 0.114543 40.0591 0 40.2507 0C40.4424 0 40.6172 0.114543 40.7008 0.294884Z" fill="#F59E0B"/>
<path fill-rule="evenodd" clip-rule="evenodd" d="M69.4508 0.294884L72.7326 7.26932L80.0688 8.38799C80.2587 8.41751 80.4162 8.55695 80.4754 8.7479C80.5345 8.93886 80.4851 9.14837 80.3478 9.28867L75.0403 14.7163L76.2934 22.3818C76.3264 22.5795 76.249 22.7796 76.0938 22.8977C75.9386 23.0158 75.7327 23.0315 75.5629 22.938L69.0007 19.3196L62.4386 22.9391C62.2689 23.0328 62.0629 23.0174 61.9076 22.8994C61.7524 22.7813 61.6749 22.5811 61.7081 22.3834L62.9612 14.7163L57.6522 9.28867C57.5149 9.14837 57.4655 8.93886 57.5246 8.7479C57.5838 8.55695 57.7413 8.41751 57.9312 8.38799L65.2674 7.26932L68.5507 0.294884C68.6343 0.114543 68.8091 0 69.0007 0C69.1924 0 69.3672 0.114543 69.4508 0.294884Z" fill="#F59E0B"/>
<path fill-rule="evenodd" clip-rule="evenodd" d="M98.2008 0.294884L101.483 7.26932L108.819 8.38799C109.009 8.41751 109.166 8.55695 109.225 8.7479C109.285 8.93886 109.235 9.14837 109.098 9.28867L103.79 14.7163L105.043 22.3818C105.076 22.5795 104.999 22.7796 104.844 22.8977C104.689 23.0158 104.483 23.0315 104.313 22.938L97.7507 19.3196L91.1886 22.9391C91.0189 23.0328 90.8129 23.0174 90.6576 22.8994C90.5024 22.7813 90.4249 22.5811 90.4581 22.3834L91.7112 14.7163L86.4022 9.28867C86.2649 9.14837 86.2155 8.93886 86.2746 8.7479C86.3338 8.55695 86.4913 8.41751 86.6812 8.38799L94.0174 7.26932L97.3007 0.294884C97.3843 0.114543 97.5591 0 97.7507 0C97.9424 0 98.1172 0.114543 98.2008 0.294884Z" fill="#F59E0B"/>
<path fill-rule="evenodd" clip-rule="evenodd" d="M126.951 0.294884L130.233 7.26932L137.569 8.38799C137.759 8.41751 137.916 8.55695 137.975 8.7479C138.035 8.93886 137.985 9.14837 137.848 9.28867L132.54 14.7163L133.793 22.3818C133.826 22.5795 133.749 22.7796 133.594 22.8977C133.439 23.0158 133.233 23.0315 133.063 22.938L126.501 19.3196L119.939 22.9391C119.769 23.0328 119.563 23.0174 119.408 22.8994C119.252 22.7813 119.175 22.5811 119.208 22.3834L120.461 14.7163L115.152 9.28867C115.015 9.14837 114.965 8.93886 115.025 8.7479C115.084 8.55695 115.241 8.41751 115.431 8.38799L122.767 7.26932L126.051 0.294884C126.134 0.114543 126.309 0 126.501 0C126.692 0 126.867 0.114543 126.951 0.294884Z" fill="#F59E0B"/>
</svg>
